<svg xmlns="http://www.w3.org/2000/svg" xmlns:xlink="http://www.w3.org/1999/xlink" width="256" zoomAndPan="magnify" viewBox="0 0 192 191.999996" height="256" preserveAspectRatio="xMidYMid meet" version="1.0"><rect x="-19.2" width="230.4" fill="#ffffff" y="-19.2" height="230.399995" fill-opacity="1"/><rect x="-19.2" width="230.4" fill="#ffffff" y="-19.2" height="230.399995" fill-opacity="1"/><path fill="#abddc7" d="M 152.9375 113.449219 C 140.238281 147.726562 110.25 185.320312 66.863281 175.304688 C 37.773438 168.609375 28.898438 128.226562 32.257812 101.953125 C 33.566406 91.617188 36.875 81.320312 40.46875 71.582031 C 47.480469 52.648438 60.863281 32.84375 74.128906 22.539062 C 90.632812 9.683594 111.480469 6.84375 128.699219 13.257812 C 142.367188 18.324219 150.0625 27.902344 155.695312 42.585938 C 162.894531 61.328125 161.746094 89.609375 152.9375 113.449219 Z M 152.9375 113.449219 " fill-opacity="1" fill-rule="evenodd"/><path fill="#f1a776" d="M 129.566406 19.921875 C 125.808594 18.007812 119.058594 16.042969 117.429688 15.738281 C 106.59375 13.667969 91.648438 17.226562 83.554688 25.011719 C 79.53125 28.886719 74.660156 37.238281 74.644531 42.402344 C 74.113281 43.414062 73.53125 43.789062 72.449219 43.164062 C 69.191406 41.378906 65.535156 43.253906 63.9375 46.394531 C 62.042969 50.132812 62.308594 53.699219 64.851562 57.046875 C 65.683594 57.929688 66.5625 58.773438 67.945312 58.980469 C 67.179688 58.863281 68.0625 64.621094 68.160156 65.167969 C 70.921875 80.289062 90.269531 90.484375 103.519531 94.582031 C 108.054688 95.988281 112.878906 96.621094 117.761719 96.285156 C 125.976562 95.722656 133.171875 91.800781 138.160156 85.253906 C 140.96875 81.605469 141.984375 76.492188 142.332031 76.015625 C 149.746094 69.328125 152.238281 60.886719 151.875 51.910156 C 151.375 38.804688 141.070312 25.828125 129.566406 19.921875 Z M 129.566406 19.921875 " fill-opacity="1" fill-rule="evenodd"/><path fill="#ea904f" d="M 88.207031 62.929688 C 86.976562 66.660156 82.492188 68.492188 78.167969 67.042969 C 73.828125 65.628906 71.316406 61.4375 72.550781 57.722656 C 73.777344 53.980469 78.285156 52.132812 82.621094 53.566406 C 86.945312 55.007812 89.453125 59.1875 88.207031 62.929688 Z M 88.207031 62.929688 " fill-opacity="1" fill-rule="evenodd"/><path fill="#ea904f" d="M 128.734375 84.660156 C 126.988281 88.175781 122.285156 89.398438 118.195312 87.382812 C 114.109375 85.363281 112.179688 80.898438 113.925781 77.363281 C 115.636719 73.839844 120.339844 72.625 124.445312 74.632812 C 128.535156 76.65625 130.429688 81.121094 128.734375 84.660156 Z M 128.734375 84.660156 " fill-opacity="1" fill-rule="evenodd"/><path fill="#f1a776" d="M 140.867188 74.582031 C 140.867188 74.582031 152.703125 76.332031 144.691406 88.160156 C 144.691406 88.160156 137.394531 95.90625 133.390625 88.203125 " fill-opacity="1" fill-rule="evenodd"/><path fill="#572a0e" d="M 99.976562 47.175781 C 99.8125 47.175781 99.644531 47.078125 99.5625 46.917969 C 98.015625 43.871094 94.027344 45.21875 93.992188 45.230469 C 93.726562 45.304688 93.460938 45.1875 93.378906 44.9375 C 93.292969 44.6875 93.425781 44.429688 93.660156 44.328125 C 95.324219 43.746094 98.878906 43.453125 100.410156 46.476562 C 100.542969 46.710938 100.441406 47.003906 100.210938 47.121094 C 100.144531 47.152344 100.058594 47.175781 99.976562 47.175781 Z M 99.976562 47.175781 " fill-opacity="1" fill-rule="nonzero"/><path fill="#572a0e" d="M 122.066406 56.269531 C 121.886719 56.269531 121.71875 56.179688 121.652344 56.015625 C 121.554688 55.863281 119.691406 52.230469 116.5 53.332031 C 116.234375 53.414062 115.96875 53.289062 115.882812 53.03125 C 115.800781 52.78125 115.933594 52.515625 116.167969 52.433594 C 119.390625 51.332031 121.71875 54.015625 122.484375 55.582031 C 122.617188 55.816406 122.519531 56.109375 122.285156 56.222656 C 122.214844 56.257812 122.152344 56.269531 122.066406 56.269531 Z M 122.066406 56.269531 " fill-opacity="1" fill-rule="nonzero"/><path fill="#d36262" d="M 101.238281 76.289062 C 100.410156 76.289062 99.5625 76.164062 98.75 75.898438 C 95.789062 74.90625 93.726562 72.367188 93.359375 69.277344 C 93.292969 68.703125 93.695312 68.175781 94.273438 68.109375 C 94.824219 68.007812 95.371094 68.453125 95.441406 69.027344 C 95.722656 71.308594 97.21875 73.175781 99.394531 73.910156 C 101.273438 74.507812 103.351562 74.148438 104.898438 72.914062 C 105.363281 72.539062 106.027344 72.605469 106.394531 73.074219 C 106.742188 73.523438 106.660156 74.179688 106.226562 74.542969 C 104.78125 75.6875 103.035156 76.289062 101.238281 76.289062 Z M 101.238281 76.289062 " fill-opacity="1" fill-rule="nonzero"/><path fill="#abddc7" d="M 133.40625 93.757812 C 133.40625 93.757812 89.003906 91.683594 80.429688 96.363281 C 71.816406 101.035156 86.378906 111.539062 86.378906 111.539062 " fill-opacity="1" fill-rule="evenodd"/><path fill="#572a0e" d="M 113.207031 65.75 C 112.0625 68.324219 112.476562 71 114.140625 71.757812 C 115.800781 72.484375 118.097656 71 119.226562 68.449219 C 120.355469 65.859375 119.960938 63.152344 118.261719 62.417969 C 116.597656 61.695312 114.339844 63.171875 113.207031 65.75 Z M 113.207031 65.75 " fill-opacity="1" fill-rule="evenodd"/><path fill="#572a0e" d="M 90.765625 55.300781 C 89.667969 57.871094 90.101562 60.5625 91.730469 61.273438 C 93.394531 62.027344 95.6875 60.535156 96.820312 57.988281 C 97.984375 55.40625 97.515625 52.707031 95.855469 51.992188 C 94.191406 51.242188 91.933594 52.734375 90.765625 55.300781 Z M 90.765625 55.300781 " fill-opacity="1" fill-rule="evenodd"/><path fill="#abddc7" d="M 62.691406 69.535156 C 62.691406 69.535156 96.917969 89.804688 111.097656 112.515625 C 115.152344 118.988281 121.6875 129.535156 121.554688 137.421875 C 121.402344 146.71875 112.046875 151.714844 104.230469 155.15625 C 93.59375 159.8125 83.023438 165.21875 71.667969 168.070312 " fill-opacity="1" fill-rule="evenodd"/><path fill="#89cead" d="M 71.667969 169.433594 C 71.054688 169.433594 70.503906 169.015625 70.355469 168.40625 C 70.15625 167.667969 70.621094 166.933594 71.351562 166.75 C 80.230469 164.519531 88.773438 160.636719 97.050781 156.878906 C 99.261719 155.878906 101.472656 154.871094 103.667969 153.914062 C 111.78125 150.347656 120.058594 145.613281 120.191406 137.394531 C 120.324219 129.78125 113.574219 119.019531 109.949219 113.238281 C 96.089844 91.058594 62.34375 70.910156 62.007812 70.710938 C 61.34375 70.324219 61.148438 69.492188 61.511719 68.84375 C 61.910156 68.191406 62.742188 67.992188 63.375 68.359375 C 64.804688 69.195312 98.046875 89.058594 112.242188 111.789062 C 116.285156 118.238281 123.046875 129.015625 122.917969 137.453125 C 122.75 147.191406 113.640625 152.488281 104.765625 156.386719 C 102.570312 157.355469 100.375 158.363281 98.179688 159.351562 C 89.789062 163.167969 81.128906 167.101562 71.984375 169.390625 C 71.886719 169.417969 71.785156 169.433594 71.667969 169.433594 Z M 71.667969 169.433594 " fill-opacity="1" fill-rule="nonzero"/><path fill="#abddc7" d="M 94.457031 93.292969 C 94.457031 93.292969 112.675781 92.730469 129.929688 94.472656 " fill-opacity="1" fill-rule="evenodd"/><path fill="#89cead" d="M 129.929688 95.832031 C 129.898438 95.832031 129.847656 95.832031 129.796875 95.832031 C 112.84375 94.117188 94.691406 94.648438 94.507812 94.648438 C 93.757812 94.515625 93.128906 94.082031 93.097656 93.332031 C 93.097656 92.582031 93.679688 91.953125 94.425781 91.941406 C 94.609375 91.941406 112.925781 91.386719 130.0625 93.117188 C 130.828125 93.199219 131.359375 93.867188 131.296875 94.613281 C 131.226562 95.316406 130.628906 95.832031 129.929688 95.832031 Z M 129.929688 95.832031 " fill-opacity="1" fill-rule="nonzero"/><path fill="#4d230e" d="M 117.8125 12.75 C 116.132812 12.460938 114.472656 12.566406 112.875 13.214844 C 108.386719 15.148438 108.6875 21.820312 110.597656 25.402344 C 112.910156 29.742188 117.746094 31.589844 122.417969 31.984375 C 122.714844 32 123.015625 32.027344 123.332031 32.058594 C 123.332031 32.058594 110.832031 24.15625 117.8125 19.53125 C 117.429688 19.796875 118.792969 23.246094 118.925781 23.59375 C 120.222656 26.527344 123.945312 27.820312 124.777344 30.941406 C 125.640625 34.140625 123.148438 35.882812 120.386719 36.847656 C 120.386719 36.847656 124.144531 38.070312 127.636719 37.15625 C 133.472656 35.636719 139.238281 30.484375 130.261719 20.695312 C 127.523438 17.722656 122.648438 13.609375 117.8125 12.75 Z M 117.8125 12.75 " fill-opacity="1" fill-rule="evenodd"/></svg>