<svg xmlns="http://www.w3.org/2000/svg" xmlns:xlink="http://www.w3.org/1999/xlink" width="256" zoomAndPan="magnify" viewBox="0 0 192 191.999996" height="256" preserveAspectRatio="xMidYMid meet" version="1.0"><defs><clipPath id="00648693e0"><path d="M 93 117 L 158 117 L 158 163.136719 L 93 163.136719 Z M 93 117 " clip-rule="nonzero"/></clipPath><clipPath id="6171395aff"><path d="M 88 93 L 163.136719 93 L 163.136719 125 L 88 125 Z M 88 93 " clip-rule="nonzero"/></clipPath><clipPath id="b08c43a43c"><path d="M 122 130 L 127 130 L 127 163.136719 L 122 163.136719 Z M 122 130 " clip-rule="nonzero"/></clipPath><clipPath id="dfef084e2a"><path d="M 104 130 L 148 130 L 148 163.136719 L 104 163.136719 Z M 104 130 " clip-rule="nonzero"/></clipPath><clipPath id="d971edfaea"><path d="M 28.886719 28.886719 L 103 28.886719 L 103 62 L 28.886719 62 Z M 28.886719 28.886719 " clip-rule="nonzero"/></clipPath></defs><rect x="-19.2" width="230.4" fill="#ffffff" y="-19.2" height="230.399995" fill-opacity="1"/><rect x="-19.2" width="230.4" fill="#ffffff" y="-19.2" height="230.399995" fill-opacity="1"/><path fill="#e8eaf6" d="M 125.894531 106.40625 L 96.011719 119.609375 L 96.011719 160.96875 L 155.773438 160.96875 L 155.773438 119.609375 Z M 125.894531 106.40625 " fill-opacity="1" fill-rule="nonzero"/><path fill="#c5cae9" d="M 96.011719 150.574219 L 155.773438 150.574219 L 155.773438 160.972656 L 96.011719 160.972656 Z M 96.011719 150.574219 " fill-opacity="1" fill-rule="nonzero"/><path fill="#c5cae9" d="M 125.894531 106.40625 L 96.011719 119.609375 L 96.011719 127.402344 L 125.894531 114.203125 L 155.773438 127.402344 L 155.773438 119.609375 Z M 125.894531 106.40625 " fill-opacity="1" fill-rule="nonzero"/><path fill="#ef5350" d="M 125.894531 96.011719 L 90.816406 111.511719 L 90.816406 121.902344 L 125.894531 106.40625 L 160.972656 121.902344 L 160.972656 111.511719 Z M 125.894531 96.011719 " fill-opacity="1" fill-rule="nonzero"/><path fill="#ef5350" d="M 142.785156 96.011719 L 153.175781 96.011719 L 153.175781 109.003906 L 142.785156 109.003906 Z M 142.785156 96.011719 " fill-opacity="1" fill-rule="nonzero"/><path fill="#c37b3f" d="M 106.507812 132.390625 L 124.59375 132.390625 L 124.59375 160.972656 L 106.507812 160.972656 Z M 106.507812 132.390625 " fill-opacity="1" fill-rule="nonzero"/><path fill="#64b5f6" d="M 124.59375 132.390625 L 145.382812 132.390625 L 145.382812 150.578125 L 124.59375 150.578125 Z M 124.59375 132.390625 " fill-opacity="1" fill-rule="nonzero"/><path fill="#a46535" d="M 106.507812 150.574219 L 124.59375 150.574219 L 124.59375 160.972656 L 106.507812 160.972656 Z M 106.507812 150.574219 " fill-opacity="1" fill-rule="nonzero"/><path fill="#e8eaf6" d="M 100.824219 59.429688 L 65.9375 31.050781 L 31.050781 59.429688 L 38.03125 59.429688 L 38.03125 96.011719 L 93.847656 96.011719 L 93.847656 59.429688 Z M 100.824219 59.429688 " fill-opacity="1" fill-rule="nonzero"/><path fill="#c5cae9" d="M 38.03125 86.734375 L 93.847656 86.734375 L 93.847656 96.011719 L 38.03125 96.011719 Z M 38.03125 86.734375 " fill-opacity="1" fill-rule="nonzero"/><path fill="#c37b3f" d="M 57.707031 72.3125 L 74.167969 72.3125 L 74.167969 96.011719 L 57.707031 96.011719 Z M 57.707031 72.3125 " fill-opacity="1" fill-rule="nonzero"/><path fill="#a46535" d="M 57.707031 86.734375 L 74.167969 86.734375 L 74.167969 96.011719 L 57.707031 96.011719 Z M 57.707031 86.734375 " fill-opacity="1" fill-rule="nonzero"/><path fill="#ef5350" d="M 31.050781 59.429688 L 100.824219 59.429688 L 65.9375 31.050781 Z M 31.050781 59.429688 " fill-opacity="1" fill-rule="nonzero"/><g clip-path="url(#00648693e0)"><path fill="#1a237e" d="M 155.773438 163.074219 L 96.011719 163.074219 C 94.847656 163.074219 93.90625 162.132812 93.90625 160.96875 L 93.90625 119.609375 C 93.90625 118.445312 94.847656 117.503906 96.011719 117.503906 C 97.175781 117.503906 98.117188 118.445312 98.117188 119.609375 L 98.117188 158.863281 L 155.773438 158.863281 C 156.9375 158.863281 157.878906 159.804688 157.878906 160.96875 C 157.878906 162.132812 156.9375 163.074219 155.773438 163.074219 Z M 155.773438 163.074219 " fill-opacity="1" fill-rule="nonzero"/></g><path fill="#1a237e" d="M 153.175781 110.175781 C 152.011719 110.175781 151.070312 109.234375 151.070312 108.070312 L 151.070312 98.117188 L 144.886719 98.117188 L 144.886719 103.46875 C 144.886719 104.632812 143.945312 105.574219 142.78125 105.574219 C 141.621094 105.574219 140.679688 104.632812 140.679688 103.46875 L 140.679688 96.011719 C 140.679688 94.847656 141.621094 93.90625 142.78125 93.90625 L 153.175781 93.90625 C 154.339844 93.90625 155.28125 94.847656 155.28125 96.011719 L 155.28125 108.070312 C 155.28125 109.234375 154.339844 110.175781 153.175781 110.175781 Z M 153.175781 110.175781 " fill-opacity="1" fill-rule="nonzero"/><path fill="#1a237e" d="M 155.773438 155.796875 C 154.613281 155.796875 153.667969 154.855469 153.667969 153.691406 L 153.667969 119.609375 C 153.667969 118.445312 154.613281 117.503906 155.773438 117.503906 C 156.9375 117.503906 157.878906 118.445312 157.878906 119.609375 L 157.878906 153.691406 C 157.878906 154.855469 156.9375 155.796875 155.773438 155.796875 Z M 155.773438 155.796875 " fill-opacity="1" fill-rule="nonzero"/><g clip-path="url(#6171395aff)"><path fill="#1a237e" d="M 160.972656 124.007812 C 160.683594 124.007812 160.394531 123.949219 160.121094 123.832031 L 125.894531 108.710938 L 91.664062 123.832031 C 91.015625 124.117188 90.261719 124.054688 89.667969 123.667969 C 89.070312 123.277344 88.710938 122.617188 88.710938 121.902344 L 88.710938 111.507812 C 88.710938 110.675781 89.203125 109.921875 89.964844 109.582031 L 114.703125 98.65625 C 115.761719 98.1875 117.007812 98.667969 117.476562 99.730469 C 117.949219 100.796875 117.464844 102.039062 116.402344 102.507812 L 92.921875 112.882812 L 92.921875 118.671875 L 125.042969 104.480469 C 125.582031 104.242188 126.203125 104.242188 126.742188 104.480469 L 158.867188 118.671875 L 158.867188 112.882812 L 125.042969 97.9375 C 123.980469 97.46875 123.5 96.226562 123.96875 95.160156 C 124.4375 94.097656 125.683594 93.617188 126.742188 94.085938 L 161.824219 109.582031 C 162.585938 109.921875 163.078125 110.675781 163.078125 111.507812 L 163.078125 121.902344 C 163.078125 122.617188 162.71875 123.277344 162.121094 123.667969 C 161.773438 123.894531 161.375 124.007812 160.972656 124.007812 Z M 160.972656 124.007812 " fill-opacity="1" fill-rule="nonzero"/></g><g clip-path="url(#b08c43a43c)"><path fill="#1a237e" d="M 124.542969 163.078125 C 123.378906 163.078125 122.4375 162.136719 122.4375 160.972656 L 122.4375 132.386719 C 122.4375 131.222656 123.378906 130.28125 124.542969 130.28125 C 125.707031 130.28125 126.648438 131.222656 126.648438 132.386719 L 126.648438 160.972656 C 126.648438 162.136719 125.707031 163.078125 124.542969 163.078125 Z M 124.542969 163.078125 " fill-opacity="1" fill-rule="nonzero"/></g><g clip-path="url(#dfef084e2a)"><path fill="#1a237e" d="M 106.457031 163.078125 C 105.292969 163.078125 104.351562 162.136719 104.351562 160.972656 L 104.351562 132.386719 C 104.351562 131.222656 105.292969 130.28125 106.457031 130.28125 L 145.328125 130.28125 C 146.492188 130.28125 147.433594 131.222656 147.433594 132.386719 L 147.433594 150.578125 C 147.433594 151.742188 146.492188 152.683594 145.328125 152.683594 L 124.542969 152.683594 C 123.378906 152.683594 122.4375 151.742188 122.4375 150.578125 C 122.4375 149.414062 123.378906 148.472656 124.542969 148.472656 L 143.226562 148.472656 L 143.226562 134.492188 L 108.5625 134.492188 L 108.5625 160.972656 C 108.5625 162.136719 107.621094 163.078125 106.457031 163.078125 Z M 106.457031 163.078125 " fill-opacity="1" fill-rule="nonzero"/></g><path fill="#1a237e" d="M 93.847656 98.117188 L 38.03125 98.117188 C 36.867188 98.117188 35.925781 97.175781 35.925781 96.011719 L 35.925781 67.140625 C 35.925781 65.976562 36.867188 65.035156 38.03125 65.035156 C 39.191406 65.035156 40.132812 65.976562 40.132812 67.140625 L 40.132812 93.90625 L 91.742188 93.90625 L 91.742188 59.429688 C 91.742188 58.265625 92.683594 57.324219 93.847656 57.324219 C 95.011719 57.324219 95.953125 58.265625 95.953125 59.429688 L 95.953125 96.011719 C 95.953125 97.175781 95.011719 98.117188 93.847656 98.117188 Z M 93.847656 98.117188 " fill-opacity="1" fill-rule="nonzero"/><path fill="#1a237e" d="M 74.171875 98.117188 C 73.007812 98.117188 72.066406 97.175781 72.066406 96.011719 L 72.066406 74.421875 L 59.8125 74.421875 L 59.8125 96.011719 C 59.8125 97.175781 58.871094 98.117188 57.707031 98.117188 C 56.542969 98.117188 55.601562 97.175781 55.601562 96.011719 L 55.601562 72.316406 C 55.601562 71.152344 56.542969 70.210938 57.707031 70.210938 L 74.171875 70.210938 C 75.332031 70.210938 76.273438 71.152344 76.273438 72.316406 L 76.273438 96.011719 C 76.273438 97.175781 75.332031 98.117188 74.171875 98.117188 Z M 74.171875 98.117188 " fill-opacity="1" fill-rule="nonzero"/><g clip-path="url(#d971edfaea)"><path fill="#1a237e" d="M 100.824219 61.535156 L 31.050781 61.535156 C 30.164062 61.535156 29.367188 60.972656 29.070312 60.136719 C 28.769531 59.296875 29.03125 58.359375 29.722656 57.796875 L 64.609375 29.417969 C 65.386719 28.789062 66.492188 28.789062 67.265625 29.417969 L 80.96875 40.566406 C 81.871094 41.300781 82.007812 42.625 81.273438 43.527344 C 80.539062 44.429688 79.214844 44.5625 78.3125 43.832031 L 65.9375 33.765625 L 36.976562 57.324219 L 94.898438 57.324219 L 86.910156 50.828125 C 86.007812 50.09375 85.871094 48.765625 86.605469 47.867188 C 87.339844 46.960938 88.664062 46.828125 89.570312 47.558594 L 102.152344 57.796875 C 102.84375 58.359375 103.105469 59.296875 102.808594 60.136719 C 102.511719 60.972656 101.714844 61.535156 100.824219 61.535156 Z M 100.824219 61.535156 " fill-opacity="1" fill-rule="nonzero"/></g><path fill="#1a237e" d="M 146.535156 88.492188 C 145.375 88.492188 144.429688 87.550781 144.429688 86.386719 L 144.429688 55.113281 C 144.429688 50.96875 141.058594 47.59375 136.914062 47.59375 L 103.230469 47.59375 C 102.066406 47.59375 101.125 46.652344 101.125 45.488281 C 101.125 44.324219 102.066406 43.382812 103.230469 43.382812 L 136.914062 43.382812 C 143.378906 43.382812 148.640625 48.644531 148.640625 55.113281 L 148.640625 86.386719 C 148.640625 87.550781 147.699219 88.492188 146.535156 88.492188 Z M 146.535156 88.492188 " fill-opacity="1" fill-rule="nonzero"/><path fill="#1a237e" d="M 146.535156 88.492188 C 145.996094 88.492188 145.460938 88.289062 145.046875 87.878906 L 135.425781 78.253906 C 134.601562 77.433594 134.601562 76.097656 135.425781 75.273438 C 136.246094 74.453125 137.578125 74.453125 138.402344 75.273438 L 146.535156 83.410156 L 154.671875 75.273438 C 155.492188 74.453125 156.828125 74.453125 157.648438 75.273438 C 158.472656 76.097656 158.472656 77.433594 157.648438 78.253906 L 148.023438 87.878906 C 147.613281 88.289062 147.074219 88.492188 146.535156 88.492188 Z M 146.535156 88.492188 " fill-opacity="1" fill-rule="nonzero"/><path fill="#1a237e" d="M 83.984375 148.640625 L 55.109375 148.640625 C 48.640625 148.640625 43.378906 143.378906 43.378906 136.914062 L 43.378906 108.042969 C 43.378906 106.878906 44.320312 105.9375 45.484375 105.9375 C 46.648438 105.9375 47.589844 106.878906 47.589844 108.042969 L 47.589844 136.914062 C 47.589844 141.058594 50.960938 144.429688 55.109375 144.429688 L 83.984375 144.429688 C 85.144531 144.429688 86.089844 145.371094 86.089844 146.535156 C 86.089844 147.695312 85.144531 148.640625 83.984375 148.640625 Z M 83.984375 148.640625 " fill-opacity="1" fill-rule="nonzero"/><path fill="#1a237e" d="M 55.109375 119.769531 C 54.570312 119.769531 54.03125 119.566406 53.621094 119.15625 L 45.484375 111.019531 L 37.347656 119.15625 C 36.527344 119.976562 35.195312 119.976562 34.371094 119.15625 C 33.550781 118.332031 33.550781 117 34.371094 116.175781 L 43.996094 106.550781 C 44.820312 105.730469 46.152344 105.730469 46.972656 106.550781 L 56.597656 116.175781 C 57.417969 117 57.417969 118.332031 56.597656 119.15625 C 56.183594 119.566406 55.648438 119.769531 55.109375 119.769531 Z M 55.109375 119.769531 " fill-opacity="1" fill-rule="nonzero"/><path fill="#ffffff" d="M 136.457031 137.359375 L 133.519531 137.359375 C 132.355469 137.359375 131.414062 138.300781 131.414062 139.464844 C 131.414062 140.628906 132.355469 141.570312 133.519531 141.570312 L 136.457031 141.570312 C 137.621094 141.570312 138.5625 140.628906 138.5625 139.464844 C 138.5625 138.300781 137.621094 137.359375 136.457031 137.359375 Z M 136.457031 137.359375 " fill-opacity="1" fill-rule="nonzero"/><path fill="#ffffff" d="M 69.992188 41.105469 C 69.082031 40.378906 67.753906 40.527344 67.035156 41.441406 C 66.308594 42.347656 66.457031 43.671875 67.367188 44.398438 L 75.453125 50.839844 C 75.839844 51.148438 76.304688 51.296875 76.765625 51.296875 C 77.382812 51.296875 77.996094 51.027344 78.410156 50.503906 C 79.136719 49.59375 78.988281 48.273438 78.078125 47.546875 Z M 69.992188 41.105469 " fill-opacity="1" fill-rule="nonzero"/><path fill="#ffffff" d="M 46.238281 72.777344 C 45.078125 72.777344 44.136719 73.71875 44.136719 74.882812 L 44.136719 80.554688 C 44.136719 81.71875 45.078125 82.660156 46.238281 82.660156 C 47.402344 82.660156 48.34375 81.71875 48.34375 80.554688 L 48.34375 74.882812 C 48.34375 73.71875 47.402344 72.777344 46.238281 72.777344 Z M 46.238281 72.777344 " fill-opacity="1" fill-rule="nonzero"/><path fill="#ffffff" d="M 128.929688 122.171875 L 120.070312 122.171875 C 118.910156 122.171875 117.964844 123.113281 117.964844 124.277344 C 117.964844 125.441406 118.910156 126.382812 120.070312 126.382812 L 128.929688 126.382812 C 130.09375 126.382812 131.035156 125.441406 131.035156 124.277344 C 131.035156 123.113281 130.09375 122.171875 128.929688 122.171875 Z M 128.929688 122.171875 " fill-opacity="1" fill-rule="nonzero"/></svg>