<svg xmlns="http://www.w3.org/2000/svg" xmlns:xlink="http://www.w3.org/1999/xlink" width="256" zoomAndPan="magnify" viewBox="0 0 192 191.999996" height="256" preserveAspectRatio="xMidYMid meet" version="1.0"><defs><clipPath id="3495c4a1ed"><path d="M 71 43 L 177.535156 43 L 177.535156 149 L 71 149 Z M 71 43 " clip-rule="nonzero"/></clipPath><clipPath id="0295896763"><path d="M 92 33.769531 L 103 33.769531 L 103 158 L 92 158 Z M 92 33.769531 " clip-rule="nonzero"/></clipPath></defs><rect x="-19.2" width="230.4" fill="#ffffff" y="-19.2" height="230.399995" fill-opacity="1"/><rect x="-19.2" width="230.4" fill="#ffffff" y="-19.2" height="230.399995" fill-opacity="1"/><g clip-path="url(#3495c4a1ed)"><path fill="#ffc107" d="M 124.417969 43.550781 C 117.265625 43.550781 110.480469 45.019531 104.269531 47.617188 L 104.167969 52.246094 L 116.882812 52.953125 L 112.558594 60.570312 C 116.292969 59.308594 120.261719 58.59375 124.417969 58.59375 C 145.199219 58.59375 162.09375 75.460938 162.09375 96.207031 C 162.09375 116.957031 145.199219 133.820312 124.417969 133.820312 C 118.605469 133.820312 113.128906 132.472656 108.199219 130.105469 C 103.589844 127.902344 99.5 124.800781 96.160156 121.011719 C 90.316406 114.367188 86.742188 105.714844 86.742188 96.207031 C 86.742188 90.066406 88.253906 84.289062 90.886719 79.171875 L 88.863281 74.347656 L 79.777344 80.34375 L 78.066406 71.246094 C 74.015625 78.679688 71.671875 87.164062 71.671875 96.207031 C 71.671875 109.125 76.367188 120.933594 84.125 130.105469 C 87.566406 134.191406 91.644531 137.714844 96.160156 140.59375 C 104.34375 145.8125 114.011719 148.867188 124.417969 148.867188 C 153.5 148.867188 177.164062 125.242188 177.164062 96.207031 C 177.164062 67.175781 153.5 43.550781 124.417969 43.550781 Z M 124.417969 43.550781 " fill-opacity="1" fill-rule="nonzero"/></g><path fill="#f29e25" d="M 80.386719 105.847656 C 80.386719 95.214844 84.136719 85.5 90.308594 77.792969 L 88.863281 74.347656 L 79.777344 80.34375 L 78.066406 71.246094 C 74.015625 78.679688 71.671875 87.164062 71.671875 96.207031 C 71.671875 109.125 76.367188 120.933594 84.125 130.105469 C 87.566406 134.191406 91.644531 137.714844 96.160156 140.59375 C 97.058594 141.167969 97.96875 141.699219 98.902344 142.226562 C 87.699219 134 80.386719 120.789062 80.386719 105.847656 Z M 80.386719 105.847656 " fill-opacity="1" fill-rule="nonzero"/><path fill="#ffc107" d="M 87.214844 141.109375 L 76.617188 140.640625 L 79.546875 131.914062 C 75.878906 133.121094 71.980469 133.820312 67.90625 133.820312 C 47.125 133.820312 30.230469 116.957031 30.230469 96.207031 C 30.230469 75.460938 47.125 58.59375 67.90625 58.59375 C 73.71875 58.59375 79.191406 59.945312 84.125 62.3125 C 88.730469 64.515625 92.824219 67.613281 96.160156 71.40625 C 102.003906 78.046875 105.582031 86.703125 105.582031 96.207031 C 105.582031 102.933594 103.765625 109.210938 100.648438 114.671875 L 102.882812 119.109375 L 111.53125 112.503906 L 113.949219 121.761719 C 118.195312 114.1875 120.648438 105.492188 120.648438 96.207031 C 120.648438 83.292969 115.957031 71.480469 108.199219 62.3125 C 104.753906 58.226562 100.679688 54.703125 96.160156 51.820312 C 87.976562 46.609375 78.3125 43.550781 67.90625 43.550781 C 38.824219 43.550781 15.160156 67.175781 15.160156 96.207031 C 15.160156 125.242188 38.824219 148.867188 67.90625 148.867188 C 74.226562 148.867188 80.269531 147.722656 85.878906 145.667969 Z M 87.214844 141.109375 " fill-opacity="1" fill-rule="nonzero"/><path fill="#f29e25" d="M 111.941406 86.570312 C 111.941406 97.695312 107.847656 107.824219 101.15625 115.679688 L 102.882812 119.109375 L 111.53125 112.503906 L 113.949219 121.761719 C 118.195312 114.1875 120.648438 105.492188 120.648438 96.207031 C 120.648438 83.292969 115.957031 71.480469 108.214844 62.3125 C 104.753906 58.226562 100.695312 54.703125 96.160156 51.820312 C 95.265625 51.25 94.351562 50.71875 93.421875 50.1875 C 104.636719 58.417969 111.941406 71.628906 111.941406 86.570312 Z M 121.003906 119.1875 L 124.898438 126.53125 C 124.898438 126.53125 129.953125 124.371094 130.382812 120.914062 C 127.496094 120.339844 121.003906 119.1875 121.003906 119.1875 Z M 121.003906 119.1875 " fill-opacity="1" fill-rule="nonzero"/><g clip-path="url(#0295896763)"><path fill="#ffc107" d="M 92.71875 156.078125 L 101.964844 157.984375 C 101.964844 157.984375 103.71875 152.015625 101.003906 149.140625 C 98.414062 151.242188 92.71875 156.078125 92.71875 156.078125 Z M 102.132812 33.625 L 92.761719 34.773438 C 92.761719 34.773438 93.015625 40.988281 96.507812 42.847656 C 98.28125 40.023438 102.132812 33.625 102.132812 33.625 Z M 102.132812 33.625 " fill-opacity="1" fill-rule="nonzero"/></g><path fill="#f29e25" d="M 109.246094 121.242188 L 107.582031 126.558594 L 114.398438 127.550781 Z M 69.097656 76.902344 L 62.882812 71.363281 C 62.882812 71.363281 58.902344 75.144531 59.699219 78.539062 C 62.609375 78.078125 69.097656 76.902344 69.097656 76.902344 Z M 75.476562 70.417969 L 75.1875 64.859375 L 68.449219 66.292969 Z M 75.476562 70.417969 " fill-opacity="1" fill-rule="nonzero"/></svg>