<svg xmlns="http://www.w3.org/2000/svg" xmlns:xlink="http://www.w3.org/1999/xlink" width="256" zoomAndPan="magnify" viewBox="0 0 192 191.999996" height="256" preserveAspectRatio="xMidYMid meet" version="1.0"><defs><clipPath id="f01c8ac3fe"><path d="M 21.257812 75 L 60 75 L 60 120 L 21.257812 120 Z M 21.257812 75 " clip-rule="nonzero"/></clipPath><clipPath id="9daec6791f"><path d="M 21.257812 100 L 43 100 L 43 120 L 21.257812 120 Z M 21.257812 100 " clip-rule="nonzero"/></clipPath><clipPath id="249c1489cf"><path d="M 131 75 L 170.507812 75 L 170.507812 120 L 131 120 Z M 131 75 " clip-rule="nonzero"/></clipPath><clipPath id="1228b25419"><path d="M 149 100 L 170.507812 100 L 170.507812 120 L 149 120 Z M 149 100 " clip-rule="nonzero"/></clipPath><clipPath id="9d7cd29858"><path d="M 48 29.664062 L 143 29.664062 L 143 66 L 48 66 Z M 48 29.664062 " clip-rule="nonzero"/></clipPath><clipPath id="83693a87e3"><path d="M 129 29.664062 L 143 29.664062 L 143 66 L 129 66 Z M 129 29.664062 " clip-rule="nonzero"/></clipPath></defs><rect x="-19.2" width="230.4" fill="#ffffff" y="-19.2" height="230.399995" fill-opacity="1"/><rect x="-19.2" width="230.4" fill="#ffffff" y="-19.2" height="230.399995" fill-opacity="1"/><path fill="#fed2a4" d="M 141.105469 126.773438 L 90.191406 91.046875 C 88.488281 89.847656 86.457031 89.207031 84.375 89.207031 L 77.417969 89.207031 C 75.941406 89.207031 74.488281 89.527344 73.148438 90.148438 L 66.730469 93.128906 L 59.144531 87.808594 L 42.597656 93.773438 L 38.742188 117.007812 L 100.371094 160.257812 C 103.238281 162.269531 107.195312 161.570312 109.203125 158.695312 C 111.210938 155.820312 110.515625 151.859375 107.644531 149.84375 L 111.3125 152.417969 C 114.128906 154.394531 118.0625 153.882812 120.132812 151.132812 C 122.308594 148.246094 121.644531 144.152344 118.710938 142.09375 L 122.519531 144.765625 C 125.300781 146.714844 129.121094 146.125 131.1875 143.429688 C 133.386719 140.554688 132.75 136.425781 129.792969 134.351562 L 129.476562 134.132812 L 133.703125 137.097656 C 136.523438 139.074219 140.453125 138.5625 142.523438 135.8125 C 144.699219 132.921875 144.035156 128.828125 141.105469 126.773438 Z M 141.105469 126.773438 " fill-opacity="1" fill-rule="nonzero"/><path fill="#ffbd86" d="M 90.191406 91.046875 C 89.976562 90.894531 89.753906 90.75 89.53125 90.617188 L 82.308594 95.683594 C 79.449219 97.691406 77.636719 100.839844 77.332031 104.324219 C 77.027344 107.808594 78.269531 111.226562 80.738281 113.699219 C 82.960938 115.929688 85.921875 117.15625 89.066406 117.15625 C 91.496094 117.15625 93.832031 116.417969 95.820312 115.023438 L 112.316406 103.449219 L 94.292969 93.921875 Z M 90.191406 91.046875 " fill-opacity="1" fill-rule="nonzero"/><path fill="#ea9b58" d="M 149.167969 96.640625 L 132.621094 87.804688 L 125.03125 93.128906 L 118.613281 90.144531 C 117.277344 89.523438 115.820312 89.203125 114.347656 89.203125 L 104.21875 89.203125 C 102.136719 89.203125 100.105469 89.847656 98.398438 91.042969 L 85.425781 100.148438 C 82.195312 102.414062 81.792969 107.054688 84.582031 109.847656 C 86.757812 112.03125 90.183594 112.328125 92.703125 110.558594 L 103.898438 102.703125 C 104.769531 102.09375 105.933594 102.09375 106.808594 102.703125 L 116.980469 109.84375 L 117.105469 109.929688 L 118.808594 110.929688 L 124.25 113.355469 L 124.507812 115.125 L 133.453125 121.402344 L 139.765625 122.335938 L 140.105469 126.070312 L 153.023438 117.003906 Z M 149.167969 96.640625 " fill-opacity="1" fill-rule="nonzero"/><path fill="#d88a55" d="M 116.980469 109.84375 L 124.507812 115.125 C 125.6875 114.828125 126.835938 114.367188 127.914062 113.730469 L 130.417969 112.25 C 131.484375 111.621094 131.835938 110.242188 131.207031 109.171875 C 130.578125 108.105469 129.207031 107.75 128.140625 108.378906 L 125.636719 109.859375 C 122.957031 111.441406 119.625 111.417969 116.980469 109.84375 Z M 116.980469 109.84375 " fill-opacity="1" fill-rule="nonzero"/><path fill="#d88a55" d="M 152.457031 108.066406 L 133.453125 121.402344 L 140.105469 126.070312 L 153.023438 117.003906 Z M 152.457031 108.066406 " fill-opacity="1" fill-rule="nonzero"/><path fill="#ea9b58" d="M 62.761719 122.847656 L 62.761719 122.851562 C 66.367188 125.378906 66.367188 130.730469 62.761719 133.261719 L 62.335938 134.050781 L 61.523438 134.128906 L 57.171875 137.183594 C 54.300781 139.199219 50.347656 138.5 48.339844 135.625 L 48.335938 135.621094 C 46.328125 132.746094 47.027344 128.785156 49.894531 126.773438 L 55.484375 122.847656 C 57.667969 121.316406 60.578125 121.316406 62.761719 122.847656 Z M 62.761719 122.847656 " fill-opacity="1" fill-rule="nonzero"/><path fill="#ea9b58" d="M 73.816406 141.019531 L 73.277344 141.898438 L 72.285156 142.09375 L 68.796875 144.542969 C 65.929688 146.554688 61.976562 145.855469 59.964844 142.984375 L 59.964844 142.980469 C 57.957031 140.105469 58.652344 136.144531 61.523438 134.128906 L 66.542969 130.605469 C 68.726562 129.074219 71.632812 129.074219 73.816406 130.605469 C 77.421875 133.136719 77.421875 138.488281 73.816406 141.019531 Z M 73.816406 141.019531 " fill-opacity="1" fill-rule="nonzero"/><path fill="#ea9b58" d="M 84.875 148.777344 L 84.601562 149.855469 L 83.355469 149.84375 L 79.5625 152.507812 C 76.691406 154.519531 72.738281 153.820312 70.730469 150.945312 C 68.71875 148.070312 69.417969 144.105469 72.285156 142.09375 L 77.597656 138.363281 C 79.78125 136.832031 82.6875 136.832031 84.871094 138.363281 L 84.875 138.367188 C 88.480469 140.898438 88.480469 146.246094 84.875 148.777344 Z M 84.875 148.777344 " fill-opacity="1" fill-rule="nonzero"/><path fill="#ea9b58" d="M 95.929688 156.535156 L 90.628906 160.253906 C 87.757812 162.269531 83.804688 161.570312 81.796875 158.695312 C 79.789062 155.820312 80.484375 151.859375 83.355469 149.84375 L 88.65625 146.125 C 90.839844 144.59375 93.746094 144.589844 95.929688 146.125 C 99.535156 148.652344 99.535156 154.003906 95.929688 156.535156 Z M 95.929688 156.535156 " fill-opacity="1" fill-rule="nonzero"/><g clip-path="url(#f01c8ac3fe)"><path fill="#fd8087" d="M 58.851562 83.789062 L 47.019531 75.488281 C 45.871094 74.679688 44.289062 74.960938 43.488281 76.109375 L 22.066406 106.765625 C 21.261719 107.917969 21.539062 109.503906 22.6875 110.308594 L 34.523438 118.613281 C 35.671875 119.417969 37.253906 119.136719 38.058594 117.988281 L 38.742188 117.007812 L 40.589844 112.894531 L 42.597656 111.492188 L 59.476562 87.328125 C 60.28125 86.179688 60 84.59375 58.851562 83.789062 Z M 58.851562 83.789062 " fill-opacity="1" fill-rule="nonzero"/></g><g clip-path="url(#9daec6791f)"><path fill="#fe646f" d="M 22.066406 106.765625 L 26.691406 100.148438 C 26.503906 101.125 26.886719 102.167969 27.753906 102.777344 L 39.910156 111.308594 C 40.730469 111.882812 41.765625 111.917969 42.597656 111.492188 L 38.058594 117.988281 C 37.253906 119.136719 35.671875 119.417969 34.523438 118.613281 L 22.6875 110.308594 C 21.539062 109.503906 21.261719 107.917969 22.066406 106.765625 Z M 22.066406 106.765625 " fill-opacity="1" fill-rule="nonzero"/></g><g clip-path="url(#249c1489cf)"><path fill="#60b7ff" d="M 169.699219 106.765625 L 148.277344 76.109375 C 147.476562 74.960938 145.894531 74.679688 144.746094 75.488281 L 132.910156 83.789062 C 131.765625 84.59375 131.484375 86.179688 132.289062 87.328125 L 149.167969 111.492188 L 149.667969 111.929688 L 153.023438 114.820312 L 153.023438 117.003906 L 153.707031 117.988281 C 154.511719 119.136719 156.09375 119.417969 157.238281 118.613281 L 169.078125 110.308594 C 170.226562 109.503906 170.503906 107.917969 169.699219 106.765625 Z M 169.699219 106.765625 " fill-opacity="1" fill-rule="nonzero"/></g><g clip-path="url(#1228b25419)"><path fill="#26a6fe" d="M 169.699219 106.765625 L 165.074219 100.148438 C 165.261719 101.125 164.878906 102.167969 164.011719 102.777344 L 151.851562 111.308594 C 151.035156 111.882812 150 111.917969 149.167969 111.492188 L 153.707031 117.988281 C 154.511719 119.136719 156.09375 119.417969 157.242188 118.613281 L 169.078125 110.308594 C 170.226562 109.503906 170.503906 107.917969 169.699219 106.765625 Z M 169.699219 106.765625 " fill-opacity="1" fill-rule="nonzero"/></g><g clip-path="url(#9d7cd29858)"><path fill="#ffe177" d="M 136.8125 65.480469 L 54.953125 65.480469 C 51.617188 65.480469 48.914062 62.773438 48.914062 59.429688 L 48.914062 35.828125 C 48.914062 32.484375 51.617188 29.773438 54.953125 29.773438 L 136.8125 29.773438 C 140.148438 29.773438 142.851562 32.484375 142.851562 35.828125 L 142.851562 59.429688 C 142.851562 62.773438 140.148438 65.480469 136.8125 65.480469 Z M 136.8125 65.480469 " fill-opacity="1" fill-rule="nonzero"/></g><g clip-path="url(#83693a87e3)"><path fill="#ffd15b" d="M 136.8125 29.773438 L 129.410156 29.773438 C 132.746094 29.773438 135.449219 32.484375 135.449219 35.828125 L 135.449219 59.429688 C 135.449219 62.773438 132.746094 65.480469 129.410156 65.480469 L 136.8125 65.480469 C 140.148438 65.480469 142.851562 62.773438 142.851562 59.429688 L 142.851562 35.828125 C 142.851562 32.484375 140.148438 29.773438 136.8125 29.773438 Z M 136.8125 29.773438 " fill-opacity="1" fill-rule="nonzero"/></g><path fill="#ffbd86" d="M 124.484375 125.144531 C 123.472656 124.429688 122.074219 124.679688 121.363281 125.695312 C 120.65625 126.710938 120.902344 128.113281 121.914062 128.824219 L 133.734375 137.113281 C 136.082031 138.746094 139.195312 138.648438 141.359375 136.980469 Z M 124.484375 125.144531 " fill-opacity="1" fill-rule="nonzero"/><path fill="#ffbd86" d="M 130.050781 144.566406 L 115.367188 134.257812 C 114.351562 133.546875 112.953125 133.792969 112.246094 134.808594 C 111.535156 135.824219 111.78125 137.226562 112.792969 137.9375 L 122.519531 144.765625 C 124.847656 146.398438 127.90625 146.242188 130.050781 144.566406 Z M 130.050781 144.566406 " fill-opacity="1" fill-rule="nonzero"/><path fill="#918291" d="M 78.957031 37.277344 C 77.753906 37.277344 76.78125 38.253906 76.78125 39.457031 L 76.78125 55.800781 C 76.78125 57.003906 77.753906 57.980469 78.957031 57.980469 C 80.15625 57.980469 81.132812 57.003906 81.132812 55.800781 L 81.132812 39.457031 C 81.132812 38.253906 80.15625 37.277344 78.957031 37.277344 Z M 78.957031 37.277344 " fill-opacity="1" fill-rule="nonzero"/><path fill="#918291" d="M 69.859375 37.277344 C 68.65625 37.277344 67.683594 38.253906 67.683594 39.457031 L 67.683594 45.167969 L 60.75 45.167969 L 60.75 39.457031 C 60.75 38.253906 59.777344 37.277344 58.574219 37.277344 C 57.375 37.277344 56.398438 38.253906 56.398438 39.457031 L 56.398438 55.800781 C 56.398438 57.003906 57.375 57.980469 58.574219 57.980469 C 59.777344 57.980469 60.75 57.003906 60.75 55.800781 L 60.75 49.527344 L 67.683594 49.527344 L 67.683594 55.796875 C 67.683594 57.003906 68.65625 57.980469 69.859375 57.980469 C 71.0625 57.980469 72.035156 57.003906 72.035156 55.796875 L 72.035156 39.457031 C 72.035156 38.253906 71.0625 37.277344 69.859375 37.277344 Z M 69.859375 37.277344 " fill-opacity="1" fill-rule="nonzero"/><path fill="#918291" d="M 112.90625 41.640625 C 114.105469 41.640625 115.082031 40.664062 115.082031 39.457031 C 115.082031 38.253906 114.105469 37.277344 112.90625 37.277344 L 106.035156 37.277344 C 104.832031 37.277344 103.859375 38.253906 103.859375 39.457031 L 103.859375 55.800781 C 103.859375 57.003906 104.832031 57.980469 106.035156 57.980469 L 112.90625 57.980469 C 114.105469 57.980469 115.082031 57.003906 115.082031 55.800781 C 115.082031 54.59375 114.105469 53.617188 112.90625 53.617188 L 108.210938 53.617188 L 108.210938 49.808594 L 112.398438 49.808594 C 113.601562 49.808594 114.574219 48.832031 114.574219 47.628906 C 114.574219 46.425781 113.601562 45.449219 112.398438 45.449219 L 108.210938 45.449219 L 108.210938 41.640625 Z M 112.90625 41.640625 " fill-opacity="1" fill-rule="nonzero"/><path fill="#918291" d="M 126.605469 37.277344 L 121.988281 37.277344 C 121.410156 37.277344 120.855469 37.507812 120.445312 37.917969 C 120.039062 38.328125 119.808594 38.882812 119.8125 39.464844 L 119.84375 55.804688 C 119.84375 56.382812 120.074219 56.9375 120.484375 57.34375 C 120.894531 57.75 121.445312 57.980469 122.019531 57.980469 L 122.027344 57.980469 C 122.167969 57.980469 125.460938 57.964844 126.777344 57.945312 C 131.753906 57.855469 135.363281 53.519531 135.363281 47.628906 C 135.363281 41.4375 131.84375 37.277344 126.605469 37.277344 Z M 126.703125 53.582031 C 126.121094 53.59375 125.121094 53.601562 124.191406 53.605469 L 124.167969 41.640625 L 126.605469 41.640625 C 130.695312 41.640625 131.011719 46.222656 131.011719 47.628906 C 131.011719 51.6875 128.847656 53.542969 126.703125 53.582031 Z M 126.703125 53.582031 " fill-opacity="1" fill-rule="nonzero"/><path fill="#918291" d="M 99.058594 43.707031 C 99.058594 40.160156 96.074219 37.277344 92.402344 37.277344 L 88.070312 37.277344 C 86.871094 37.277344 85.894531 38.253906 85.894531 39.457031 L 85.890625 55.800781 C 85.890625 57.003906 86.863281 57.980469 88.066406 57.980469 C 89.265625 57.980469 90.242188 57.003906 90.242188 55.800781 L 90.242188 51.539062 L 95.246094 57.238281 C 95.675781 57.730469 96.277344 57.980469 96.882812 57.980469 C 97.390625 57.980469 97.90625 57.800781 98.320312 57.4375 C 99.21875 56.640625 99.308594 55.261719 98.515625 54.359375 L 94.511719 49.800781 C 97.148438 48.945312 99.058594 46.539062 99.058594 43.707031 Z M 92.402344 45.769531 C 91.898438 45.769531 91.054688 45.773438 90.242188 45.777344 L 90.246094 41.640625 L 92.402344 41.640625 C 93.652344 41.640625 94.707031 42.585938 94.707031 43.707031 C 94.707031 44.824219 93.652344 45.769531 92.402344 45.769531 Z M 92.402344 45.769531 " fill-opacity="1" fill-rule="nonzero"/><path fill="#ffbd86" d="M 109.3125 145.527344 C 108.300781 144.816406 106.902344 145.0625 106.191406 146.078125 C 105.480469 147.09375 105.726562 148.496094 106.742188 149.207031 L 111.328125 152.425781 C 113.679688 154.066406 116.796875 153.972656 118.96875 152.300781 Z M 109.3125 145.527344 " fill-opacity="1" fill-rule="nonzero"/></svg>