<svg xmlns="http://www.w3.org/2000/svg" xmlns:xlink="http://www.w3.org/1999/xlink" width="256" zoomAndPan="magnify" viewBox="0 0 192 191.999996" height="256" preserveAspectRatio="xMidYMid meet" version="1.0"><defs><clipPath id="d2ad41fc40"><path d="M 6.398438 40 L 185.648438 40 L 185.648438 151.710938 L 6.398438 151.710938 Z M 6.398438 40 " clip-rule="nonzero"/></clipPath><clipPath id="b635fbc09d"><path d="M 6.398438 49 L 162 49 L 162 151.710938 L 6.398438 151.710938 Z M 6.398438 49 " clip-rule="nonzero"/></clipPath><clipPath id="2339ec005e"><path d="M 43 39.960938 L 169 39.960938 L 169 66 L 43 66 Z M 43 39.960938 " clip-rule="nonzero"/></clipPath><clipPath id="3a10703288"><path d="M 141 53 L 185.648438 53 L 185.648438 134 L 141 134 Z M 141 53 " clip-rule="nonzero"/></clipPath><clipPath id="e0db2838d1"><path d="M 132 123 L 185.648438 123 L 185.648438 151.710938 L 132 151.710938 Z M 132 123 " clip-rule="nonzero"/></clipPath></defs><g clip-path="url(#d2ad41fc40)"><path fill="#0185b8" d="M 185.242188 133.75 C 185.242188 133.75 185.28125 133.75 185.28125 133.75 C 185.28125 133.75 185.28125 133.710938 185.28125 133.710938 L 185.242188 133.710938 L 185.28125 133.710938 L 185.242188 133.597656 L 185.203125 133.519531 C 185.203125 133.519531 185.203125 133.480469 185.203125 133.480469 L 185.203125 133.40625 L 185.164062 133.328125 L 180.035156 115.871094 L 176.058594 102.332031 L 172.316406 89.527344 L 167.535156 73.03125 L 167.535156 72.992188 L 167.1875 71.875 L 166.839844 70.722656 L 166.722656 70.339844 L 166.648438 70.03125 L 166.609375 69.914062 L 165.257812 65.261719 L 165.21875 65.261719 C 165.683594 64.800781 166.105469 64.261719 166.492188 63.648438 C 167.109375 62.6875 167.609375 61.570312 167.957031 60.339844 C 168.382812 58.996094 168.535156 57.496094 168.460938 55.996094 C 168.382812 54.609375 168.113281 53.265625 167.609375 51.996094 C 167.378906 51.34375 167.070312 50.6875 166.683594 50.074219 C 166.300781 49.417969 165.835938 48.804688 165.488281 48.34375 C 164.679688 47.34375 163.675781 46.417969 162.480469 45.652344 C 161.4375 44.957031 160.242188 44.421875 158.929688 44.035156 C 157.773438 43.6875 156.539062 43.535156 155.265625 43.535156 C 155.109375 43.535156 154.996094 43.535156 154.878906 43.535156 C 152.371094 43.613281 149.824219 44.457031 147.703125 45.957031 C 147.394531 45.6875 147.007812 45.382812 146.585938 45.113281 C 145.582031 44.421875 144.347656 43.882812 143.035156 43.496094 C 141.878906 43.152344 140.644531 42.996094 139.371094 42.996094 C 139.214844 42.996094 139.101562 42.996094 138.984375 42.996094 C 136.632812 43.074219 134.316406 43.804688 132.234375 45.113281 C 131.847656 44.765625 131.382812 44.421875 130.882812 44.074219 C 129.839844 43.382812 128.644531 42.84375 127.332031 42.457031 C 126.175781 42.113281 124.941406 41.957031 123.667969 41.957031 C 123.550781 41.957031 123.398438 41.957031 123.28125 41.957031 C 120.773438 42.035156 118.226562 42.882812 116.105469 44.382812 C 115.796875 44.113281 115.410156 43.84375 114.988281 43.535156 C 113.945312 42.84375 112.75 42.304688 111.4375 41.921875 C 110.28125 41.574219 109.046875 41.421875 107.773438 41.421875 C 107.65625 41.421875 107.503906 41.421875 107.386719 41.421875 C 104.761719 41.496094 102.140625 42.421875 99.941406 44.035156 C 99.710938 43.84375 99.4375 43.613281 99.054688 43.382812 C 98.011719 42.691406 96.816406 42.152344 95.503906 41.765625 C 94.347656 41.421875 93.113281 41.265625 91.839844 41.265625 C 91.722656 41.265625 91.570312 41.265625 91.453125 41.265625 C 88.945312 41.34375 86.398438 42.191406 84.277344 43.6875 C 84.007812 43.421875 83.621094 43.152344 83.160156 42.84375 C 82.117188 42.152344 80.921875 41.613281 79.609375 41.226562 C 78.453125 40.882812 77.21875 40.726562 75.945312 40.726562 C 75.828125 40.726562 75.671875 40.726562 75.558594 40.726562 C 73.050781 40.804688 70.464844 41.652344 68.34375 43.191406 C 68.035156 42.921875 67.648438 42.652344 67.226562 42.34375 C 66.183594 41.652344 64.988281 41.113281 63.675781 40.726562 C 62.519531 40.382812 61.285156 40.226562 60.011719 40.226562 C 59.855469 40.226562 59.738281 40.226562 59.625 40.226562 C 56.035156 40.34375 52.601562 41.957031 50.171875 44.652344 C 48.746094 46.265625 47.703125 48.265625 47.203125 50.417969 C 47.085938 51.074219 46.96875 51.726562 46.894531 52.339844 C 46.96875 51.726562 47.046875 51.074219 47.203125 50.417969 L 40.449219 50.265625 L 38.289062 50.226562 C 38.019531 50.804688 37.75 51.378906 37.480469 51.957031 C 37.519531 51.996094 37.554688 51.996094 37.59375 51.996094 L 36.902344 53.226562 L 34.085938 61.457031 L 31.304688 69.609375 L 29.105469 75.953125 L 24.632812 89.027344 L 23.976562 90.949219 L 23.320312 92.875 L 23.242188 93.179688 L 20.890625 100.0625 L 20.851562 100.21875 L 17.917969 108.792969 L 14.988281 117.332031 C 12.402344 124.90625 9.777344 132.480469 7.195312 140.058594 L 7.15625 140.171875 C 7.15625 140.210938 7.15625 140.210938 7.117188 140.25 C 7.078125 140.402344 7.039062 140.597656 6.960938 140.75 L 6.921875 140.863281 C 6.886719 140.980469 6.847656 141.132812 6.808594 141.25 C 6.769531 141.441406 6.691406 141.632812 6.613281 141.828125 C 6.730469 141.902344 6.808594 141.902344 7 141.941406 L 18.074219 142.824219 L 28.257812 143.632812 L 28.296875 143.632812 L 32.847656 143.980469 L 37.324219 144.324219 L 44.386719 144.863281 L 50.328125 145.324219 L 75.171875 147.285156 L 100.328125 149.285156 L 108.777344 149.941406 L 117.226562 150.59375 L 122.164062 150.980469 L 127.101562 151.363281 L 129.222656 151.515625 L 130.960938 151.671875 C 130.960938 151.671875 131 151.671875 131 151.671875 C 131.460938 151.710938 132.039062 151.710938 132.617188 151.710938 L 132.773438 151.324219 C 132.773438 151.285156 132.773438 151.285156 132.8125 151.246094 C 133.3125 151.09375 133.777344 150.941406 134.238281 150.785156 L 134.316406 150.746094 L 134.355469 150.746094 L 136.398438 150.054688 L 140.101562 148.824219 L 145.042969 147.171875 L 146.660156 146.632812 L 148.28125 146.09375 L 153.027344 144.519531 L 167.496094 139.710938 L 167.917969 139.558594 L 168.5 139.363281 C 174.09375 137.480469 179.6875 135.636719 185.242188 133.75 Z M 150.945312 46.34375 C 151.871094 45.996094 152.796875 45.726562 153.761719 45.574219 C 154.222656 45.496094 154.765625 45.496094 155.304688 45.496094 C 155.804688 45.496094 156.34375 45.535156 156.847656 45.574219 C 157.8125 45.726562 158.777344 45.996094 159.664062 46.34375 C 160.550781 46.726562 161.398438 47.226562 162.171875 47.804688 C 162.902344 48.382812 163.597656 49.074219 164.175781 49.804688 C 164.757812 50.574219 165.257812 51.457031 165.683594 52.339844 C 166.027344 53.265625 166.300781 54.226562 166.453125 55.1875 C 166.570312 56.1875 166.570312 57.1875 166.453125 58.148438 C 166.300781 59.148438 166.027344 60.109375 165.683594 60.992188 C 165.375 61.6875 165.027344 62.300781 164.601562 62.917969 L 162.789062 56.648438 L 162.285156 54.957031 L 161.941406 53.6875 C 161.941406 53.648438 161.941406 53.609375 161.941406 53.574219 C 161.941406 53.109375 161.554688 52.6875 161.050781 52.6875 L 152.101562 52.496094 L 152.101562 52.648438 L 151.910156 52.648438 L 151.019531 52.609375 L 150.558594 52.574219 L 150.058594 52.574219 L 151.019531 52.648438 L 151.910156 52.6875 L 152.101562 52.6875 L 152.101562 52.535156 C 152.023438 52.1875 151.910156 51.84375 151.753906 51.417969 C 151.523438 50.765625 151.214844 50.148438 150.828125 49.496094 C 150.441406 48.84375 150.019531 48.265625 149.632812 47.765625 C 149.476562 47.574219 149.324219 47.417969 149.167969 47.226562 C 149.785156 46.882812 150.402344 46.574219 150.945312 46.34375 Z M 165.140625 65.300781 L 165.140625 65.261719 Z M 141.414062 69.492188 C 141.414062 69.53125 141.375 69.609375 141.335938 69.683594 C 141.335938 69.644531 141.335938 69.644531 141.375 69.609375 C 141.375 69.570312 141.375 69.53125 141.414062 69.492188 Z M 141.453125 69.378906 C 141.453125 69.339844 141.492188 69.300781 141.492188 69.261719 C 141.492188 69.261719 141.492188 69.261719 141.492188 69.222656 C 141.492188 69.222656 141.492188 69.183594 141.492188 69.183594 C 141.492188 69.183594 141.492188 69.222656 141.492188 69.222656 C 141.453125 69.300781 141.453125 69.378906 141.453125 69.378906 C 141.414062 69.414062 141.453125 69.414062 141.453125 69.378906 Z M 37.015625 80.722656 C 37.054688 80.722656 37.054688 80.722656 37.015625 80.722656 C 37.054688 80.722656 37.054688 80.722656 37.015625 80.722656 Z M 67.726562 59.996094 C 67.765625 59.957031 67.765625 59.917969 67.804688 59.878906 C 68.226562 59.300781 68.460938 58.648438 68.574219 57.996094 C 68.691406 57.265625 68.652344 56.535156 68.421875 55.839844 C 68.652344 56.535156 68.691406 57.265625 68.574219 57.996094 C 68.460938 58.6875 68.1875 59.300781 67.804688 59.878906 C 67.765625 59.917969 67.726562 59.957031 67.726562 59.996094 C 66.839844 61.1875 65.449219 61.878906 63.984375 61.878906 C 63.714844 61.878906 63.445312 61.839844 63.210938 61.800781 C 62.246094 61.648438 61.398438 61.1875 60.742188 60.53125 C 61.4375 61.1875 62.285156 61.648438 63.210938 61.800781 C 63.480469 61.839844 63.714844 61.878906 63.984375 61.878906 C 65.449219 61.878906 66.839844 61.1875 67.726562 59.996094 Z M 80.535156 53.148438 L 80.574219 53.035156 L 80.574219 52.917969 C 80.652344 52.304688 80.804688 51.6875 80.996094 51.074219 C 80.804688 51.648438 80.6875 52.265625 80.574219 52.917969 L 80.574219 53.035156 Z M 84.507812 58.53125 C 84.625 57.765625 84.585938 56.917969 84.277344 56.1875 C 84.585938 56.917969 84.625 57.726562 84.507812 58.53125 C 84.121094 60.761719 82.195312 62.378906 79.917969 62.378906 C 79.648438 62.378906 79.378906 62.339844 79.144531 62.300781 C 78.566406 62.1875 78.027344 61.992188 77.5625 61.726562 C 77.023438 61.378906 76.523438 60.957031 76.136719 60.417969 C 76.523438 60.957031 76.984375 61.378906 77.5625 61.726562 C 78.066406 62.03125 78.566406 62.226562 79.144531 62.300781 C 79.417969 62.339844 79.648438 62.378906 79.917969 62.378906 C 82.195312 62.378906 84.121094 60.761719 84.507812 58.53125 Z M 100.480469 58.6875 C 100.597656 57.957031 100.558594 57.265625 100.328125 56.570312 C 100.558594 57.265625 100.597656 57.996094 100.480469 58.6875 C 100.09375 60.917969 98.167969 62.53125 95.890625 62.53125 C 95.621094 62.53125 95.351562 62.492188 95.117188 62.457031 C 94.769531 62.417969 94.460938 62.300781 94.117188 62.1875 C 93.535156 61.957031 93.035156 61.609375 92.570312 61.1875 C 93.035156 61.609375 93.535156 61.957031 94.117188 62.1875 C 94.425781 62.300781 94.769531 62.417969 95.117188 62.457031 C 95.386719 62.492188 95.621094 62.53125 95.890625 62.53125 C 98.167969 62.570312 100.09375 60.917969 100.480469 58.6875 Z M 94.578125 53.535156 C 94.617188 53.1875 94.65625 52.804688 94.734375 52.457031 C 94.65625 52.804688 94.578125 53.148438 94.578125 53.535156 Z M 112.441406 53.878906 L 112.480469 53.726562 L 112.480469 53.609375 C 112.59375 52.957031 112.710938 52.339844 112.902344 51.726562 C 112.710938 52.339844 112.558594 52.957031 112.480469 53.609375 L 112.480469 53.726562 Z M 116.414062 59.226562 C 116.570312 58.417969 116.492188 57.609375 116.183594 56.878906 C 116.453125 57.648438 116.53125 58.457031 116.414062 59.226562 C 116.027344 61.457031 114.101562 63.070312 111.824219 63.070312 C 111.554688 63.070312 111.285156 63.03125 111.050781 62.992188 C 110.667969 62.917969 110.320312 62.839844 109.972656 62.6875 C 109.199219 62.339844 108.503906 61.800781 108.042969 61.109375 C 108.542969 61.800781 109.199219 62.339844 109.972656 62.6875 C 110.320312 62.839844 110.667969 62.917969 111.050781 62.992188 C 111.320312 63.03125 111.554688 63.070312 111.824219 63.070312 C 114.101562 63.109375 116.027344 61.492188 116.414062 59.226562 Z M 110.472656 54.070312 C 110.511719 53.6875 110.550781 53.265625 110.628906 52.878906 C 110.589844 53.265625 110.511719 53.648438 110.472656 54.070312 Z M 110.628906 52.839844 C 110.703125 52.457031 110.78125 52.109375 110.859375 51.765625 C 110.78125 52.109375 110.703125 52.496094 110.628906 52.839844 Z M 120.621094 52.109375 C 120.425781 52.109375 120.273438 52.109375 120.117188 52.074219 C 120.042969 52.074219 120.003906 52.074219 119.964844 52.074219 C 119.808594 52.074219 119.695312 52.035156 119.539062 52.035156 C 119.347656 52.035156 119.152344 51.996094 118.960938 51.996094 L 118.84375 51.996094 L 118.652344 51.957031 L 118.84375 51.996094 L 118.960938 51.996094 C 119.152344 51.996094 119.347656 51.996094 119.539062 52.035156 C 119.695312 52.035156 119.808594 52.074219 119.964844 52.074219 C 120.003906 52.074219 120.042969 52.074219 120.117188 52.074219 C 120.273438 52.074219 120.425781 52.074219 120.621094 52.109375 Z M 128.335938 54.957031 L 128.144531 54.917969 L 128.183594 54.765625 L 128.183594 54.648438 C 128.296875 53.765625 128.527344 52.878906 128.875 52.035156 C 128.566406 52.878906 128.335938 53.765625 128.183594 54.648438 L 128.183594 54.765625 L 128.144531 54.917969 Z M 132.15625 60.261719 C 132.308594 59.457031 132.234375 58.648438 131.925781 57.917969 C 132.195312 58.6875 132.269531 59.496094 132.15625 60.261719 C 131.769531 62.492188 129.839844 64.109375 127.566406 64.109375 C 127.292969 64.109375 127.023438 64.070312 126.792969 64.03125 C 126.214844 63.917969 125.675781 63.722656 125.210938 63.457031 C 124.671875 63.109375 124.167969 62.6875 123.785156 62.148438 C 124.167969 62.6875 124.632812 63.109375 125.210938 63.457031 C 125.710938 63.761719 126.214844 63.957031 126.792969 64.03125 C 127.0625 64.070312 127.292969 64.109375 127.566406 64.109375 C 129.839844 64.148438 131.769531 62.53125 132.15625 60.261719 Z M 148.050781 60.839844 C 148.203125 60.03125 148.128906 59.226562 147.820312 58.496094 C 148.128906 59.226562 148.203125 60.03125 148.050781 60.839844 C 147.664062 63.070312 145.734375 64.6875 143.460938 64.6875 C 143.191406 64.6875 142.917969 64.648438 142.6875 64.609375 C 142.339844 64.570312 142.03125 64.453125 141.683594 64.339844 C 141.992188 64.453125 142.339844 64.570312 142.6875 64.609375 C 142.957031 64.648438 143.191406 64.6875 143.460938 64.6875 C 145.773438 64.6875 147.703125 63.070312 148.050781 60.839844 Z M 140.21875 63.300781 C 140.027344 63.109375 139.871094 62.917969 139.71875 62.722656 C 139.871094 62.917969 140.027344 63.109375 140.21875 63.300781 Z M 122.933594 59.648438 C 122.972656 60.417969 123.167969 61.148438 123.550781 61.800781 C 123.167969 61.148438 122.933594 60.417969 122.933594 59.648438 Z M 88.675781 51.378906 L 88.636719 51.378906 C 88.484375 51.378906 88.367188 51.34375 88.210938 51.34375 L 87.671875 51.34375 C 87.441406 51.34375 87.210938 51.304688 86.976562 51.304688 L 86.863281 51.265625 L 86.785156 51.265625 L 86.976562 51.304688 C 87.210938 51.304688 87.441406 51.34375 87.671875 51.34375 L 88.210938 51.34375 C 88.328125 51.34375 88.484375 51.34375 88.636719 51.378906 L 88.675781 51.378906 C 88.675781 51.378906 88.675781 51.34375 88.675781 51.378906 C 88.675781 51.34375 88.675781 51.34375 88.675781 51.378906 L 88.714844 51.378906 L 88.675781 51.378906 C 88.675781 51.34375 88.675781 51.378906 88.675781 51.378906 Z M 60.394531 60.1875 C 60.472656 60.261719 60.511719 60.339844 60.589844 60.417969 C 60.550781 60.339844 60.472656 60.261719 60.394531 60.1875 C 60.320312 60.109375 60.242188 59.996094 60.203125 59.917969 C 60.28125 60.03125 60.320312 60.109375 60.394531 60.1875 Z M 62.632812 52.804688 C 62.671875 52.457031 62.710938 52.109375 62.789062 51.765625 C 62.710938 52.109375 62.671875 52.457031 62.632812 52.804688 Z M 59.855469 59.378906 C 59.507812 58.726562 59.316406 57.996094 59.316406 57.265625 C 59.355469 57.996094 59.507812 58.726562 59.855469 59.378906 Z M 161.59375 54.1875 C 161.632812 54.148438 161.632812 54.109375 161.667969 54.109375 C 161.667969 54.148438 161.632812 54.148438 161.59375 54.1875 Z M 161.707031 54.070312 C 161.746094 54.035156 161.746094 53.996094 161.746094 53.996094 C 161.746094 53.996094 161.746094 54.035156 161.707031 54.070312 Z M 161.785156 53.878906 C 161.785156 53.839844 161.824219 53.804688 161.824219 53.804688 C 161.824219 53.839844 161.824219 53.878906 161.785156 53.878906 Z M 147.625 48.496094 L 147.742188 48.648438 C 147.933594 48.878906 148.089844 49.074219 148.242188 49.265625 C 148.824219 50.035156 149.324219 50.878906 149.75 51.804688 C 149.824219 52.035156 149.941406 52.265625 150.019531 52.496094 L 144.964844 52.378906 C 144.617188 53.265625 144.347656 54.1875 144.191406 55.1875 L 144.191406 55.304688 L 144.152344 55.457031 L 144.191406 55.304688 L 144.191406 55.1875 C 144.347656 54.1875 144.617188 53.265625 144.964844 52.378906 L 145.003906 52.339844 L 145.042969 52.265625 C 145.425781 51.417969 145.890625 50.574219 146.46875 49.84375 C 146.738281 49.378906 147.164062 48.917969 147.625 48.496094 Z M 135.011719 45.804688 C 135.9375 45.457031 136.863281 45.1875 137.828125 45.035156 C 138.328125 44.957031 138.828125 44.957031 139.332031 44.957031 C 139.832031 44.957031 140.375 44.996094 140.875 45.035156 C 141.839844 45.1875 142.804688 45.457031 143.691406 45.804688 C 144.539062 46.1875 145.386719 46.652344 146.121094 47.226562 C 145.929688 47.382812 145.699219 47.613281 145.351562 47.957031 C 144.230469 49.226562 143.34375 50.726562 142.765625 52.378906 C 142.496094 53.148438 142.300781 53.957031 142.1875 54.765625 C 142.300781 53.957031 142.496094 53.148438 142.765625 52.378906 L 141.375 52.339844 L 136.4375 52.226562 C 136.4375 52.226562 136.4375 52.226562 136.4375 52.265625 L 136.4375 52.378906 L 136.398438 52.378906 L 136.285156 52.339844 L 136.128906 52.339844 C 135.667969 52.304688 135.164062 52.304688 134.664062 52.304688 L 134.507812 52.304688 L 134.664062 52.304688 C 135.125 52.304688 135.628906 52.304688 136.128906 52.339844 L 136.285156 52.339844 L 136.398438 52.378906 L 136.4375 52.226562 C 136.320312 51.609375 136.128906 50.996094 135.898438 50.378906 C 135.628906 49.726562 135.320312 49.074219 134.972656 48.457031 C 134.625 47.804688 134.199219 47.265625 133.777344 46.726562 L 133.699219 46.613281 C 133.660156 46.535156 133.582031 46.496094 133.542969 46.417969 C 134.160156 46.1875 134.625 45.957031 135.011719 45.804688 Z M 142.148438 55.648438 C 142.1875 55.378906 142.226562 55.070312 142.261719 54.804688 C 142.1875 55.070312 142.1875 55.378906 142.148438 55.648438 Z M 132.039062 47.648438 L 132.039062 47.6875 C 132.195312 47.84375 132.347656 48.035156 132.464844 48.1875 C 133.042969 48.957031 133.542969 49.84375 133.96875 50.726562 C 134.160156 51.1875 134.316406 51.6875 134.433594 52.148438 L 133.816406 52.109375 L 128.875 51.996094 C 128.914062 51.917969 128.953125 51.84375 128.953125 51.765625 L 128.992188 51.648438 C 129.378906 50.804688 129.839844 49.957031 130.417969 49.226562 C 130.921875 48.6875 131.460938 48.148438 132.039062 47.648438 Z M 119.269531 44.765625 C 120.195312 44.421875 121.121094 44.152344 122.085938 43.996094 C 122.585938 43.921875 123.089844 43.921875 123.589844 43.921875 C 124.09375 43.921875 124.632812 43.957031 125.132812 43.996094 C 126.097656 44.152344 127.0625 44.421875 127.949219 44.765625 C 128.835938 45.152344 129.6875 45.652344 130.457031 46.226562 L 130.613281 46.34375 C 130.265625 46.613281 129.878906 46.957031 129.492188 47.417969 C 128.335938 48.726562 127.410156 50.34375 126.832031 52.035156 C 126.601562 52.765625 126.445312 53.535156 126.328125 54.304688 C 126.445312 53.535156 126.601562 52.765625 126.832031 52.035156 L 120.621094 51.878906 C 120.621094 51.917969 120.621094 51.957031 120.621094 52.035156 C 120.621094 51.957031 120.621094 51.917969 120.621094 51.878906 C 120.503906 51.1875 120.3125 50.496094 120.042969 49.84375 C 119.769531 49.1875 119.460938 48.535156 119.117188 47.917969 C 118.769531 47.265625 118.304688 46.6875 117.917969 46.1875 C 117.765625 45.996094 117.609375 45.84375 117.457031 45.652344 C 118.113281 45.34375 118.691406 44.996094 119.269531 44.765625 Z M 126.214844 55.109375 C 126.253906 54.839844 126.253906 54.570312 126.292969 54.339844 C 126.292969 54.570312 126.253906 54.839844 126.214844 55.109375 Z M 115.953125 46.917969 L 116.105469 47.148438 C 116.261719 47.34375 116.414062 47.496094 116.53125 47.6875 C 117.109375 48.457031 117.609375 49.304688 118.035156 50.226562 C 118.226562 50.726562 118.421875 51.304688 118.574219 51.878906 L 117.878906 51.84375 L 117.1875 51.84375 L 112.902344 51.765625 C 113.019531 51.417969 113.136719 51.074219 113.289062 50.726562 C 113.675781 49.878906 114.136719 49.035156 114.71875 48.304688 C 115.101562 47.765625 115.527344 47.34375 115.953125 46.917969 Z M 103.335938 44.226562 C 104.261719 43.882812 105.1875 43.613281 106.152344 43.457031 C 106.652344 43.382812 107.15625 43.382812 107.695312 43.382812 C 108.195312 43.382812 108.738281 43.421875 109.238281 43.457031 C 110.203125 43.613281 111.128906 43.882812 112.054688 44.226562 C 112.941406 44.613281 113.753906 45.074219 114.484375 45.652344 C 114.292969 45.804688 114.023438 46.035156 113.714844 46.382812 C 112.363281 47.882812 111.398438 49.726562 110.859375 51.726562 L 104.570312 51.574219 C 104.570312 51.574219 104.570312 51.574219 104.570312 51.609375 L 104.570312 51.6875 L 104.53125 51.6875 L 104.417969 51.648438 L 104.261719 51.648438 C 103.835938 51.609375 103.375 51.609375 102.949219 51.609375 L 102.5625 51.609375 C 102.5625 51.609375 102.5625 51.609375 102.5625 51.574219 C 102.5625 51.574219 102.5625 51.609375 102.5625 51.609375 L 102.949219 51.609375 C 103.335938 51.609375 103.800781 51.609375 104.261719 51.648438 L 104.417969 51.648438 L 104.53125 51.6875 L 104.570312 51.609375 C 104.453125 50.996094 104.261719 50.378906 104.03125 49.726562 C 103.761719 49.074219 103.453125 48.417969 103.105469 47.804688 C 102.757812 47.148438 102.292969 46.574219 101.910156 46.074219 C 101.714844 45.84375 101.484375 45.574219 101.292969 45.34375 C 101.984375 44.882812 102.679688 44.496094 103.335938 44.226562 Z M 99.824219 46.574219 C 100.171875 46.996094 100.402344 47.265625 100.597656 47.496094 C 101.175781 48.265625 101.675781 49.148438 102.101562 50.035156 C 102.292969 50.496094 102.449219 50.996094 102.601562 51.535156 L 99.671875 51.457031 L 98.898438 51.417969 L 96.96875 51.378906 C 96.816406 51.917969 96.699219 52.457031 96.585938 53.074219 L 96.585938 53.1875 L 96.546875 53.339844 L 96.585938 53.1875 L 96.585938 53.074219 C 96.660156 52.496094 96.816406 51.917969 96.96875 51.378906 C 97.085938 50.957031 97.242188 50.535156 97.394531 50.148438 C 97.78125 49.265625 98.242188 48.457031 98.820312 47.726562 C 99.09375 47.34375 99.4375 46.957031 99.824219 46.574219 Z M 87.363281 44.035156 C 88.289062 43.652344 89.214844 43.421875 90.179688 43.265625 C 90.679688 43.191406 91.183594 43.191406 91.683594 43.191406 C 92.1875 43.191406 92.726562 43.226562 93.226562 43.265625 C 94.191406 43.421875 95.15625 43.6875 96.042969 44.035156 C 96.816406 44.382812 97.585938 44.804688 98.320312 45.304688 C 98.203125 45.382812 98.050781 45.535156 97.78125 45.804688 C 96.390625 47.382812 95.386719 49.265625 94.886719 51.34375 L 88.714844 51.1875 L 88.714844 51.34375 L 88.714844 51.226562 C 88.636719 50.917969 88.558594 50.609375 88.484375 50.34375 C 88.40625 49.957031 88.25 49.535156 88.097656 49.113281 C 87.863281 48.457031 87.554688 47.804688 87.171875 47.1875 C 86.824219 46.574219 86.359375 45.957031 85.976562 45.457031 C 85.820312 45.265625 85.667969 45.113281 85.511719 44.921875 C 86.207031 44.613281 86.824219 44.265625 87.363281 44.035156 Z M 84.046875 46.226562 L 84.199219 46.417969 C 84.394531 46.613281 84.546875 46.804688 84.664062 46.996094 C 85.242188 47.765625 85.742188 48.648438 86.167969 49.535156 C 86.359375 50.035156 86.554688 50.535156 86.667969 51.074219 L 86.707031 51.1875 L 81.035156 51.074219 C 81.152344 50.6875 81.304688 50.304688 81.421875 49.996094 C 81.808594 49.148438 82.269531 48.34375 82.851562 47.574219 C 83.160156 47.113281 83.582031 46.652344 84.046875 46.226562 Z M 68.113281 45.6875 L 68.226562 45.84375 L 68.265625 45.882812 L 68.304688 45.917969 C 68.460938 46.113281 68.613281 46.265625 68.730469 46.417969 C 69.308594 47.1875 69.808594 48.074219 70.234375 48.957031 C 70.464844 49.535156 70.660156 50.113281 70.8125 50.765625 L 70.929688 50.765625 C 71.199219 50.765625 71.46875 50.804688 71.738281 50.804688 L 72.316406 50.804688 C 72.511719 50.804688 72.664062 50.804688 72.859375 50.804688 C 72.742188 50.074219 72.546875 49.304688 72.238281 48.535156 C 72.007812 47.882812 71.699219 47.226562 71.3125 46.613281 C 70.96875 45.957031 70.542969 45.417969 70.117188 44.882812 C 69.964844 44.6875 69.808594 44.535156 69.65625 44.34375 C 70.3125 43.957031 70.929688 43.652344 71.46875 43.421875 C 72.355469 43.074219 73.320312 42.804688 74.285156 42.652344 C 74.785156 42.574219 75.289062 42.574219 75.789062 42.574219 C 76.292969 42.574219 76.832031 42.613281 77.332031 42.652344 C 78.296875 42.804688 79.261719 43.074219 80.148438 43.421875 C 80.996094 43.804688 81.847656 44.265625 82.578125 44.84375 C 82.386719 44.996094 82.15625 45.226562 81.847656 45.535156 C 80.496094 47.035156 79.492188 48.917969 78.992188 50.917969 L 69 50.6875 L 65.027344 50.609375 C 64.871094 51.148438 64.753906 51.6875 64.679688 52.226562 L 64.679688 52.339844 L 64.640625 52.457031 L 64.679688 52.339844 L 64.679688 52.226562 C 64.753906 51.6875 64.871094 51.148438 65.027344 50.609375 C 65.179688 50.148438 65.335938 49.726562 65.488281 49.304688 C 65.796875 48.613281 66.144531 47.957031 66.570312 47.34375 C 66.683594 47.1875 66.761719 47.074219 66.878906 46.917969 C 67.261719 46.535156 67.6875 46.113281 68.113281 45.6875 Z M 48.707031 51.957031 L 48.707031 51.84375 C 48.785156 51.34375 48.898438 50.84375 49.015625 50.378906 C 49.167969 49.878906 49.324219 49.378906 49.515625 48.917969 C 49.902344 48.074219 50.363281 47.226562 50.945312 46.496094 C 51.523438 45.726562 52.21875 45.035156 52.988281 44.457031 C 53.761719 43.882812 54.609375 43.382812 55.496094 42.996094 C 56.421875 42.652344 57.347656 42.382812 58.3125 42.226562 C 58.8125 42.152344 59.316406 42.152344 59.816406 42.152344 C 60.320312 42.152344 60.859375 42.191406 61.359375 42.226562 C 62.324219 42.382812 63.289062 42.652344 64.175781 42.996094 C 65.027344 43.382812 65.875 43.84375 66.605469 44.421875 C 66.414062 44.574219 66.183594 44.804688 65.875 45.113281 C 65.488281 45.535156 65.140625 45.996094 64.792969 46.496094 C 63.945312 47.765625 63.289062 49.1875 62.941406 50.6875 L 48.976562 50.378906 C 48.859375 50.84375 48.746094 51.34375 48.667969 51.84375 L 48.707031 51.957031 L 48.667969 52.074219 Z M 47.277344 61.261719 C 47.511719 61.300781 47.78125 61.339844 48.050781 61.339844 C 50.328125 61.339844 52.253906 59.726562 52.640625 57.496094 C 52.835938 56.378906 52.601562 55.304688 52.0625 54.417969 C 52.601562 55.304688 52.796875 56.378906 52.640625 57.496094 C 52.253906 59.726562 50.328125 61.339844 48.050781 61.339844 C 47.78125 61.339844 47.546875 61.300781 47.277344 61.261719 C 46.816406 61.1875 46.390625 61.03125 46.003906 60.839844 C 45.3125 60.496094 44.730469 59.996094 44.269531 59.378906 C 44.730469 59.996094 45.3125 60.496094 46.003906 60.839844 C 46.390625 61.03125 46.816406 61.1875 47.277344 61.261719 Z M 20.078125 132.136719 Z M 131.691406 98.871094 L 129.070312 106.71875 L 127.332031 111.984375 L 126.832031 113.523438 L 126.058594 115.792969 L 118.574219 138.328125 C 118.535156 138.441406 118.5 138.519531 118.460938 138.632812 L 118.460938 138.710938 L 118.382812 138.867188 L 118.34375 138.980469 L 118.304688 139.132812 C 118.265625 139.210938 118.226562 139.328125 118.226562 139.402344 L 118.191406 139.480469 C 117.804688 139.402344 117.378906 139.367188 117.03125 139.328125 L 109.046875 138.75 L 100.519531 138.132812 L 81.074219 136.671875 L 59.972656 135.097656 L 58.738281 134.980469 L 58.699219 135.019531 L 58.738281 135.136719 L 58.234375 135.058594 L 57.617188 134.941406 L 57.195312 134.90625 L 56.808594 134.867188 L 50.441406 134.40625 L 44.847656 133.980469 C 36.59375 133.367188 28.375 132.75 20.117188 132.136719 C 28.375 132.75 36.59375 133.367188 44.847656 133.980469 L 50.441406 134.40625 L 56.808594 134.867188 L 57.195312 134.90625 L 57.617188 134.941406 L 58.234375 135.058594 L 58.738281 135.136719 L 58.777344 135.097656 L 58.8125 135.058594 L 60.046875 135.171875 L 81.152344 136.75 L 100.597656 138.210938 L 109.125 138.828125 L 117.109375 139.402344 C 117.457031 139.441406 117.878906 139.480469 118.265625 139.558594 L 118.304688 139.480469 C 118.34375 139.402344 118.382812 139.289062 118.382812 139.210938 L 118.421875 139.058594 L 118.460938 138.941406 L 118.5 138.867188 L 118.535156 138.789062 L 118.535156 138.710938 C 118.574219 138.597656 118.613281 138.519531 118.652344 138.402344 L 126.136719 115.871094 L 126.910156 113.601562 L 127.410156 112.0625 L 129.144531 106.792969 L 131.691406 98.871094 L 133.699219 92.796875 L 135.703125 86.796875 L 136.324219 84.914062 L 136.785156 83.453125 L 141.066406 70.492188 L 141.144531 70.300781 C 141.183594 70.183594 141.183594 70.070312 141.222656 69.992188 C 141.222656 69.953125 141.222656 69.953125 141.261719 69.914062 C 141.261719 69.839844 141.300781 69.800781 141.300781 69.722656 C 141.261719 69.878906 141.183594 70.070312 141.144531 70.300781 L 141.066406 70.492188 L 136.785156 83.453125 L 136.324219 84.914062 L 135.703125 86.796875 L 133.699219 92.796875 Z M 133.121094 150.324219 C 133.042969 150.515625 133.003906 150.710938 132.925781 150.902344 C 133.003906 150.710938 133.042969 150.515625 133.121094 150.324219 L 133.121094 150.246094 C 133.121094 150.246094 133.121094 150.210938 133.121094 150.210938 C 133.121094 150.210938 133.121094 150.246094 133.121094 150.246094 Z M 140.953125 123.789062 L 139.0625 130.25 Z M 162.210938 128.558594 C 168.421875 129.945312 175.558594 131.558594 182.308594 133.058594 L 182.347656 133.058594 L 182.308594 133.058594 C 175.558594 131.558594 168.460938 129.945312 162.210938 128.558594 Z M 182.695312 133.136719 Z M 182.890625 133.175781 L 183.003906 133.210938 L 183.042969 133.210938 L 183.003906 133.210938 Z M 184.585938 133.558594 L 184.816406 133.597656 L 184.894531 133.597656 L 184.816406 133.597656 Z M 185.011719 133.636719 L 185.089844 133.636719 Z M 185.011719 133.636719 " fill-opacity="1" fill-rule="nonzero"/></g><path fill="#00d49c" d="M 43.535156 63.6875 L 43.460938 63.6875 C 43.421875 63.6875 43.34375 63.6875 43.304688 63.6875 L 43.226562 63.6875 C 43.152344 63.6875 43.074219 63.6875 42.996094 63.6875 L 42.84375 63.6875 C 42.804688 63.6875 42.765625 63.6875 42.6875 63.6875 C 42.609375 63.917969 42.570312 64.148438 42.496094 64.339844 C 42.496094 64.378906 42.457031 64.417969 42.457031 64.453125 L 38.25 77.144531 L 37.671875 78.875 L 37.59375 79.105469 L 37.402344 79.644531 L 37.09375 80.527344 L 37.015625 80.722656 C 37.015625 80.722656 37.015625 80.722656 37.054688 80.761719 L 34.777344 87.644531 L 34.507812 88.449219 L 34.238281 89.257812 L 34.121094 89.644531 C 32.734375 93.875 31.34375 98.101562 29.957031 102.292969 C 29.839844 102.679688 29.6875 103.0625 29.570312 103.449219 L 27.871094 108.640625 L 26.5625 112.601562 L 26.523438 112.714844 L 21.699219 127.40625 L 20.503906 130.980469 C 20.503906 131.019531 20.464844 131.058594 20.464844 131.097656 C 20.425781 131.210938 20.386719 131.328125 20.3125 131.445312 L 20.234375 131.636719 C 20.195312 131.75 20.15625 131.867188 20.078125 131.980469 L 20.003906 132.136719 L 19.964844 132.175781 L 19.964844 132.136719 L 19.925781 132.175781 C 28.179688 132.789062 36.398438 133.40625 44.65625 134.019531 L 50.25 134.441406 L 56.613281 134.90625 L 57 134.941406 L 57.425781 134.980469 L 58.042969 135.097656 L 58.542969 135.171875 L 58.582031 135.136719 L 58.621094 135.097656 L 59.855469 135.210938 L 80.960938 136.789062 L 100.402344 138.25 L 108.929688 138.867188 L 116.917969 139.441406 C 117.261719 139.480469 117.6875 139.519531 118.074219 139.597656 L 118.113281 139.519531 C 118.152344 139.441406 118.191406 139.328125 118.191406 139.25 L 118.226562 139.097656 L 118.265625 138.980469 L 118.304688 138.902344 L 118.34375 138.828125 L 118.34375 138.75 C 118.382812 138.632812 118.421875 138.558594 118.460938 138.441406 L 125.945312 115.90625 L 126.714844 113.640625 L 127.21875 112.101562 L 128.953125 106.832031 L 131.578125 98.988281 L 133.582031 92.910156 L 135.589844 86.914062 L 136.207031 85.027344 L 136.667969 83.566406 L 140.953125 70.609375 L 141.027344 70.414062 C 141.144531 69.953125 141.222656 69.683594 141.335938 69.414062 C 141.335938 69.414062 141.335938 69.378906 141.335938 69.378906 C 141.335938 69.378906 141.335938 69.339844 141.335938 69.339844 C 141.066406 69.300781 140.796875 69.261719 140.527344 69.222656 L 140.296875 69.183594 L 140.21875 69.183594 L 123.167969 68.222656 L 106.539062 67.300781 L 87.867188 66.261719 L 86.824219 66.183594 L 69.191406 65.1875 L 68.496094 65.148438 L 67.804688 65.109375 L 67.570312 65.109375 L 63.328125 64.761719 L 59.121094 64.53125 L 51.019531 64.109375 L 43.882812 63.722656 C 43.769531 63.6875 43.652344 63.6875 43.535156 63.6875 Z M 43.535156 63.6875 " fill-opacity="1" fill-rule="nonzero"/><path fill="#0185b8" d="M 43.535156 63.6875 L 43.460938 63.6875 C 43.421875 63.6875 43.34375 63.6875 43.304688 63.6875 L 43.226562 63.6875 C 43.152344 63.6875 43.074219 63.6875 42.996094 63.6875 L 42.84375 63.6875 C 42.804688 63.6875 42.765625 63.6875 42.6875 63.6875 C 42.609375 63.917969 42.570312 64.148438 42.496094 64.339844 C 42.496094 64.378906 42.457031 64.417969 42.457031 64.453125 L 38.25 77.144531 L 37.671875 78.875 L 37.59375 79.105469 L 37.554688 79.183594 L 37.402344 79.644531 L 37.363281 79.644531 L 37.054688 80.527344 L 36.976562 80.722656 C 36.976562 80.722656 36.976562 80.722656 37.015625 80.761719 L 34.738281 87.644531 L 34.46875 88.449219 L 34.199219 89.257812 L 34.085938 89.644531 C 32.695312 93.875 31.304688 98.101562 29.917969 102.292969 C 29.800781 102.679688 29.648438 103.0625 29.53125 103.449219 L 27.835938 108.640625 L 26.523438 112.601562 L 26.484375 112.714844 L 21.660156 127.40625 L 20.464844 130.980469 C 20.464844 131.019531 20.425781 131.058594 20.425781 131.097656 C 20.386719 131.210938 20.347656 131.328125 20.273438 131.445312 L 20.195312 131.636719 C 20.15625 131.75 20.117188 131.867188 20.039062 131.980469 L 19.964844 132.136719 L 19.964844 132.210938 C 28.21875 132.828125 36.4375 133.441406 44.695312 134.058594 L 50.289062 134.480469 L 56.652344 134.941406 L 57.039062 134.980469 L 57.464844 135.019531 L 58.082031 135.136719 L 58.582031 135.210938 L 58.621094 135.171875 L 58.660156 135.136719 L 59.894531 135.25 L 80.996094 136.828125 L 100.441406 138.289062 L 108.96875 138.902344 L 116.953125 139.480469 C 117.300781 139.519531 117.726562 139.558594 118.113281 139.632812 L 118.152344 139.558594 C 118.191406 139.480469 118.226562 139.363281 118.226562 139.289062 L 118.265625 139.132812 L 118.304688 139.019531 L 118.34375 138.941406 L 118.382812 138.867188 L 118.382812 138.789062 C 118.421875 138.671875 118.460938 138.597656 118.5 138.480469 L 125.984375 115.945312 L 126.753906 113.675781 L 127.257812 112.140625 L 128.992188 106.871094 L 131.617188 99.027344 L 133.621094 92.949219 L 135.628906 86.949219 L 136.246094 85.066406 L 136.707031 83.605469 L 140.992188 70.644531 L 141.066406 70.453125 C 141.183594 69.992188 141.261719 69.683594 141.375 69.453125 C 141.375 69.453125 141.375 69.414062 141.375 69.414062 C 141.105469 69.378906 140.835938 69.339844 140.566406 69.300781 L 140.335938 69.261719 L 140.257812 69.261719 L 123.203125 68.300781 L 106.578125 67.378906 L 87.902344 66.339844 L 86.863281 66.261719 L 69.230469 65.261719 L 68.535156 65.222656 L 67.84375 65.1875 L 67.609375 65.1875 L 63.328125 64.761719 L 59.121094 64.53125 L 51.019531 64.109375 L 43.882812 63.722656 C 43.769531 63.6875 43.652344 63.6875 43.535156 63.6875 Z M 38.636719 79.722656 L 39.023438 78.605469 L 39.136719 78.183594 L 39.214844 77.914062 L 39.640625 76.644531 L 40.0625 75.375 L 41.144531 72.070312 L 43.496094 64.878906 L 58.195312 65.722656 L 53.722656 80.761719 Z M 59.394531 81.144531 L 56.769531 80.953125 L 54.878906 80.835938 L 55.378906 79.144531 L 55.613281 78.414062 C 56.421875 75.683594 57.230469 72.992188 58.042969 70.300781 L 59.394531 65.722656 L 60.394531 65.800781 L 77.949219 66.800781 L 74.207031 79.296875 L 73.359375 82.144531 Z M 74.59375 82.183594 L 76.910156 74.492188 L 79.222656 66.800781 L 80.148438 66.878906 L 81.074219 66.917969 L 97.894531 67.839844 L 94.886719 77.835938 L 93.1875 83.453125 Z M 103.257812 84.183594 L 94.386719 83.566406 L 95.542969 79.722656 L 96.3125 77.222656 L 97.394531 73.605469 L 99.09375 67.914062 L 118.535156 69.03125 L 113.714844 83.835938 L 113.367188 84.875 Z M 114.523438 84.953125 L 115.0625 83.414062 L 117.496094 75.992188 L 119.734375 69.109375 L 131.5 69.761719 L 140.027344 70.222656 L 139.949219 70.453125 L 139.71875 71.144531 L 134.664062 86.375 Z M 33.082031 96.527344 L 35.972656 87.796875 L 36.785156 85.335938 L 37.402344 83.492188 L 38.210938 80.992188 L 38.25 80.875 L 51.253906 81.796875 L 53.375 81.953125 L 51.40625 88.449219 L 48.667969 97.640625 Z M 52.023438 97.832031 L 50.597656 97.71875 L 49.824219 97.679688 L 54.414062 82.375 L 54.53125 81.992188 L 64.136719 82.644531 L 73.050781 83.257812 L 69.460938 95.179688 L 68.691406 97.796875 L 68.34375 98.988281 Z M 69.539062 99.027344 L 73.9375 84.414062 L 74.128906 83.757812 L 74.246094 83.335938 L 75.945312 83.453125 L 77.640625 83.566406 L 92.84375 84.644531 L 92.765625 84.875 L 91.839844 87.949219 L 88.136719 100.332031 Z M 98.628906 101.0625 L 89.292969 100.410156 L 92.648438 89.257812 L 94 84.722656 L 103.492188 85.375 L 112.980469 86.027344 L 110.550781 93.449219 L 107.886719 101.679688 Z M 109.046875 101.757812 L 114.136719 86.105469 L 117.804688 86.375 L 121.46875 86.644531 C 125.480469 86.914062 129.453125 87.183594 133.46875 87.488281 L 134.238281 87.527344 L 132.542969 92.566406 L 131.769531 94.871094 C 131.539062 95.527344 131.34375 96.179688 131.113281 96.835938 L 130.574219 98.488281 L 130.035156 100.101562 L 129.109375 102.949219 L 129.070312 103.0625 L 129.03125 103.140625 Z M 27.292969 114.140625 L 29.144531 108.5625 L 29.839844 106.484375 L 30.378906 104.910156 L 32.773438 97.679688 L 48.359375 98.757812 L 43.421875 115.253906 Z M 44.578125 115.332031 L 45.660156 111.792969 L 46.585938 108.679688 L 49.515625 98.832031 L 68.035156 100.140625 L 64.71875 111.214844 L 63.097656 116.675781 Z M 64.253906 116.675781 L 64.445312 116.0625 L 64.753906 115.0625 L 69.191406 100.179688 L 70.734375 100.296875 L 72.511719 100.410156 L 87.789062 101.488281 L 82.851562 117.984375 Z M 89.332031 118.40625 L 85.976562 118.175781 L 84.007812 118.023438 L 86.707031 109.023438 L 87.828125 105.253906 L 88.945312 101.488281 L 107.464844 102.792969 L 105.070312 110.101562 L 102.101562 119.292969 Z M 105.765625 119.5625 L 103.335938 119.40625 L 103.605469 118.636719 L 104.339844 116.40625 L 106.578125 109.5625 L 108.738281 102.949219 L 119.230469 103.679688 L 122.316406 103.910156 L 128.722656 104.371094 L 126.792969 110.214844 L 126.328125 111.601562 L 123.242188 120.867188 Z M 31.191406 131.828125 L 30.652344 131.789062 C 28.605469 131.636719 26.597656 131.480469 24.554688 131.328125 L 21.699219 131.097656 L 26.945312 115.214844 L 38.984375 116.0625 L 43.074219 116.332031 L 42.378906 118.636719 C 41.027344 123.175781 39.640625 127.75 38.289062 132.289062 C 35.898438 132.175781 33.542969 132.019531 31.191406 131.828125 Z M 40.21875 132.519531 L 39.445312 132.441406 L 44.230469 116.445312 L 62.75 117.714844 L 60.355469 125.675781 L 58.96875 130.328125 L 57.925781 133.789062 L 55.496094 133.597656 L 50.597656 133.25 C 47.125 133.019531 43.652344 132.75 40.21875 132.519531 Z M 77.640625 135.289062 L 77.601562 135.289062 L 59.085938 133.90625 L 63.90625 117.832031 L 82.503906 119.136719 L 82.386719 119.445312 L 82.308594 119.753906 L 80.304688 126.40625 Z M 86.707031 135.980469 L 78.835938 135.40625 L 82.773438 122.253906 L 83.699219 119.214844 L 101.792969 120.484375 L 101.636719 120.945312 L 99.824219 126.484375 L 96.507812 136.710938 Z M 97.664062 136.789062 L 101.019531 126.519531 L 102.988281 120.523438 L 103.800781 120.597656 L 109.199219 120.984375 L 122.859375 121.945312 L 122.164062 123.945312 L 122.125 124.023438 L 120.078125 130.136719 L 117.378906 138.25 Z M 97.664062 136.789062 " fill-opacity="1" fill-rule="nonzero"/><path fill="#fdde02" d="M 124.324219 84.605469 C 123.898438 84.566406 123.476562 84.757812 123.242188 85.066406 L 122.585938 86.027344 C 121.816406 87.183594 121.042969 88.335938 120.273438 89.449219 L 116.414062 88.414062 L 115.335938 88.105469 C 115.21875 88.066406 115.140625 88.027344 115.027344 88.027344 C 114.910156 88.027344 114.832031 88.027344 114.71875 88.027344 C 114.410156 88.066406 114.136719 88.257812 113.984375 88.488281 C 113.675781 88.914062 113.714844 89.449219 114.023438 89.914062 L 115.527344 91.949219 L 117.1875 94.21875 L 115.566406 96.835938 L 114.484375 98.601562 C 114.371094 98.757812 114.292969 98.949219 114.253906 99.179688 C 114.214844 99.488281 114.332031 99.796875 114.523438 100.027344 C 114.640625 100.179688 114.832031 100.296875 114.988281 100.371094 C 115.066406 100.410156 115.179688 100.449219 115.257812 100.449219 C 115.449219 100.449219 115.644531 100.449219 115.875 100.332031 L 119.152344 99.140625 L 120.695312 98.566406 L 122.433594 100.5625 L 124.167969 102.5625 C 124.363281 102.792969 124.671875 102.949219 124.941406 102.988281 C 125.058594 102.988281 125.132812 102.988281 125.25 102.988281 C 125.441406 102.949219 125.636719 102.871094 125.789062 102.757812 C 125.984375 102.601562 126.214844 102.257812 126.214844 101.988281 C 126.175781 100.527344 126.097656 99.101562 126.058594 97.640625 L 126.019531 96.566406 L 127.796875 95.796875 L 130.960938 94.410156 C 130.960938 94.410156 131 94.410156 131 94.371094 C 131.191406 94.296875 131.382812 94.140625 131.5 93.949219 C 131.539062 93.871094 131.578125 93.835938 131.617188 93.757812 C 131.730469 93.449219 131.730469 93.140625 131.578125 92.875 L 131.539062 92.835938 C 131.5 92.796875 131.5 92.757812 131.460938 92.71875 C 131.308594 92.488281 131.113281 92.335938 130.921875 92.296875 L 125.710938 90.910156 L 125.480469 88.027344 L 125.289062 85.566406 C 125.25 85.144531 124.902344 84.796875 124.554688 84.683594 C 124.554688 84.644531 124.441406 84.605469 124.324219 84.605469 Z M 124.324219 84.605469 " fill-opacity="1" fill-rule="nonzero"/><path fill="#fdde02" d="M 75.289062 99.527344 C 74.863281 99.601562 74.554688 99.910156 74.4375 100.296875 L 74.128906 101.410156 C 73.746094 102.757812 73.398438 104.0625 73.011719 105.410156 L 69.039062 105.640625 L 67.917969 105.71875 C 67.804688 105.71875 67.726562 105.71875 67.609375 105.753906 C 67.496094 105.792969 67.417969 105.832031 67.300781 105.871094 C 67.03125 106.023438 66.839844 106.253906 66.761719 106.523438 C 66.605469 107.023438 66.800781 107.523438 67.261719 107.832031 L 69.347656 109.292969 L 71.660156 110.910156 L 70.929688 113.90625 L 70.464844 115.90625 C 70.386719 116.101562 70.386719 116.292969 70.425781 116.523438 C 70.503906 116.832031 70.695312 117.101562 70.929688 117.253906 C 71.082031 117.367188 71.277344 117.40625 71.507812 117.445312 C 71.621094 117.445312 71.699219 117.445312 71.816406 117.40625 C 72.007812 117.367188 72.164062 117.292969 72.355469 117.136719 L 75.09375 114.984375 L 76.40625 113.945312 L 78.683594 115.292969 L 80.960938 116.636719 C 81.230469 116.792969 81.539062 116.867188 81.847656 116.792969 C 81.960938 116.753906 82.039062 116.714844 82.117188 116.675781 C 82.308594 116.601562 82.425781 116.445312 82.542969 116.292969 C 82.695312 116.0625 82.8125 115.675781 82.695312 115.40625 C 82.195312 114.0625 81.691406 112.675781 81.152344 111.332031 L 80.765625 110.332031 L 82.195312 109.0625 L 84.777344 106.753906 C 84.777344 106.753906 84.816406 106.71875 84.816406 106.71875 C 84.972656 106.5625 85.085938 106.371094 85.164062 106.140625 C 85.164062 106.0625 85.203125 105.988281 85.203125 105.910156 C 85.203125 105.601562 85.085938 105.292969 84.894531 105.0625 L 84.855469 105.023438 C 84.816406 104.988281 84.777344 104.949219 84.738281 104.910156 C 84.546875 104.753906 84.316406 104.679688 84.085938 104.679688 L 78.683594 104.988281 L 77.5625 102.292969 L 76.601562 100.027344 C 76.445312 99.640625 75.984375 99.449219 75.636719 99.410156 C 75.480469 99.527344 75.402344 99.527344 75.289062 99.527344 Z M 75.289062 99.527344 " fill-opacity="1" fill-rule="nonzero"/><path fill="#ff005c" d="M 56.5 98.71875 C 52.371094 98.71875 48.820312 101.527344 47.894531 105.523438 C 47.355469 107.832031 47.742188 110.179688 48.976562 112.175781 C 50.210938 114.175781 52.179688 115.601562 54.453125 116.136719 C 55.109375 116.292969 55.804688 116.371094 56.5 116.371094 C 60.628906 116.371094 64.175781 113.5625 65.101562 109.5625 C 65.644531 107.253906 65.257812 104.910156 64.023438 102.910156 C 62.789062 100.910156 60.820312 99.488281 58.542969 98.949219 C 57.886719 98.796875 57.195312 98.71875 56.5 98.71875 Z M 56.5 98.71875 " fill-opacity="1" fill-rule="nonzero"/><path fill="#fdde02" d="M 56.460938 100.0625 C 54.222656 101.679688 51.984375 103.292969 49.746094 104.949219 C 49.671875 104.988281 49.59375 105.0625 49.554688 105.140625 C 49.554688 105.140625 49.515625 105.179688 49.515625 105.179688 C 49.515625 105.21875 49.515625 105.21875 49.476562 105.253906 C 49.476562 105.253906 49.476562 105.253906 49.476562 105.292969 C 49.4375 105.371094 49.4375 105.488281 49.476562 105.5625 C 49.476562 105.5625 49.476562 105.601562 49.476562 105.601562 C 50.328125 108.214844 51.175781 110.832031 52.023438 113.445312 C 52.101562 113.675781 52.332031 113.871094 52.5625 113.871094 C 55.34375 113.871094 58.121094 113.871094 60.898438 113.871094 C 61.167969 113.871094 61.359375 113.675781 61.4375 113.445312 C 62.285156 110.832031 63.136719 108.179688 64.023438 105.5625 C 64.0625 105.449219 64.0625 105.371094 64.023438 105.253906 C 63.984375 105.101562 63.867188 104.988281 63.753906 104.910156 C 61.515625 103.292969 59.277344 101.679688 57.039062 100.027344 C 56.960938 99.988281 56.847656 99.949219 56.730469 99.949219 C 56.613281 99.949219 56.539062 99.988281 56.460938 100.0625 Z M 56.730469 101.257812 C 58.738281 102.71875 60.78125 104.179688 62.789062 105.640625 C 62.015625 107.984375 61.246094 110.371094 60.472656 112.714844 C 57.964844 112.714844 55.496094 112.714844 52.988281 112.714844 C 52.21875 110.371094 51.445312 107.984375 50.671875 105.640625 C 50.945312 105.449219 51.214844 105.253906 51.523438 105.023438 C 51.523438 105.023438 51.5625 105.023438 51.5625 104.988281 C 53.257812 103.757812 54.996094 102.527344 56.730469 101.257812 Z M 56.730469 101.257812 " fill-opacity="1" fill-rule="nonzero"/><g clip-path="url(#b635fbc09d)"><path fill="#00d49c" d="M 38.097656 50.1875 C 37.828125 50.765625 37.554688 51.34375 37.285156 51.917969 C 37.324219 51.957031 37.363281 51.957031 37.402344 51.957031 L 36.902344 53.226562 L 34.085938 61.457031 L 31.304688 69.609375 L 29.105469 75.953125 L 24.632812 89.027344 L 23.976562 90.949219 L 23.320312 92.875 L 23.242188 93.179688 L 20.890625 100.0625 L 20.851562 100.21875 L 17.917969 108.792969 L 14.988281 117.332031 C 12.402344 124.90625 9.777344 132.480469 7.195312 140.058594 L 7.15625 140.171875 C 7.15625 140.210938 7.15625 140.210938 7.117188 140.25 C 7.078125 140.402344 7.039062 140.597656 6.960938 140.75 L 6.921875 140.863281 C 6.886719 140.980469 6.847656 141.132812 6.808594 141.25 C 6.769531 141.441406 6.691406 141.632812 6.613281 141.828125 C 6.730469 141.902344 6.808594 141.902344 7 141.941406 L 18.074219 142.824219 L 28.257812 143.632812 L 28.296875 143.632812 L 32.847656 143.980469 L 37.324219 144.324219 L 44.386719 144.863281 L 50.328125 145.324219 L 75.171875 147.285156 L 100.328125 149.285156 L 108.777344 149.941406 L 117.226562 150.59375 L 122.164062 150.980469 L 127.101562 151.363281 L 129.222656 151.515625 L 130.960938 151.671875 C 130.960938 151.671875 131 151.671875 131 151.671875 C 131.460938 151.710938 132.039062 151.710938 132.617188 151.710938 L 132.773438 151.324219 C 132.773438 151.285156 132.773438 151.285156 132.8125 151.246094 C 132.886719 150.941406 133.003906 150.632812 133.121094 150.324219 L 133.121094 150.285156 C 133.121094 150.246094 133.121094 150.210938 133.160156 150.210938 C 133.160156 150.132812 133.195312 150.132812 133.195312 150.09375 L 137.519531 135.519531 L 140.992188 123.789062 L 142.457031 118.867188 C 144.769531 111.023438 147.085938 103.179688 149.402344 95.335938 L 150.132812 92.796875 L 150.867188 90.296875 L 150.90625 90.105469 L 153.066406 82.757812 C 153.644531 80.761719 154.261719 78.761719 154.839844 76.722656 L 156.191406 72.109375 L 157.542969 67.492188 L 157.542969 67.453125 L 158.507812 64.222656 L 160.78125 56.457031 C 160.976562 55.800781 161.167969 55.1875 161.359375 54.535156 L 161.398438 54.378906 L 161.398438 54.304688 C 161.59375 54.1875 161.707031 53.957031 161.785156 53.726562 C 161.785156 53.6875 161.785156 53.648438 161.785156 53.609375 C 161.785156 53.148438 161.398438 52.726562 160.898438 52.726562 L 151.949219 52.535156 L 151.949219 52.6875 L 151.753906 52.6875 L 150.867188 52.648438 L 150.402344 52.609375 L 149.902344 52.609375 L 149.863281 52.535156 L 144.808594 52.417969 C 144.460938 53.304688 144.191406 54.226562 144.039062 55.226562 L 144.039062 55.339844 L 144 55.496094 C 144.039062 55.496094 144.078125 55.535156 144.152344 55.535156 C 145.386719 55.726562 146.46875 56.417969 147.203125 57.417969 C 147.433594 57.765625 147.625 58.109375 147.78125 58.496094 C 148.050781 59.226562 148.128906 60.070312 148.011719 60.839844 C 147.625 63.070312 145.699219 64.6875 143.421875 64.6875 C 143.152344 64.6875 142.882812 64.648438 142.648438 64.609375 C 142.300781 64.570312 141.992188 64.453125 141.644531 64.339844 C 141.066406 64.109375 140.566406 63.761719 140.101562 63.339844 C 139.910156 63.148438 139.757812 62.957031 139.601562 62.761719 C 139.0625 61.992188 138.753906 61.070312 138.753906 60.109375 C 138.753906 59.839844 138.792969 59.609375 138.828125 59.300781 C 139.136719 57.53125 140.375 56.148438 142.070312 55.648438 C 142.1875 54.535156 142.417969 53.417969 142.765625 52.339844 L 141.375 52.304688 L 136.4375 52.1875 C 136.4375 52.1875 136.4375 52.1875 136.4375 52.226562 L 136.4375 52.339844 L 136.398438 52.339844 L 136.285156 52.304688 L 136.128906 52.304688 C 135.667969 52.265625 135.164062 52.265625 134.664062 52.265625 L 134.433594 52.265625 L 134.394531 52.148438 L 133.777344 52.109375 L 128.835938 51.996094 C 128.527344 52.839844 128.296875 53.726562 128.144531 54.609375 L 128.144531 54.726562 L 128.105469 54.878906 L 128.257812 54.917969 C 129.492188 55.109375 130.535156 55.800781 131.269531 56.800781 C 131.5 57.148438 131.691406 57.496094 131.847656 57.878906 C 132.117188 58.609375 132.195312 59.457031 132.078125 60.226562 C 131.691406 62.457031 129.761719 64.070312 127.488281 64.070312 C 127.21875 64.070312 126.945312 64.03125 126.714844 63.992188 C 126.136719 63.878906 125.597656 63.6875 125.132812 63.417969 C 124.59375 63.070312 124.09375 62.648438 123.707031 62.109375 C 122.972656 61.109375 122.703125 59.878906 122.894531 58.648438 C 123.203125 56.878906 124.441406 55.496094 126.136719 54.996094 C 126.253906 53.957031 126.445312 52.917969 126.753906 51.917969 L 120.542969 51.765625 C 120.542969 51.804688 120.542969 51.84375 120.542969 51.917969 L 120.542969 51.957031 C 120.542969 51.957031 120.542969 51.957031 120.503906 51.957031 C 120.351562 51.917969 120.195312 51.917969 120.003906 51.917969 C 119.925781 51.917969 119.886719 51.917969 119.847656 51.917969 C 119.695312 51.917969 119.578125 51.878906 119.425781 51.878906 C 119.230469 51.878906 119.039062 51.84375 118.84375 51.84375 L 118.730469 51.84375 L 118.535156 51.804688 L 118.5 51.6875 L 117.804688 51.648438 L 117.109375 51.648438 L 112.828125 51.574219 C 112.632812 52.1875 112.480469 52.804688 112.402344 53.457031 L 112.402344 53.574219 L 112.363281 53.726562 C 112.402344 53.726562 112.441406 53.765625 112.519531 53.765625 L 112.632812 53.804688 C 113.828125 54.035156 114.871094 54.6875 115.566406 55.6875 C 115.796875 56.035156 115.992188 56.378906 116.144531 56.765625 C 116.414062 57.496094 116.492188 58.339844 116.375 59.109375 C 115.992188 61.339844 114.0625 62.957031 111.785156 62.957031 C 111.515625 62.957031 111.246094 62.917969 111.011719 62.878906 C 110.628906 62.800781 110.28125 62.722656 109.933594 62.570312 C 109.160156 62.226562 108.46875 61.6875 108.003906 60.992188 C 107.425781 60.226562 107.15625 59.300781 107.15625 58.339844 C 107.15625 58.109375 107.195312 57.839844 107.234375 57.53125 C 107.542969 55.765625 108.777344 54.378906 110.472656 53.878906 C 110.550781 53.074219 110.703125 52.265625 110.898438 51.496094 L 104.609375 51.34375 C 104.609375 51.34375 104.609375 51.34375 104.609375 51.378906 L 104.609375 51.457031 L 104.570312 51.457031 L 104.453125 51.417969 L 104.300781 51.417969 C 103.875 51.378906 103.414062 51.378906 102.988281 51.378906 L 102.601562 51.378906 C 102.601562 51.378906 102.601562 51.34375 102.601562 51.34375 L 99.671875 51.265625 L 98.898438 51.226562 L 96.96875 51.1875 C 96.816406 51.726562 96.699219 52.265625 96.585938 52.878906 L 96.585938 52.996094 L 96.546875 53.148438 C 96.621094 53.1875 96.660156 53.1875 96.699219 53.1875 C 96.855469 53.226562 97.007812 53.265625 97.164062 53.304688 C 98.203125 53.574219 99.09375 54.1875 99.710938 55.070312 C 100.019531 55.496094 100.210938 55.917969 100.367188 56.378906 C 100.597656 57.070312 100.636719 57.800781 100.519531 58.496094 C 100.132812 60.726562 98.203125 62.339844 95.929688 62.339844 C 95.660156 62.339844 95.386719 62.300781 95.15625 62.261719 C 94.808594 62.226562 94.5 62.109375 94.152344 61.992188 C 93.574219 61.761719 93.074219 61.417969 92.609375 60.992188 C 92.417969 60.800781 92.261719 60.609375 92.109375 60.417969 C 91.570312 59.648438 91.261719 58.726562 91.261719 57.765625 C 91.261719 57.496094 91.300781 57.265625 91.335938 56.957031 C 91.644531 55.1875 92.878906 53.804688 94.578125 53.304688 C 94.65625 52.574219 94.769531 51.878906 94.925781 51.148438 L 88.753906 50.996094 L 88.753906 51.148438 L 88.714844 51.109375 C 88.714844 51.109375 88.714844 51.109375 88.714844 51.148438 L 88.675781 51.148438 C 88.519531 51.148438 88.40625 51.109375 88.25 51.109375 L 87.710938 51.109375 C 87.480469 51.109375 87.246094 51.074219 87.015625 51.074219 L 86.902344 51.035156 L 86.824219 51.035156 L 86.785156 50.957031 L 81.113281 50.84375 C 80.921875 51.417969 80.804688 52.035156 80.6875 52.6875 L 80.6875 52.804688 L 80.652344 52.917969 C 80.6875 52.917969 80.726562 52.957031 80.765625 52.957031 L 80.882812 52.957031 C 82.078125 53.1875 83.160156 53.839844 83.851562 54.839844 C 84.085938 55.1875 84.277344 55.570312 84.429688 55.957031 C 84.703125 56.6875 84.777344 57.53125 84.664062 58.300781 C 84.277344 60.53125 82.347656 62.148438 80.070312 62.148438 C 79.800781 62.148438 79.53125 62.109375 79.300781 62.070312 C 78.722656 61.957031 78.179688 61.761719 77.71875 61.492188 C 77.179688 61.148438 76.675781 60.726562 76.292969 60.1875 C 75.558594 59.1875 75.289062 57.957031 75.480469 56.726562 C 75.789062 54.957031 77.023438 53.574219 78.722656 53.074219 C 78.796875 52.304688 78.914062 51.535156 79.109375 50.765625 L 69.113281 50.535156 L 65.140625 50.457031 C 64.988281 50.996094 64.871094 51.535156 64.792969 52.074219 L 64.792969 52.1875 L 64.753906 52.304688 L 64.949219 52.339844 C 66.183594 52.535156 67.226562 53.226562 67.957031 54.226562 C 68.691406 55.226562 68.960938 56.457031 68.769531 57.6875 C 68.652344 58.378906 68.382812 58.996094 67.996094 59.570312 C 67.957031 59.609375 67.957031 59.648438 67.917969 59.6875 C 67.03125 60.839844 65.644531 61.570312 64.175781 61.570312 C 63.90625 61.570312 63.636719 61.53125 63.40625 61.492188 C 62.441406 61.339844 61.59375 60.878906 60.9375 60.226562 L 60.820312 60.109375 C 60.742188 60.03125 60.703125 59.957031 60.628906 59.878906 C 60.550781 59.800781 60.472656 59.6875 60.433594 59.609375 C 60.320312 59.457031 60.203125 59.261719 60.085938 59.070312 C 59.738281 58.417969 59.546875 57.6875 59.546875 56.957031 C 59.546875 56.6875 59.585938 56.457031 59.625 56.148438 C 59.738281 55.457031 60.011719 54.804688 60.433594 54.226562 C 61.050781 53.378906 61.902344 52.765625 62.863281 52.496094 C 62.941406 51.804688 63.058594 51.109375 63.210938 50.378906 L 49.246094 50.074219 C 49.128906 50.535156 49.015625 51.035156 48.9375 51.535156 L 48.9375 51.648438 L 48.898438 51.765625 C 48.9375 51.804688 49.015625 51.804688 49.054688 51.804688 C 51.597656 52.226562 53.296875 54.648438 52.871094 57.148438 C 52.488281 59.378906 50.558594 60.992188 48.28125 60.992188 C 48.011719 60.992188 47.742188 60.957031 47.511719 60.917969 C 47.046875 60.839844 46.621094 60.6875 46.238281 60.496094 C 45.542969 60.148438 44.964844 59.648438 44.5 59.03125 C 43.769531 58.03125 43.496094 56.800781 43.691406 55.570312 C 44 53.804688 45.234375 52.417969 46.929688 51.917969 C 47.007812 51.304688 47.085938 50.648438 47.238281 49.996094 L 40.488281 49.84375 Z M 43.84375 63.6875 L 50.980469 64.070312 L 59.046875 64.53125 L 63.25 64.761719 L 67.648438 64.992188 L 67.878906 64.992188 L 69.269531 65.070312 L 86.902344 66.070312 L 87.941406 66.148438 L 106.617188 67.183594 L 123.242188 68.109375 L 140.296875 69.070312 L 140.375 69.070312 L 140.605469 69.109375 C 140.875 69.148438 141.144531 69.183594 141.414062 69.222656 C 141.414062 69.222656 141.414062 69.261719 141.414062 69.261719 C 141.300781 69.492188 141.222656 69.839844 141.105469 70.300781 L 141.027344 70.492188 L 136.746094 83.453125 L 136.285156 84.914062 L 135.667969 86.796875 L 133.660156 92.796875 L 131.652344 98.871094 L 129.03125 106.71875 L 127.292969 111.984375 L 126.792969 113.523438 L 126.019531 115.792969 L 118.535156 138.328125 C 118.5 138.441406 118.460938 138.519531 118.421875 138.632812 L 118.421875 138.710938 L 118.34375 138.867188 L 118.304688 138.980469 L 118.265625 139.132812 C 118.226562 139.210938 118.191406 139.328125 118.191406 139.402344 L 118.152344 139.480469 C 117.765625 139.402344 117.339844 139.367188 116.992188 139.328125 L 109.007812 138.75 L 100.480469 138.132812 L 81.035156 136.671875 L 59.933594 135.097656 L 58.699219 134.980469 L 58.660156 135.019531 L 58.738281 135.136719 L 58.234375 135.058594 L 57.617188 134.941406 L 57.195312 134.90625 L 56.808594 134.867188 L 50.441406 134.40625 L 44.847656 133.980469 C 36.59375 133.367188 28.375 132.75 20.117188 132.136719 L 20.15625 132.097656 L 20.117188 132.136719 L 20.234375 131.90625 C 20.273438 131.789062 20.3125 131.675781 20.386719 131.558594 L 20.464844 131.367188 C 20.503906 131.25 20.542969 131.136719 20.621094 131.019531 C 20.621094 130.980469 20.621094 130.945312 20.65625 130.90625 L 21.855469 127.328125 L 26.675781 112.640625 L 26.714844 112.523438 L 28.027344 108.5625 L 29.722656 103.371094 C 29.839844 102.988281 29.957031 102.601562 30.109375 102.21875 C 31.5 97.988281 32.886719 93.796875 34.277344 89.566406 L 34.394531 89.179688 L 34.664062 88.375 L 34.933594 87.566406 L 37.210938 80.683594 C 37.171875 80.644531 37.171875 80.644531 37.171875 80.644531 L 37.246094 80.453125 L 37.554688 79.566406 L 37.75 79.03125 L 37.828125 78.796875 L 38.40625 77.066406 L 42.570312 64.417969 C 42.570312 64.378906 42.609375 64.339844 42.609375 64.300781 C 42.6875 64.070312 42.726562 63.878906 42.804688 63.648438 C 42.878906 63.648438 42.917969 63.648438 42.957031 63.648438 L 43.113281 63.648438 C 43.1875 63.648438 43.265625 63.648438 43.34375 63.648438 L 43.382812 63.648438 L 43.304688 63.648438 C 43.34375 63.648438 43.421875 63.648438 43.460938 63.648438 L 43.535156 63.648438 C 43.652344 63.6875 43.769531 63.6875 43.84375 63.6875 Z M 43.84375 63.6875 " fill-opacity="1" fill-rule="nonzero"/></g><g clip-path="url(#2339ec005e)"><path fill="#ff005c" d="M 59.394531 40.152344 C 55.804688 40.265625 52.371094 41.882812 49.941406 44.574219 C 48.511719 46.1875 47.472656 48.1875 46.96875 50.34375 C 46.855469 50.996094 46.738281 51.648438 46.660156 52.265625 C 44.964844 52.765625 43.730469 54.148438 43.421875 55.917969 C 43.226562 57.148438 43.496094 58.339844 44.230469 59.378906 C 44.695312 59.996094 45.273438 60.496094 45.96875 60.839844 C 46.351562 61.03125 46.816406 61.1875 47.238281 61.261719 C 47.472656 61.300781 47.742188 61.339844 48.011719 61.339844 C 50.289062 61.339844 52.21875 59.726562 52.601562 57.496094 C 53.027344 54.996094 51.328125 52.574219 48.785156 52.148438 C 48.746094 52.148438 48.667969 52.148438 48.628906 52.109375 L 48.667969 51.996094 L 48.667969 51.878906 C 48.746094 51.378906 48.859375 50.878906 48.976562 50.417969 C 49.128906 49.917969 49.285156 49.417969 49.476562 48.957031 C 49.863281 48.113281 50.328125 47.265625 50.90625 46.535156 C 51.484375 45.765625 52.179688 45.074219 52.949219 44.496094 C 53.722656 43.921875 54.570312 43.421875 55.457031 43.035156 C 56.382812 42.691406 57.308594 42.421875 58.273438 42.265625 C 58.777344 42.191406 59.277344 42.191406 59.777344 42.191406 C 60.28125 42.191406 60.820312 42.226562 61.320312 42.265625 C 62.285156 42.421875 63.25 42.691406 64.136719 43.035156 C 64.988281 43.421875 65.835938 43.882812 66.570312 44.457031 C 66.375 44.613281 66.144531 44.84375 65.835938 45.152344 C 65.449219 45.574219 65.101562 46.035156 64.753906 46.535156 C 63.90625 47.804688 63.25 49.226562 62.902344 50.726562 C 62.75 51.457031 62.632812 52.148438 62.554688 52.839844 C 61.59375 53.109375 60.703125 53.726562 60.125 54.570312 C 59.703125 55.148438 59.429688 55.800781 59.316406 56.496094 C 59.277344 56.765625 59.238281 57.035156 59.238281 57.300781 C 59.238281 58.03125 59.429688 58.765625 59.777344 59.417969 C 59.894531 59.609375 59.972656 59.800781 60.125 59.957031 C 60.203125 60.070312 60.28125 60.148438 60.320312 60.226562 C 60.394531 60.300781 60.433594 60.378906 60.511719 60.457031 L 60.589844 60.53125 L 60.628906 60.570312 C 61.320312 61.226562 62.171875 61.6875 63.097656 61.839844 C 63.367188 61.878906 63.597656 61.917969 63.867188 61.917969 C 65.335938 61.917969 66.722656 61.226562 67.609375 60.03125 C 67.648438 59.996094 67.648438 59.957031 67.6875 59.917969 C 68.113281 59.339844 68.34375 58.6875 68.460938 58.03125 C 68.652344 56.800781 68.382812 55.609375 67.648438 54.570312 C 66.917969 53.574219 65.875 52.878906 64.640625 52.6875 L 64.445312 52.648438 L 64.484375 52.535156 L 64.484375 52.417969 C 64.5625 51.878906 64.679688 51.34375 64.832031 50.804688 C 64.988281 50.34375 65.140625 49.917969 65.296875 49.496094 C 65.605469 48.804688 65.953125 48.148438 66.375 47.535156 C 66.492188 47.382812 66.570312 47.265625 66.683594 47.113281 C 67.070312 46.613281 67.496094 46.152344 67.917969 45.765625 L 68.035156 45.917969 L 68.113281 45.996094 C 68.265625 46.1875 68.421875 46.34375 68.535156 46.496094 C 69.113281 47.265625 69.617188 48.148438 70.042969 49.035156 C 70.273438 49.613281 70.464844 50.1875 70.621094 50.84375 L 70.734375 50.84375 C 71.003906 50.84375 71.277344 50.878906 71.546875 50.878906 L 72.125 50.878906 C 72.316406 50.878906 72.472656 50.878906 72.664062 50.878906 C 72.546875 50.148438 72.355469 49.378906 72.046875 48.613281 C 71.816406 47.957031 71.507812 47.304688 71.121094 46.6875 C 70.773438 46.035156 70.351562 45.496094 69.925781 44.957031 C 69.769531 44.765625 69.617188 44.613281 69.460938 44.421875 C 70.117188 44.035156 70.734375 43.726562 71.277344 43.496094 C 72.164062 43.152344 73.128906 42.882812 74.09375 42.726562 C 74.59375 42.652344 75.09375 42.652344 75.597656 42.652344 C 76.097656 42.652344 76.636719 42.691406 77.140625 42.726562 C 78.105469 42.882812 79.070312 43.152344 79.957031 43.496094 C 80.804688 43.882812 81.652344 44.34375 82.386719 44.921875 C 82.195312 45.074219 81.960938 45.304688 81.652344 45.613281 C 80.304688 47.113281 79.300781 48.996094 78.796875 50.996094 C 78.605469 51.765625 78.488281 52.535156 78.414062 53.304688 C 76.714844 53.804688 75.480469 55.1875 75.171875 56.957031 C 74.980469 58.1875 75.25 59.378906 75.984375 60.417969 C 76.367188 60.957031 76.832031 61.378906 77.410156 61.726562 C 77.910156 62.03125 78.414062 62.226562 78.992188 62.300781 C 79.261719 62.339844 79.492188 62.378906 79.761719 62.378906 C 82.039062 62.378906 83.96875 60.761719 84.355469 58.53125 C 84.46875 57.765625 84.429688 56.917969 84.121094 56.1875 C 83.96875 55.800781 83.777344 55.417969 83.542969 55.070312 C 82.851562 54.070312 81.769531 53.417969 80.574219 53.1875 L 80.457031 53.1875 C 80.417969 53.1875 80.378906 53.148438 80.34375 53.148438 L 80.378906 53.035156 L 80.378906 52.917969 C 80.457031 52.304688 80.613281 51.6875 80.804688 51.074219 C 80.921875 50.6875 81.074219 50.304688 81.191406 49.996094 C 81.578125 49.148438 82.039062 48.34375 82.617188 47.574219 C 82.964844 47.113281 83.390625 46.6875 83.851562 46.265625 L 84.007812 46.457031 C 84.199219 46.652344 84.355469 46.84375 84.46875 47.035156 C 85.050781 47.804688 85.550781 48.6875 85.976562 49.574219 C 86.167969 50.074219 86.359375 50.574219 86.476562 51.109375 L 86.515625 51.226562 L 86.554688 51.304688 L 86.746094 51.34375 C 86.976562 51.34375 87.210938 51.378906 87.441406 51.378906 L 87.980469 51.378906 C 88.097656 51.378906 88.25 51.378906 88.40625 51.417969 L 88.445312 51.417969 C 88.445312 51.417969 88.445312 51.417969 88.445312 51.378906 L 88.484375 51.417969 L 88.484375 51.304688 C 88.40625 50.996094 88.328125 50.6875 88.25 50.417969 C 88.175781 50.035156 88.019531 49.613281 87.867188 49.1875 C 87.632812 48.535156 87.324219 47.882812 86.9375 47.265625 C 86.59375 46.652344 86.128906 46.035156 85.742188 45.535156 C 85.589844 45.34375 85.433594 45.1875 85.28125 44.996094 C 85.9375 44.613281 86.554688 44.304688 87.09375 44.074219 C 88.019531 43.6875 88.945312 43.457031 89.910156 43.304688 C 90.410156 43.226562 90.914062 43.226562 91.414062 43.226562 C 91.917969 43.226562 92.457031 43.265625 92.957031 43.304688 C 93.921875 43.457031 94.886719 43.726562 95.773438 44.074219 C 96.546875 44.421875 97.316406 44.84375 98.050781 45.34375 C 97.933594 45.417969 97.78125 45.574219 97.511719 45.84375 C 96.121094 47.417969 95.117188 49.304688 94.617188 51.378906 C 94.460938 52.109375 94.347656 52.839844 94.269531 53.535156 C 92.570312 54.035156 91.335938 55.417969 91.027344 57.148438 C 90.992188 57.417969 90.953125 57.6875 90.953125 57.957031 C 90.953125 58.917969 91.261719 59.839844 91.800781 60.609375 C 91.953125 60.800781 92.109375 60.992188 92.300781 61.1875 C 92.765625 61.609375 93.265625 61.957031 93.84375 62.1875 C 94.152344 62.300781 94.5 62.417969 94.847656 62.457031 C 95.117188 62.492188 95.351562 62.53125 95.621094 62.53125 C 97.894531 62.53125 99.824219 60.917969 100.210938 58.6875 C 100.328125 57.957031 100.289062 57.265625 100.058594 56.570312 C 99.902344 56.109375 99.710938 55.648438 99.402344 55.265625 C 98.785156 54.378906 97.894531 53.765625 96.855469 53.496094 C 96.699219 53.457031 96.546875 53.417969 96.390625 53.378906 C 96.351562 53.378906 96.277344 53.378906 96.238281 53.339844 L 96.277344 53.1875 L 96.277344 53.074219 C 96.351562 52.496094 96.507812 51.917969 96.660156 51.378906 C 96.777344 50.957031 96.933594 50.535156 97.085938 50.148438 C 97.472656 49.265625 97.933594 48.457031 98.511719 47.726562 C 98.820312 47.34375 99.167969 46.917969 99.554688 46.574219 C 99.902344 46.996094 100.132812 47.265625 100.328125 47.496094 C 100.90625 48.265625 101.40625 49.148438 101.832031 50.035156 C 102.023438 50.496094 102.179688 50.996094 102.332031 51.535156 C 102.332031 51.535156 102.332031 51.574219 102.332031 51.574219 L 102.71875 51.574219 C 103.105469 51.574219 103.566406 51.574219 104.03125 51.609375 L 104.183594 51.609375 L 104.300781 51.648438 L 104.339844 51.574219 C 104.222656 50.957031 104.03125 50.34375 103.800781 49.6875 C 103.527344 49.035156 103.21875 48.382812 102.871094 47.765625 C 102.527344 47.113281 102.0625 46.535156 101.675781 46.035156 C 101.484375 45.804688 101.253906 45.535156 101.058594 45.304688 C 101.753906 44.882812 102.449219 44.496094 103.105469 44.226562 C 104.03125 43.882812 104.957031 43.613281 105.921875 43.457031 C 106.421875 43.382812 106.925781 43.382812 107.464844 43.382812 C 107.964844 43.382812 108.503906 43.421875 109.007812 43.457031 C 109.972656 43.613281 110.898438 43.882812 111.824219 44.226562 C 112.710938 44.613281 113.519531 45.074219 114.253906 45.652344 C 114.0625 45.804688 113.792969 46.035156 113.484375 46.382812 C 112.132812 47.882812 111.167969 49.726562 110.628906 51.726562 C 110.433594 52.496094 110.320312 53.304688 110.203125 54.109375 C 108.503906 54.609375 107.269531 55.996094 106.960938 57.765625 C 106.925781 58.03125 106.886719 58.300781 106.886719 58.570312 C 106.886719 59.53125 107.195312 60.457031 107.734375 61.226562 C 108.234375 61.917969 108.890625 62.457031 109.664062 62.800781 C 110.011719 62.957031 110.359375 63.03125 110.742188 63.109375 C 111.011719 63.148438 111.246094 63.1875 111.515625 63.1875 C 113.792969 63.1875 115.71875 61.570312 116.105469 59.339844 C 116.261719 58.53125 116.183594 57.726562 115.875 56.996094 C 115.71875 56.609375 115.527344 56.226562 115.296875 55.917969 C 114.601562 54.957031 113.558594 54.265625 112.363281 54.035156 L 112.25 53.996094 C 112.210938 53.996094 112.132812 53.996094 112.09375 53.957031 L 112.132812 53.804688 L 112.132812 53.6875 C 112.25 53.035156 112.363281 52.417969 112.558594 51.804688 C 112.671875 51.457031 112.789062 51.109375 112.941406 50.765625 C 113.328125 49.917969 113.792969 49.074219 114.371094 48.34375 C 114.753906 47.84375 115.179688 47.382812 115.605469 46.996094 L 115.757812 47.226562 C 115.914062 47.417969 116.066406 47.574219 116.183594 47.765625 C 116.761719 48.535156 117.261719 49.378906 117.6875 50.304688 C 117.878906 50.804688 118.074219 51.378906 118.226562 51.957031 L 118.265625 52.074219 L 118.460938 52.109375 L 118.574219 52.109375 C 118.769531 52.109375 118.960938 52.109375 119.152344 52.148438 C 119.308594 52.148438 119.425781 52.1875 119.578125 52.1875 C 119.617188 52.1875 119.65625 52.1875 119.734375 52.1875 C 119.886719 52.1875 120.078125 52.1875 120.234375 52.226562 L 120.273438 52.148438 C 120.273438 52.074219 120.273438 52.035156 120.273438 51.996094 C 120.15625 51.304688 119.964844 50.609375 119.695312 49.957031 C 119.425781 49.304688 119.117188 48.648438 118.769531 48.035156 C 118.421875 47.382812 117.957031 46.804688 117.570312 46.304688 C 117.417969 46.113281 117.261719 45.957031 117.109375 45.765625 C 117.726562 45.417969 118.34375 45.074219 118.921875 44.84375 C 119.847656 44.496094 120.773438 44.226562 121.738281 44.074219 C 122.242188 43.996094 122.742188 43.996094 123.242188 43.996094 C 123.746094 43.996094 124.285156 44.035156 124.785156 44.074219 C 125.75 44.226562 126.714844 44.496094 127.601562 44.84375 C 128.492188 45.226562 129.339844 45.726562 130.109375 46.304688 L 130.265625 46.417969 C 129.917969 46.6875 129.53125 47.035156 129.144531 47.496094 C 127.988281 48.804688 127.0625 50.417969 126.484375 52.109375 C 126.175781 53.109375 125.984375 54.148438 125.867188 55.1875 C 124.167969 55.6875 122.933594 57.070312 122.625 58.800781 C 122.433594 60.03125 122.703125 61.226562 123.4375 62.261719 C 123.820312 62.800781 124.285156 63.222656 124.863281 63.570312 C 125.367188 63.878906 125.867188 64.070312 126.445312 64.148438 C 126.714844 64.1875 126.945312 64.222656 127.21875 64.222656 C 129.492188 64.222656 131.421875 62.609375 131.808594 60.378906 C 131.960938 59.570312 131.886719 58.765625 131.578125 58.03125 C 131.421875 57.648438 131.230469 57.265625 131 56.957031 C 130.265625 55.957031 129.222656 55.265625 127.988281 55.070312 L 127.796875 55.035156 L 128.183594 54.765625 L 128.183594 54.648438 C 128.296875 53.765625 128.527344 52.878906 128.875 52.035156 C 128.914062 51.957031 128.953125 51.878906 128.953125 51.804688 L 128.992188 51.6875 C 129.378906 50.84375 129.839844 49.996094 130.417969 49.265625 C 130.882812 48.648438 131.421875 48.113281 132 47.613281 L 132 47.648438 C 132.15625 47.804688 132.308594 47.996094 132.425781 48.148438 C 133.003906 48.917969 133.507812 49.804688 133.929688 50.6875 C 134.125 51.148438 134.277344 51.648438 134.394531 52.109375 L 134.433594 52.226562 L 134.664062 52.226562 C 135.125 52.226562 135.628906 52.226562 136.128906 52.265625 L 136.285156 52.265625 L 136.398438 52.304688 L 136.4375 52.148438 C 136.324219 51.535156 136.128906 50.917969 135.898438 50.304688 C 135.628906 49.648438 135.320312 48.996094 134.972656 48.382812 C 134.625 47.726562 134.199219 47.1875 133.777344 46.652344 L 133.699219 46.535156 C 133.660156 46.457031 133.582031 46.417969 133.542969 46.34375 C 134.125 46.035156 134.585938 45.84375 134.933594 45.652344 C 135.859375 45.304688 136.785156 45.035156 137.75 44.882812 C 138.25 44.804688 138.753906 44.804688 139.253906 44.804688 C 139.757812 44.804688 140.296875 44.84375 140.796875 44.882812 C 141.761719 45.035156 142.726562 45.304688 143.613281 45.652344 C 144.460938 46.035156 145.3125 46.496094 146.042969 47.074219 C 145.851562 47.226562 145.621094 47.457031 145.273438 47.804688 C 144.152344 49.074219 143.265625 50.574219 142.6875 52.226562 C 142.339844 53.304688 142.109375 54.417969 141.992188 55.535156 C 140.296875 56.035156 139.0625 57.417969 138.753906 59.148438 C 138.714844 59.417969 138.675781 59.6875 138.675781 59.957031 C 138.675781 60.917969 138.984375 61.839844 139.523438 62.609375 C 139.679688 62.800781 139.832031 62.992188 140.027344 63.1875 C 140.449219 63.609375 140.992188 63.957031 141.570312 64.1875 C 141.878906 64.300781 142.226562 64.417969 142.574219 64.453125 C 142.84375 64.492188 143.074219 64.53125 143.34375 64.53125 C 145.621094 64.53125 147.550781 62.917969 147.933594 60.6875 C 148.089844 59.878906 148.011719 59.070312 147.703125 58.339844 C 147.550781 57.957031 147.355469 57.570312 147.125 57.265625 C 146.390625 56.265625 145.3125 55.570312 144.078125 55.378906 C 144.039062 55.378906 144 55.378906 143.921875 55.339844 L 143.960938 55.1875 L 143.960938 55.070312 C 144.117188 54.070312 144.386719 53.148438 144.734375 52.265625 L 144.769531 52.226562 L 144.808594 52.148438 C 145.195312 51.304688 145.660156 50.457031 146.238281 49.726562 C 146.625 49.226562 147.046875 48.804688 147.472656 48.382812 L 147.585938 48.535156 C 147.78125 48.765625 147.933594 48.957031 148.089844 49.148438 C 148.667969 49.917969 149.167969 50.765625 149.59375 51.6875 C 149.671875 51.917969 149.785156 52.148438 149.863281 52.417969 L 149.902344 52.496094 L 150.867188 52.574219 L 151.753906 52.609375 L 151.949219 52.609375 L 151.949219 52.457031 C 151.871094 52.109375 151.753906 51.765625 151.601562 51.34375 C 151.367188 50.6875 151.058594 50.074219 150.675781 49.417969 C 150.289062 48.765625 149.863281 48.1875 149.476562 47.6875 C 149.324219 47.496094 149.167969 47.34375 149.015625 47.148438 C 149.671875 46.765625 150.289062 46.457031 150.828125 46.226562 C 151.753906 45.882812 152.679688 45.613281 153.644531 45.457031 C 154.109375 45.382812 154.648438 45.382812 155.1875 45.382812 C 155.691406 45.382812 156.230469 45.417969 156.730469 45.457031 C 157.695312 45.613281 158.660156 45.882812 159.546875 46.226562 C 160.433594 46.613281 161.285156 47.113281 162.054688 47.6875 C 162.789062 48.265625 163.484375 48.957031 164.0625 49.6875 C 164.640625 50.457031 165.140625 51.34375 165.566406 52.226562 C 165.914062 53.148438 166.183594 54.109375 166.335938 55.070312 C 166.453125 56.070312 166.453125 57.070312 166.335938 58.03125 C 166.183594 59.03125 165.914062 59.996094 165.566406 60.878906 C 165.257812 61.570312 164.910156 62.1875 164.484375 62.800781 L 164.484375 62.839844 L 164.410156 62.917969 L 164.449219 62.992188 L 164.523438 63.222656 L 164.601562 63.417969 L 164.757812 63.957031 L 164.871094 64.339844 L 164.910156 64.417969 C 164.949219 64.53125 164.988281 64.6875 165.027344 64.800781 L 165.066406 64.953125 L 165.066406 65.070312 L 165.101562 65.03125 L 165.140625 64.992188 C 165.605469 64.53125 166.027344 63.992188 166.414062 63.378906 C 167.03125 62.417969 167.535156 61.300781 167.882812 60.070312 C 168.304688 58.726562 168.460938 57.226562 168.382812 55.726562 C 168.304688 54.339844 168.035156 52.996094 167.535156 51.726562 C 167.300781 51.074219 166.992188 50.417969 166.609375 49.804688 C 166.222656 49.148438 165.757812 48.535156 165.410156 48.074219 C 164.601562 47.074219 163.597656 46.152344 162.402344 45.382812 C 161.359375 44.6875 160.164062 44.152344 158.851562 43.765625 C 157.695312 43.421875 156.460938 43.265625 155.1875 43.265625 C 155.035156 43.265625 154.917969 43.265625 154.800781 43.265625 C 152.292969 43.34375 149.75 44.1875 147.625 45.6875 C 147.316406 45.417969 146.933594 45.113281 146.507812 44.84375 C 145.503906 44.152344 144.269531 43.613281 142.957031 43.226562 C 141.800781 42.882812 140.566406 42.726562 139.292969 42.726562 C 139.136719 42.726562 139.023438 42.726562 138.90625 42.726562 C 136.554688 42.804688 134.238281 43.535156 132.15625 44.84375 C 131.769531 44.496094 131.308594 44.152344 130.804688 43.804688 C 129.761719 43.113281 128.566406 42.574219 127.253906 42.191406 C 126.097656 41.84375 124.863281 41.691406 123.589844 41.691406 C 123.476562 41.691406 123.320312 41.691406 123.203125 41.691406 C 120.695312 41.765625 118.152344 42.613281 116.027344 44.113281 C 115.71875 43.84375 115.335938 43.574219 114.910156 43.265625 C 113.867188 42.574219 112.671875 42.035156 111.359375 41.652344 C 110.203125 41.304688 108.96875 41.152344 107.695312 41.152344 C 107.578125 41.152344 107.425781 41.152344 107.308594 41.152344 C 104.6875 41.226562 102.0625 42.152344 99.863281 43.765625 C 99.632812 43.574219 99.363281 43.34375 98.976562 43.113281 C 97.933594 42.421875 96.738281 41.882812 95.425781 41.496094 C 94.269531 41.152344 93.035156 40.996094 91.761719 40.996094 C 91.644531 40.996094 91.492188 40.996094 91.375 40.996094 C 88.867188 41.074219 86.320312 41.921875 84.199219 43.421875 C 83.929688 43.152344 83.542969 42.882812 83.082031 42.574219 C 82.039062 41.882812 80.84375 41.34375 79.53125 40.960938 C 78.375 40.613281 77.140625 40.460938 75.867188 40.460938 C 75.75 40.460938 75.597656 40.460938 75.480469 40.460938 C 72.972656 40.535156 70.386719 41.382812 68.265625 42.921875 C 67.957031 42.652344 67.570312 42.382812 67.148438 42.074219 C 66.105469 41.382812 64.910156 40.84375 63.597656 40.460938 C 62.441406 40.113281 61.207031 39.960938 59.933594 39.960938 C 59.664062 40.152344 59.546875 40.152344 59.394531 40.152344 Z M 59.394531 40.152344 " fill-opacity="1" fill-rule="nonzero"/></g><g clip-path="url(#3a10703288)"><path fill="#00b1c1" d="M 161.863281 53.726562 C 161.785156 53.996094 161.667969 54.1875 161.476562 54.304688 L 161.476562 54.378906 L 161.4375 54.535156 C 161.246094 55.1875 161.050781 55.800781 160.859375 56.457031 L 158.582031 64.222656 L 157.617188 67.453125 L 157.617188 67.492188 L 156.269531 72.109375 L 154.917969 76.722656 C 154.339844 78.722656 153.722656 80.722656 153.144531 82.757812 L 150.984375 90.105469 L 150.945312 90.296875 L 150.210938 92.796875 L 149.476562 95.335938 C 147.164062 103.179688 144.847656 111.023438 142.535156 118.867188 L 141.066406 123.789062 L 141.261719 123.828125 L 141.992188 123.984375 L 154.417969 126.789062 L 154.957031 126.90625 L 155.535156 127.019531 C 162.941406 128.675781 173.050781 130.945312 182.464844 133.058594 L 182.503906 133.058594 L 182.695312 133.097656 L 182.773438 133.136719 L 182.925781 133.136719 L 183.160156 133.175781 L 183.199219 133.175781 L 184.585938 133.480469 L 184.972656 133.558594 L 185.089844 133.597656 L 185.242188 133.597656 L 185.359375 133.636719 L 185.433594 133.636719 L 185.398438 133.519531 L 185.359375 133.441406 C 185.359375 133.441406 185.359375 133.40625 185.359375 133.40625 L 185.359375 133.328125 L 185.320312 133.25 L 180.1875 115.792969 L 176.214844 102.257812 L 172.472656 89.449219 L 167.535156 73.03125 L 167.535156 72.992188 L 167.1875 71.875 L 166.839844 70.722656 L 166.722656 70.339844 L 166.648438 70.03125 L 166.609375 69.914062 L 165.257812 65.261719 L 165.179688 65.300781 L 165.140625 65.339844 L 165.140625 65.1875 L 165.101562 65.03125 C 165.066406 64.917969 165.027344 64.761719 164.988281 64.648438 L 164.949219 64.570312 L 164.832031 64.1875 L 164.679688 63.648438 L 164.601562 63.457031 L 164.523438 63.222656 L 164.484375 63.148438 L 164.5625 63.070312 L 162.710938 56.765625 L 162.210938 55.070312 Z M 161.863281 53.726562 " fill-opacity="1" fill-rule="nonzero"/></g><g clip-path="url(#e0db2838d1)"><path fill="#0185b8" d="M 140.953125 123.789062 L 137.480469 135.519531 L 133.195312 150.054688 C 133.195312 150.09375 133.195312 150.09375 133.160156 150.171875 C 133.160156 150.210938 133.160156 150.210938 133.121094 150.246094 L 133.121094 150.324219 C 133.003906 150.632812 132.925781 150.941406 132.8125 151.246094 C 133.3125 151.09375 133.777344 150.941406 134.238281 150.785156 L 134.316406 150.746094 L 134.355469 150.746094 L 136.398438 150.054688 L 140.101562 148.824219 L 145.042969 147.171875 L 146.660156 146.632812 L 148.28125 146.09375 L 153.027344 144.519531 L 167.496094 139.710938 L 167.917969 139.558594 L 168.5 139.363281 C 174.09375 137.480469 179.6875 135.636719 185.28125 133.75 L 185.242188 133.75 L 185.28125 133.75 C 185.28125 133.75 185.320312 133.75 185.320312 133.75 C 185.320312 133.75 185.320312 133.710938 185.320312 133.710938 L 185.242188 133.710938 L 185.125 133.675781 L 184.933594 133.675781 L 184.816406 133.636719 L 184.433594 133.558594 L 183.042969 133.25 L 183.003906 133.25 L 182.773438 133.210938 L 182.617188 133.210938 L 182.542969 133.175781 L 182.347656 133.136719 L 182.308594 133.136719 C 172.933594 131.058594 162.789062 128.789062 155.382812 127.097656 L 154.800781 126.984375 L 154.261719 126.867188 L 141.839844 124.058594 L 141.105469 123.90625 Z M 140.953125 123.789062 " fill-opacity="1" fill-rule="nonzero"/></g></svg>