<svg xmlns="http://www.w3.org/2000/svg" xmlns:xlink="http://www.w3.org/1999/xlink" width="256" zoomAndPan="magnify" viewBox="0 0 192 191.999996" height="256" preserveAspectRatio="xMidYMid meet" version="1.0"><defs><clipPath id="4fa30f4bd0"><path d="M 12.378906 21 L 166 21 L 166 172 L 12.378906 172 Z M 12.378906 21 " clip-rule="nonzero"/></clipPath><clipPath id="09720878a3"><path d="M 20 14.46875 L 112 14.46875 L 112 51 L 20 51 Z M 20 14.46875 " clip-rule="nonzero"/></clipPath></defs><rect x="-19.2" width="230.4" fill="#ffffff" y="-19.2" height="230.399995" fill-opacity="1"/><rect x="-19.2" width="230.4" fill="#ffffff" y="-19.2" height="230.399995" fill-opacity="1"/><g clip-path="url(#4fa30f4bd0)"><path fill="#d6956a" d="M 165.453125 146.496094 C 153.421875 147.085938 142.429688 152.496094 131.703125 157.503906 C 123.695312 161.242188 115.378906 164.246094 106.988281 166.996094 C 100.71875 169.039062 94.292969 171.703125 87.558594 171.269531 C 81.058594 170.863281 75.523438 167.183594 70.5 163.328125 C 63.421875 157.886719 57.503906 151.214844 52.816406 143.636719 C 35.425781 115.507812 13.949219 84.261719 12.589844 50.164062 C 12.386719 44.960938 12.777344 37.65625 17.667969 34.5 C 18.050781 34.261719 18.453125 34.027344 18.859375 33.828125 C 19.667969 33.425781 20.535156 33.113281 21.414062 32.828125 C 43.492188 31.414062 72.71875 24.671875 85.746094 21.425781 C 86.925781 21.425781 88.097656 21.457031 89.257812 21.507812 C 93.25 21.671875 95.101562 22.894531 95.628906 26.804688 C 96.128906 30.472656 96.425781 34.109375 96.789062 37.75 C 97.222656 41.984375 97.75 46.199219 98.816406 50.410156 C 100.882812 58.589844 103.855469 66.527344 107.324219 74.222656 C 112.132812 84.882812 117.9375 95.074219 124.03125 105.046875 C 126.988281 109.871094 130 114.683594 133.726562 118.957031 C 142.933594 129.523438 155.9375 136.183594 165.445312 146.496094 Z M 165.453125 146.496094 " fill-opacity="1" fill-rule="nonzero"/></g><path fill="#ddba90" d="M 167.539062 145.339844 C 155.503906 145.929688 144.515625 151.335938 133.789062 156.347656 C 125.78125 160.082031 117.464844 163.089844 109.074219 165.835938 C 102.804688 167.882812 96.378906 170.542969 89.644531 170.109375 C 83.144531 169.707031 77.609375 166.023438 72.582031 162.171875 C 65.507812 156.726562 59.589844 150.054688 54.902344 142.480469 C 37.511719 114.351562 16.035156 83.105469 14.675781 49.007812 C 14.472656 43.804688 14.863281 36.5 19.753906 33.34375 C 20.136719 33.101562 20.539062 32.871094 20.945312 32.671875 C 21.753906 32.265625 22.621094 31.957031 23.5 31.671875 C 45.578125 30.253906 74.804688 23.515625 87.832031 20.269531 C 89.011719 20.269531 90.179688 20.296875 91.339844 20.351562 C 95.335938 20.515625 97.1875 21.738281 97.714844 25.648438 C 98.214844 29.316406 98.511719 32.949219 98.875 36.59375 C 99.308594 40.828125 99.835938 45.042969 100.902344 49.253906 C 102.96875 57.433594 105.941406 65.371094 109.40625 73.066406 C 114.21875 83.726562 120.023438 93.914062 126.117188 103.890625 C 129.074219 108.714844 132.085938 113.527344 135.8125 117.800781 C 145.019531 128.363281 158.023438 135.023438 167.53125 145.339844 Z M 167.539062 145.339844 " fill-opacity="1" fill-rule="nonzero"/><path fill="#f9debb" d="M 168.78125 144.863281 C 168.632812 146.601562 151.84375 153.609375 133.84375 159.867188 L 133.84375 159.878906 L 133.191406 160.09375 C 114.691406 166.496094 95.109375 172.023438 91.082031 170.164062 C 91.082031 170.164062 100.589844 153.734375 87.558594 146.640625 C 87.558594 146.640625 105.289062 144.699219 123.035156 140.074219 C 123.304688 140.003906 123.5625 139.941406 123.820312 139.871094 C 137.527344 136.246094 151.070312 131 156.324219 123.84375 C 156.324219 123.84375 162.253906 123.253906 163.445312 129.171875 L 160.1875 132.136719 L 163.445312 131.835938 C 163.515625 131.835938 167.480469 131.847656 167.539062 135.234375 L 167.589844 138.644531 L 163.742188 138.644531 L 167.539062 140.128906 C 167.539062 140.128906 169.078125 141.304688 168.78125 144.859375 Z M 168.78125 144.863281 " fill-opacity="1" fill-rule="nonzero"/><path fill="#cc9165" d="M 94.113281 161.644531 C 91.277344 164.433594 84.886719 163.800781 83.703125 162.800781 C 82.511719 161.820312 82.917969 160.242188 82.917969 160.242188 L 84.09375 158.664062 C 84.09375 158.664062 82.324219 160.046875 81.734375 158.664062 C 81.140625 157.289062 81.734375 154.324219 81.734375 154.324219 L 84.300781 154.324219 L 81.734375 153.136719 C 81.734375 147.8125 88.472656 147.179688 88.472656 147.179688 C 88.472656 147.179688 96.777344 150.949219 94.117188 161.644531 Z M 94.113281 161.644531 " fill-opacity="1" fill-rule="nonzero"/><path fill="#cc9165" d="M 18.207031 35.167969 C 17.597656 36.332031 17.441406 37.667969 17.289062 38.980469 C 17.253906 39.304688 17.230469 39.679688 17.457031 39.914062 C 17.957031 40.433594 19.167969 39.855469 19.390625 40.535156 C 18.382812 40.445312 17.621094 41.675781 17.925781 42.640625 C 18.230469 43.605469 19.261719 44.183594 20.269531 44.257812 C 19.480469 44.765625 19.105469 45.765625 19.175781 46.703125 C 19.246094 47.636719 19.707031 48.507812 20.304688 49.234375 C 20.792969 49.824219 21.394531 50.363281 22.132812 50.566406 C 23.324219 50.894531 24.558594 50.320312 25.628906 49.726562 C 27.265625 48.820312 28.851562 47.820312 30.375 46.730469 C 31.71875 45.777344 33.023438 44.742188 34.011719 43.433594 C 35.003906 42.125 35.660156 40.5 35.535156 38.863281 C 35.359375 36.511719 33.59375 34.496094 31.460938 33.472656 C 29.328125 32.449219 26.894531 32.265625 24.535156 32.324219 C 22.304688 32.382812 19.332031 33.027344 18.207031 35.167969 Z M 18.207031 35.167969 " fill-opacity="1" fill-rule="nonzero"/><g clip-path="url(#09720878a3)"><path fill="#f9debb" d="M 109.496094 37.453125 C 106.539062 36.804688 102.933594 36.554688 98.882812 36.585938 C 71.265625 36.804688 23.230469 50.765625 23.230469 50.765625 C 23.230469 50.765625 21.148438 51.066406 25.308594 47.8125 C 29.457031 44.550781 28.566406 44.550781 28.566406 44.550781 L 28.863281 43.082031 L 32.726562 41.597656 L 27.078125 41.597656 L 25.007812 38.335938 L 29.75 35.816406 L 23.457031 35.816406 L 20.945312 32.664062 L 20.269531 31.828125 C 21.324219 31.789062 22.402344 31.734375 23.5 31.664062 C 45.578125 30.25 74.804688 23.507812 87.832031 20.261719 C 92.097656 19.210938 94.640625 18.527344 94.640625 18.527344 L 104.457031 14.675781 C 116.015625 20.589844 109.496094 37.453125 109.496094 37.453125 Z M 109.496094 37.453125 " fill-opacity="1" fill-rule="nonzero"/></g><path stroke-linecap="butt" transform="matrix(0.585814, 0, 0, 0.584679, -70.92326, -40.502033)" fill="none" stroke-linejoin="miter" d="M 169.818061 168.111291 C 173.612192 163.006992 181.827252 165.211729 187.541786 162.439106 C 191.442606 160.548377 194.143174 156.319292 198.390734 155.510888 C 203.358445 154.562184 208.039429 158.717778 213.100492 158.490623 C 217.001312 158.310236 220.308674 155.557655 224.102805 154.642356 C 228.950491 153.459815 234.111576 155.370587 238.99927 154.401839 C 245.407284 153.139126 250.061595 147.259829 256.382924 145.569531 C 263.277707 143.718889 271.559448 146.999269 277.300654 142.730098 " stroke="#875b3c" stroke-width="0.25" stroke-opacity="1" stroke-miterlimit="10"/><path stroke-linecap="butt" transform="matrix(0.585814, 0, 0, 0.584679, -70.92326, -40.502033)" fill="none" stroke-linejoin="miter" d="M 173.512171 179.008034 C 176.359436 176.990366 179.740146 175.720973 183.220878 175.360197 C 183.901021 175.286706 184.601168 175.253301 185.227967 174.979379 C 186.208173 174.558475 186.881648 173.629813 187.781837 173.068608 C 189.22214 172.16667 191.04919 172.286928 192.749548 172.266885 C 194.449905 172.246842 196.370309 171.932834 197.337179 170.52982 " stroke="#875b3c" stroke-width="0.25" stroke-opacity="1" stroke-miterlimit="10"/><path stroke-linecap="butt" transform="matrix(0.585814, 0, 0, 0.584679, -70.92326, -40.502033)" fill="none" stroke-linejoin="miter" d="M 207.659349 167.737154 C 210.653311 168.411937 213.827312 168.178101 216.701249 167.089095 C 218.041531 166.581338 219.301796 165.899874 220.66875 165.492332 C 224.242835 164.416687 228.130318 165.331987 231.757748 164.510222 C 235.798597 163.588241 239.279329 160.588463 243.420199 160.421438 C 244.407073 160.381352 245.407284 160.50161 246.38749 160.401395 C 248.041171 160.221007 249.601499 159.352475 250.621713 158.049676 " stroke="#875b3c" stroke-width="0.25" stroke-opacity="1" stroke-miterlimit="10"/><path stroke-linecap="butt" transform="matrix(0.585814, 0, 0, 0.584679, -70.92326, -40.502033)" fill="none" stroke-linejoin="miter" d="M 258.976803 157.167781 C 259.856988 155.958517 261.417316 155.430716 262.910963 155.25701 C 264.397942 155.089984 265.918262 155.230286 267.398573 155.003131 C 271.712813 154.34171 275.506944 150.707235 279.807848 151.408742 " stroke="#875b3c" stroke-width="0.25" stroke-opacity="1" stroke-miterlimit="10"/><path stroke-linecap="butt" transform="matrix(0.585814, 0, 0, 0.584679, -70.92326, -40.502033)" fill="none" stroke-linejoin="miter" d="M 177.939768 187.847023 C 182.820794 186.250259 187.741828 184.626772 192.162758 182.021174 C 193.883119 180.998978 195.5368 179.8298 197.417196 179.161698 C 200.391154 178.099416 203.631835 178.380018 206.779164 178.239717 C 220.088628 177.651787 232.351206 169.427452 245.680674 169.781546 " stroke="#875b3c" stroke-width="0.25" stroke-opacity="1" stroke-miterlimit="10"/><path stroke-linecap="butt" transform="matrix(0.585814, 0, 0, 0.584679, -70.92326, -40.502033)" fill="none" stroke-linejoin="miter" d="M 254.729243 167.169267 C 256.129537 166.060218 258.103286 166.260649 259.876992 166.160434 C 262.537551 166.00677 265.078085 165.078108 267.578611 164.149447 C 269.779073 163.341043 271.979536 162.519278 274.17333 161.710874 C 274.806797 161.470358 275.466936 161.22316 275.940368 160.728765 C 276.260436 160.401395 276.467146 159.98049 276.807217 159.679845 C 277.920785 158.691054 279.681155 159.399242 281.14813 159.138682 " stroke="#875b3c" stroke-width="0.25" stroke-opacity="1" stroke-miterlimit="10"/><path stroke-linecap="butt" transform="matrix(0.585814, 0, 0, 0.584679, -70.92326, -40.502033)" fill="none" stroke-linejoin="miter" d="M 182.140651 196.41209 C 184.361118 193.879984 187.721824 192.396797 191.069195 192.470289 C 192.082741 192.490332 193.12296 192.637314 194.08983 192.356711 C 196.270288 191.742058 197.450536 189.20327 199.597654 188.48172 C 201.7181 187.766851 204.218625 189.022883 206.219046 188.040773 C 207.319277 187.49961 208.099441 186.350475 209.293025 186.049829 " stroke="#875b3c" stroke-width="0.25" stroke-opacity="1" stroke-miterlimit="10"/><path stroke-linecap="butt" transform="matrix(0.585814, 0, 0, 0.584679, -70.92326, -40.502033)" fill="none" stroke-linejoin="miter" d="M 215.340963 186.156725 C 215.167594 185.441856 216.00777 184.907374 216.727922 184.700263 C 218.201565 184.259316 219.748557 184.058885 221.282212 184.112333 C 222.42912 184.152419 223.622704 184.312764 224.689595 183.89186 C 225.869843 183.430869 226.67668 182.341863 227.730234 181.606951 C 231.857769 178.727431 238.352467 182.108027 242.293296 178.967948 " stroke="#875b3c" stroke-width="0.25" stroke-opacity="1" stroke-miterlimit="10"/><path stroke-linecap="butt" transform="matrix(0.585814, 0, 0, 0.584679, -70.92326, -40.502033)" fill="none" stroke-linejoin="miter" d="M 246.720893 177.097263 C 247.881137 177.818813 249.361448 177.097263 250.588373 176.522695 C 253.322281 175.233258 256.349584 174.598561 259.370219 174.692096 C 260.117042 174.712139 260.877202 174.778949 261.597353 174.571837 C 263.19769 174.097485 264.117883 172.447273 265.498173 171.531973 C 267.071838 170.483053 269.092262 170.46301 270.972658 170.302666 C 275.787003 169.901805 280.441315 168.391894 285.042282 166.888665 " stroke="#875b3c" stroke-width="0.25" stroke-opacity="1" stroke-miterlimit="10"/><path stroke-linecap="butt" transform="matrix(0.585814, 0, 0, 0.584679, -70.92326, -40.502033)" fill="none" stroke-linejoin="miter" d="M 186.921656 207.128446 C 187.281732 204.529529 190.662442 203.687721 193.282993 203.921556 C 195.896876 204.148711 198.917511 204.709917 200.837915 202.912722 C 201.438041 202.338155 201.858129 201.58988 202.498264 201.06208 C 204.672054 199.278248 207.972748 200.881692 210.713324 200.246995 C 213.42056 199.61898 215.167594 196.893124 217.788144 195.937738 C 220.542057 194.942266 223.649377 196.098082 226.509978 195.450023 C 229.997378 194.648301 232.777962 191.220938 236.352047 191.508222 C 238.079076 191.648523 239.852783 192.6774 241.459787 192.02266 C 243.120136 191.341196 243.680254 189.209951 245.127225 188.161031 C 247.641086 186.350475 251.228507 188.508444 254.18913 187.653274 C 256.80968 186.891637 258.323332 183.95867 260.897206 183.076775 C 262.897627 182.401992 265.111425 183.076775 267.191863 182.722681 C 269.47901 182.328501 271.37941 180.738418 273.613213 180.056954 C 277.907449 178.747474 282.968513 180.992297 286.882669 178.760836 " stroke="#875b3c" stroke-width="0.25" stroke-opacity="1" stroke-miterlimit="10"/><path stroke-linecap="butt" transform="matrix(0.585814, 0, 0, 0.584679, -70.92326, -40.502033)" fill="none" stroke-linejoin="miter" d="M 189.948959 220.310097 C 193.169636 214.831661 201.571402 216.121098 206.952533 212.747183 C 210.619971 210.448912 212.840438 205.952586 216.981308 204.683192 C 221.80899 203.200006 226.930066 206.821119 231.917781 206.052801 C 235.778593 205.45151 238.772556 202.358198 242.439993 201.028675 C 247.127645 199.331696 252.468768 200.661219 257.229769 199.171351 C 263.471081 197.220494 267.451917 190.866844 273.539864 188.508444 C 280.201264 185.922889 288.789736 188.281289 294.017502 183.417507 " stroke="#875b3c" stroke-width="0.25" stroke-opacity="1" stroke-miterlimit="10"/><path stroke-linecap="butt" transform="matrix(0.585814, 0, 0, 0.584679, -70.92326, -40.502033)" fill="none" stroke-linejoin="miter" d="M 194.803313 230.739169 C 197.417196 228.420855 200.637873 226.790686 204.058592 226.062455 C 204.732067 225.922154 205.418878 225.801895 206.019004 225.461163 C 206.952533 224.926682 207.512651 223.937891 208.352828 223.283151 C 209.693109 222.22755 211.52016 222.147378 213.200513 221.940266 C 214.880867 221.733154 216.761262 221.212035 217.568098 219.708805 " stroke="#875b3c" stroke-width="0.25" stroke-opacity="1" stroke-miterlimit="10"/><path stroke-linecap="butt" transform="matrix(0.585814, 0, 0, 0.584679, -70.92326, -40.502033)" fill="none" stroke-linejoin="miter" d="M 227.530192 215.827133 C 230.570831 216.167865 233.711492 215.593297 236.438732 214.196964 C 237.712333 213.548905 238.899249 212.72714 240.219526 212.172615 C 243.646913 210.722834 247.621082 211.197187 251.141822 209.987922 C 255.062646 208.638356 258.189971 205.277803 262.290833 204.649787 C 263.271039 204.502805 264.277917 204.522848 265.238119 204.302374 C 266.858459 203.941599 268.312098 202.912722 269.192283 201.509708 " stroke="#875b3c" stroke-width="0.25" stroke-opacity="1" stroke-miterlimit="10"/><path stroke-linecap="butt" transform="matrix(0.585814, 0, 0, 0.584679, -70.92326, -40.502033)" fill="none" stroke-linejoin="miter" d="M 277.400675 199.7526 C 278.147499 198.449801 279.641146 197.748294 281.101453 197.427605 C 282.56176 197.106916 284.088748 197.06683 285.529051 196.679331 C 289.74327 195.550239 293.117313 191.541627 297.478229 191.762101 " stroke="#875b3c" stroke-width="0.25" stroke-opacity="1" stroke-miterlimit="10"/><path stroke-linecap="butt" transform="matrix(0.585814, 0, 0, 0.584679, -70.92326, -40.502033)" fill="none" stroke-linejoin="miter" d="M 200.171108 239.050357 C 204.852092 236.932474 209.573084 234.787867 213.680614 231.707917 C 215.280951 230.512014 216.80127 229.169129 218.601649 228.287235 C 221.42891 226.917626 224.689595 226.837453 227.796915 226.363101 C 240.973018 224.318709 252.262058 214.818299 265.551518 213.722612 " stroke="#875b3c" stroke-width="0.25" stroke-opacity="1" stroke-miterlimit="10"/><path stroke-linecap="butt" transform="matrix(0.585814, 0, 0, 0.584679, -70.92326, -40.502033)" fill="none" stroke-linejoin="miter" d="M 274.260015 210.148266 C 275.526948 208.898916 277.507365 208.878873 279.267735 208.591589 C 281.901622 208.150642 284.32213 206.948058 286.702631 205.758837 C 288.803072 204.709917 290.890178 203.667677 292.990619 202.618757 C 293.597413 202.318112 294.23088 201.990742 294.650968 201.449579 C 294.931027 201.088804 295.091061 200.647857 295.397792 200.307125 C 296.398002 199.198075 298.218385 199.719195 299.658688 199.298291 " stroke="#875b3c" stroke-width="0.25" stroke-opacity="1" stroke-miterlimit="10"/><path stroke-linecap="butt" transform="matrix(0.585814, 0, 0, 0.584679, -70.92326, -40.502033)" fill="none" stroke-linejoin="miter" d="M 205.278848 247.107667 C 207.212588 244.361768 210.393257 242.517806 213.727291 242.21716 C 214.740837 242.130307 215.781056 242.170393 216.721254 241.789575 C 218.821695 240.941086 219.721884 238.288721 221.768981 237.340016 C 223.802742 236.397992 226.423293 237.380102 228.310356 236.177519 C 229.350575 235.522779 229.99071 234.28679 231.150953 233.872567 " stroke="#875b3c" stroke-width="0.25" stroke-opacity="1" stroke-miterlimit="10"/><path stroke-linecap="butt" transform="matrix(0.585814, 0, 0, 0.584679, -70.92326, -40.502033)" fill="none" stroke-linejoin="miter" d="M 237.172219 233.297999 C 236.918833 232.603173 237.712333 231.988519 238.392476 231.701236 C 239.812774 231.113306 241.319758 230.739169 242.846745 230.61891 C 243.986985 230.532057 245.200573 230.558781 246.207452 230.030981 C 247.341023 229.443051 248.021166 228.267192 248.981368 227.432064 C 252.782167 224.118278 259.590265 226.777324 263.171018 223.223022 " stroke="#875b3c" stroke-width="0.25" stroke-opacity="1" stroke-miterlimit="10"/><path stroke-linecap="butt" transform="matrix(0.585814, 0, 0, 0.584679, -70.92326, -40.502033)" fill="none" stroke-linejoin="miter" d="M 267.378569 220.898027 C 268.612161 221.492638 269.99912 220.617424 271.1727 219.902555 C 273.739906 218.319153 276.687192 217.357087 279.701159 217.129932 C 280.447983 217.069803 281.208142 217.04976 281.90829 216.769157 C 283.448613 216.127779 284.182101 214.390714 285.46237 213.321751 C 286.909341 212.112486 288.909761 211.87197 290.770152 211.511194 C 295.517817 210.589214 299.978755 208.578227 304.37968 206.587283 " stroke="#875b3c" stroke-width="0.25" stroke-opacity="1" stroke-miterlimit="10"/><path stroke-linecap="butt" transform="matrix(0.585814, 0, 0, 0.584679, -70.92326, -40.502033)" fill="none" stroke-linejoin="miter" d="M 211.186757 257.242773 C 211.260106 254.610452 214.527459 253.407868 217.161346 253.361101 C 219.788565 253.307653 222.849208 253.528127 224.562902 251.537183 C 225.103015 250.909167 225.429751 250.120807 226.009873 249.519515 C 227.970285 247.508528 231.431012 248.751198 234.078235 247.822536 C 236.712122 246.900555 238.152425 243.987631 240.652951 242.758323 C 243.28017 241.468886 246.487511 242.27729 249.261427 241.321904 C 252.642138 240.139363 255.042642 236.431397 258.616727 236.331182 C 260.357093 236.277734 262.23082 237.112861 263.757808 236.277734 C 265.33814 235.422564 265.658207 233.23787 266.991821 232.041968 C 269.278968 229.970852 273.093103 231.72796 275.947037 230.5521 C 278.480903 229.509861 279.661151 226.429911 282.128336 225.267414 C 284.042072 224.372157 286.322551 224.813104 288.349644 224.231856 C 290.576779 223.590478 292.29714 221.799965 294.43759 220.891346 C 298.571792 219.120876 303.852903 220.791131 307.487 218.158809 " stroke="#875b3c" stroke-width="0.25" stroke-opacity="1" stroke-miterlimit="10"/><path stroke-linecap="butt" transform="matrix(0.585814, 0, 0, 0.584679, -70.92326, -40.502033)" fill="none" stroke-linejoin="miter" d="M 215.62769 270.678304 C 218.428279 264.972713 226.896726 265.627453 232.017802 261.859358 C 235.51187 259.287165 237.378929 254.630495 241.419779 253.060455 C 246.127435 251.223175 251.501898 254.450107 256.422932 253.300972 C 260.217063 252.412396 262.970976 249.098611 266.531724 247.501847 C 271.079347 245.457455 276.500486 246.379436 281.141462 244.528793 C 287.209404 242.110264 290.71014 235.489374 296.598044 232.669983 C 303.052734 229.590033 311.787904 231.300374 316.642258 226.049093 " stroke="#875b3c" stroke-width="0.25" stroke-opacity="1" stroke-miterlimit="10"/><path stroke-linecap="butt" transform="matrix(0.585814, 0, 0, 0.584679, -70.92326, -40.502033)" fill="none" stroke-linejoin="miter" d="M 221.262208 280.713195 C 223.689385 278.201132 226.790037 276.330446 230.137407 275.341656 C 230.797546 275.147906 231.477689 274.98088 232.051143 274.600062 C 232.931328 274.012133 233.418097 272.983256 234.211597 272.248343 C 235.458526 271.099208 237.278908 270.892096 238.952593 270.551364 C 240.61961 270.210632 242.453329 269.549212 243.14014 267.999215 " stroke="#875b3c" stroke-width="0.25" stroke-opacity="1" stroke-miterlimit="10"/><path stroke-linecap="butt" transform="matrix(0.585814, 0, 0, 0.584679, -70.92326, -40.502033)" fill="none" stroke-linejoin="miter" d="M 252.768831 263.369268 C 255.829474 263.482846 258.91679 262.667761 261.537341 261.070998 C 262.757597 260.329405 263.877833 259.420786 265.151434 258.759365 C 268.458796 257.062386 272.459637 257.242773 275.880356 255.759587 C 279.681155 254.122737 282.548424 250.528349 286.589274 249.599687 C 287.562812 249.379213 288.563022 249.319084 289.509888 249.0318 C 291.096888 248.550767 292.47051 247.408313 293.237338 245.95185 " stroke="#875b3c" stroke-width="0.25" stroke-opacity="1" stroke-miterlimit="10"/><path stroke-linecap="butt" transform="matrix(0.585814, 0, 0, 0.584679, -70.92326, -40.502033)" fill="none" stroke-linejoin="miter" d="M 301.279028 243.580088 C 301.932499 242.230522 303.359466 241.422119 304.7931 240.987853 C 306.220067 240.560268 307.740386 240.413285 309.147349 239.912209 C 313.261547 238.469108 316.328858 234.213299 320.689775 234.099722 " stroke="#875b3c" stroke-width="0.25" stroke-opacity="1" stroke-miterlimit="10"/><path stroke-linecap="butt" transform="matrix(0.585814, 0, 0, 0.584679, -70.92326, -40.502033)" fill="none" stroke-linejoin="miter" d="M 248.888015 321.748018 C 251.441885 319.362894 254.622554 317.63919 258.009933 316.810744 C 258.67674 316.6504 259.370219 316.510098 259.950341 316.162685 C 260.857198 315.608161 261.397311 314.599327 262.217484 313.917863 C 263.531093 312.828856 265.351476 312.701917 267.038497 312.448038 C 268.71885 312.200841 270.579242 311.619592 271.352737 310.103 " stroke="#875b3c" stroke-width="0.25" stroke-opacity="1" stroke-miterlimit="10"/><path stroke-linecap="butt" transform="matrix(0.585814, 0, 0, 0.584679, -70.92326, -40.502033)" fill="none" stroke-linejoin="miter" d="M 281.18147 305.90732 C 284.228777 306.161199 287.36277 305.499778 290.036665 304.029954 C 291.290262 303.34849 292.457174 302.493319 293.757447 301.898708 C 297.151494 300.348712 301.132331 300.722849 304.613062 299.406688 C 308.48721 297.950226 311.521181 294.50282 315.602039 293.761227 C 316.582245 293.580839 317.582455 293.567477 318.542657 293.32696 C 320.149662 292.919418 321.56996 291.850455 322.410137 290.420717 " stroke="#875b3c" stroke-width="0.25" stroke-opacity="1" stroke-miterlimit="10"/><path stroke-linecap="butt" transform="matrix(0.585814, 0, 0, 0.584679, -70.92326, -40.502033)" fill="none" stroke-linejoin="miter" d="M 330.578521 288.429773 C 331.292004 287.106931 332.758979 286.372019 334.212618 285.997882 C 335.659589 285.630426 337.179908 285.556934 338.620211 285.129349 C 342.80109 283.879999 346.061775 279.771172 350.422692 279.871387 " stroke="#875b3c" stroke-width="0.25" stroke-opacity="1" stroke-miterlimit="10"/><path stroke-linecap="butt" transform="matrix(0.585814, 0, 0, 0.584679, -70.92326, -40.502033)" fill="none" stroke-linejoin="miter" d="M 227.230129 288.590117 C 231.731075 286.11814 236.278698 283.632801 240.13951 280.252205 C 241.653161 278.929363 243.060123 277.479582 244.780485 276.470748 C 247.501057 274.887346 250.741738 274.559976 253.80905 273.851788 C 266.791779 270.831967 277.327327 260.503111 290.496762 258.39859 " stroke="#875b3c" stroke-width="0.25" stroke-opacity="1" stroke-miterlimit="10"/><path stroke-linecap="butt" transform="matrix(0.585814, 0, 0, 0.584679, -70.92326, -40.502033)" fill="none" stroke-linejoin="miter" d="M 298.938536 254.189548 C 300.112116 252.853344 302.092533 252.679637 303.819562 252.258733 C 306.406773 251.617355 308.727261 250.241065 311.021076 248.871456 C 313.028165 247.668872 315.041921 246.47297 317.04901 245.257024 C 317.642468 244.909611 318.242594 244.542155 318.609338 243.967588 C 318.862724 243.586769 318.989418 243.13246 319.269477 242.771685 C 320.183002 241.589145 322.036725 241.963282 323.437019 241.448843 " stroke="#875b3c" stroke-width="0.25" stroke-opacity="1" stroke-miterlimit="10"/><path stroke-linecap="butt" transform="matrix(0.585814, 0, 0, 0.584679, -70.92326, -40.502033)" fill="none" stroke-linejoin="miter" d="M 232.937996 296.239885 C 234.658357 293.347003 237.692328 291.282568 240.99969 290.728044 C 241.999901 290.561018 243.040119 290.520932 243.946977 290.073304 C 245.980737 289.057789 246.667548 286.351976 248.647965 285.249608 C 250.608377 284.160601 253.28894 284.942281 255.082651 283.599396 C 256.062857 282.871165 256.622974 281.588409 257.729874 281.087332 " stroke="#875b3c" stroke-width="0.25" stroke-opacity="1" stroke-miterlimit="10"/><path stroke-linecap="butt" transform="matrix(0.585814, 0, 0, 0.584679, -70.92326, -40.502033)" fill="none" stroke-linejoin="miter" d="M 263.697795 280.071817 C 263.397732 279.390353 264.131219 278.722251 264.798026 278.381519 C 266.171648 277.680012 267.65196 277.198979 269.172279 276.971824 C 270.299183 276.791437 271.499435 276.737989 272.479641 276.130016 C 273.559868 275.461914 274.159994 274.239287 275.046847 273.330669 C 278.587592 269.742961 285.582395 271.880887 288.883089 268.072706 " stroke="#875b3c" stroke-width="0.25" stroke-opacity="1" stroke-miterlimit="10"/><path stroke-linecap="butt" transform="matrix(0.585814, 0, 0, 0.584679, -70.92326, -40.502033)" fill="none" stroke-linejoin="miter" d="M 292.877262 265.420341 C 294.150863 265.908056 295.471141 264.939308 296.57804 264.137586 C 299.018553 262.367116 301.89249 261.191256 304.879785 260.730266 C 305.619941 260.623369 306.3801 260.543197 307.046907 260.202465 C 308.527218 259.44751 309.140681 257.656997 310.327597 256.50118 C 311.681215 255.178338 313.661631 254.790839 315.482014 254.289763 C 320.149662 253.007007 324.43723 250.66865 328.678121 248.350336 " stroke="#875b3c" stroke-width="0.25" stroke-opacity="1" stroke-miterlimit="10"/><path stroke-linecap="butt" transform="matrix(0.585814, 0, 0, 0.584679, -70.92326, -40.502033)" fill="none" stroke-linejoin="miter" d="M 245.007199 315.962255 C 246.727561 313.069373 249.761532 310.998257 253.068894 310.450413 C 254.069104 310.276707 255.109323 310.243302 256.022848 309.788992 C 258.049941 308.780159 258.736752 306.067665 260.717168 304.971977 C 262.677581 303.882971 265.358144 304.657969 267.151854 303.321766 C 268.13206 302.586853 268.692178 301.310779 269.799078 300.809702 " stroke="#875b3c" stroke-width="0.25" stroke-opacity="1" stroke-miterlimit="10"/><path stroke-linecap="butt" transform="matrix(0.585814, 0, 0, 0.584679, -70.92326, -40.502033)" fill="none" stroke-linejoin="miter" d="M 275.766999 299.787506 C 275.466936 299.112723 276.200423 298.43794 276.86723 298.097208 C 278.240852 297.402382 279.721163 296.921349 281.241483 296.687513 C 282.368386 296.507126 283.568639 296.460358 284.548845 295.852386 C 285.629072 295.177603 286.229198 293.961657 287.122719 293.053038 C 290.656795 289.45865 297.651599 291.603257 300.952293 287.788395 " stroke="#875b3c" stroke-width="0.25" stroke-opacity="1" stroke-miterlimit="10"/><path stroke-linecap="butt" transform="matrix(0.585814, 0, 0, 0.584679, -70.92326, -40.502033)" fill="none" stroke-linejoin="miter" d="M 304.959802 285.142711 C 306.226735 285.630426 307.547012 284.661678 308.66058 283.859955 C 311.101093 282.089485 313.968362 280.906945 316.962325 280.452636 C 317.702481 280.339058 318.46264 280.258886 319.129447 279.918154 C 320.609758 279.16988 321.223221 277.379366 322.410137 276.216869 C 323.757087 274.900708 325.737503 274.513209 327.557886 274.012133 C 332.232201 272.729377 336.519769 270.39102 340.760661 268.072706 " stroke="#875b3c" stroke-width="0.25" stroke-opacity="1" stroke-miterlimit="10"/><path stroke-linecap="butt" transform="matrix(0.585814, 0, 0, 0.584679, -70.92326, -40.502033)" fill="none" stroke-linejoin="miter" d="M 239.599396 305.900639 C 239.472703 303.268317 242.640035 301.831898 245.260586 301.578019 C 247.881137 301.330822 250.948448 301.31746 252.508776 299.199576 C 253.002213 298.531474 253.268936 297.709709 253.802382 297.081693 C 255.609428 294.930405 259.150172 295.899153 261.717379 294.776741 C 264.271249 293.661011 265.491505 290.661233 267.89201 289.238176 C 270.41254 287.748309 273.679893 288.322877 276.367125 287.160379 C 279.647814 285.730641 281.761592 281.848969 285.322341 281.481513 C 287.04937 281.301125 288.98311 281.98927 290.436749 281.040565 C 291.950401 280.058455 292.097098 277.867081 293.337359 276.570963 C 295.471141 274.332822 299.398633 275.802646 302.159213 274.412994 C 304.599726 273.177005 305.539924 270.030245 307.920424 268.680679 C 309.760811 267.63844 312.061295 267.912362 314.041711 267.17745 C 316.222169 266.382408 317.802502 264.458275 319.862935 263.389311 C 323.85044 261.318195 329.231571 262.580908 332.672294 259.681346 " stroke="#875b3c" stroke-width="0.25" stroke-opacity="1" stroke-miterlimit="10"/><path fill="#a0383c" d="M 66.28125 38.65625 C 66.859375 38.5625 67.410156 38.332031 67.933594 38.054688 C 69.601562 37.171875 71.054688 35.761719 71.6875 33.984375 C 72.320312 32.207031 72.027344 30.058594 70.710938 28.699219 C 69.28125 27.238281 67.058594 26.964844 65.019531 26.769531 C 61.660156 26.457031 58.449219 29.285156 59.15625 32.945312 C 59.691406 35.699219 63.402344 39.132812 66.28125 38.65625 Z M 66.28125 38.65625 " fill-opacity="1" fill-rule="nonzero"/><path fill="#9c5f26" d="M 124.070312 124.050781 C 124.070312 124.050781 118.503906 104.210938 134.523438 83.589844 L 134.457031 90.097656 C 134.457031 90.097656 144.855469 54.898438 175.054688 45.691406 C 175.054688 45.691406 179.617188 65.519531 162.683594 77.613281 L 170.972656 76.445312 C 170.972656 76.445312 163.730469 97.40625 148.128906 102 L 153.894531 102.8125 C 153.894531 102.8125 139.640625 122.449219 124.070312 124.042969 Z M 124.070312 124.050781 " fill-opacity="1" fill-rule="nonzero"/><path fill="#523b37" d="M 150.707031 74.714844 C 150.707031 74.714844 118.324219 103.300781 115.183594 176.96875 C 115.183594 176.96875 126.539062 93.769531 150.707031 74.714844 Z M 150.707031 74.714844 " fill-opacity="1" fill-rule="nonzero"/></svg>