<svg xmlns="http://www.w3.org/2000/svg" xmlns:xlink="http://www.w3.org/1999/xlink" width="256" zoomAndPan="magnify" viewBox="0 0 192 191.999996" height="256" preserveAspectRatio="xMidYMid meet" version="1.0"><defs><clipPath id="53170faea7"><path d="M 32.09375 8.125 L 157 8.125 L 157 183.625 L 32.09375 183.625 Z M 32.09375 8.125 " clip-rule="nonzero"/></clipPath><clipPath id="012ec50ec0"><path d="M 32.09375 49 L 155 49 L 155 161 L 32.09375 161 Z M 32.09375 49 " clip-rule="nonzero"/></clipPath></defs><rect x="-19.2" width="230.4" fill="#ffffff" y="-19.2" height="230.399995" fill-opacity="1"/><rect x="-19.2" width="230.4" fill="#ffffff" y="-19.2" height="230.399995" fill-opacity="1"/><g clip-path="url(#53170faea7)"><path fill="#f4eadc" d="M 142.878906 80.574219 L 155.441406 73.117188 L 155.65625 73.21875 C 155.703125 73.242188 155.753906 73.253906 155.804688 73.253906 C 155.933594 73.253906 156.0625 73.179688 156.121094 73.050781 C 156.203125 72.875 156.128906 72.667969 155.953125 72.585938 L 155.636719 72.4375 L 151.917969 62.007812 L 152.050781 61.914062 C 152.207031 61.800781 152.246094 61.582031 152.132812 61.425781 C 152.023438 61.265625 151.804688 61.230469 151.648438 61.339844 L 151.484375 61.457031 L 143.371094 57.648438 L 143.355469 57.449219 C 143.34375 57.304688 143.246094 57.1875 143.113281 57.144531 C 143 57.070312 142.847656 57.070312 142.726562 57.152344 L 142.5625 57.269531 L 134.453125 53.464844 L 134.4375 53.261719 C 134.421875 53.070312 134.253906 52.929688 134.058594 52.941406 C 133.867188 52.957031 133.722656 53.128906 133.738281 53.320312 L 133.746094 53.417969 L 123.28125 57.253906 L 122.96875 57.105469 C 122.792969 57.023438 122.582031 57.101562 122.503906 57.277344 C 122.421875 57.449219 122.496094 57.660156 122.671875 57.742188 L 122.886719 57.84375 L 125.195312 72.277344 C 124.058594 74.707031 124.007812 77.363281 124.839844 79.703125 C 120.570312 78.527344 116.21875 78.078125 111.945312 78.300781 C 106.753906 61.679688 91.257812 49.621094 72.945312 49.621094 C 50.382812 49.621094 32.09375 67.929688 32.09375 90.515625 C 32.09375 113.101562 50.382812 131.410156 72.945312 131.410156 C 73.652344 131.410156 74.351562 131.390625 75.050781 131.355469 C 78.355469 141.910156 85.902344 151.097656 96.695312 156.164062 C 117.125 165.75 141.449219 156.945312 151.027344 136.492188 C 159.597656 118.1875 153.441406 96.765625 137.402344 85.597656 C 139.730469 84.742188 141.738281 83 142.878906 80.574219 M 73.429688 123.683594 C 73.269531 123.6875 73.109375 123.691406 72.945312 123.691406 C 54.671875 123.691406 39.800781 108.808594 39.800781 90.515625 C 39.800781 72.222656 54.671875 57.339844 72.945312 57.339844 C 87.347656 57.339844 99.632812 66.582031 104.191406 79.457031 C 92.664062 82.324219 82.480469 90.171875 77.042969 101.777344 C 73.722656 108.871094 72.613281 116.433594 73.429688 123.683594 Z M 84.027344 105.054688 C 88.402344 95.707031 96.609375 89.355469 105.902344 86.992188 C 106.023438 88.148438 106.089844 89.324219 106.089844 90.515625 C 106.089844 105.996094 95.441406 119.035156 81.089844 122.675781 C 80.453125 116.835938 81.355469 110.753906 84.027344 105.054688 Z M 144.042969 133.21875 C 136.289062 149.78125 116.515625 156.941406 99.96875 149.175781 C 91.621094 145.257812 85.667969 138.285156 82.808594 130.207031 C 100.605469 125.789062 113.800781 109.695312 113.800781 90.515625 C 113.800781 88.976562 113.710938 87.460938 113.546875 85.96875 C 118.425781 85.886719 123.394531 86.886719 128.101562 89.097656 C 144.648438 96.863281 151.800781 116.65625 144.042969 133.21875 Z M 112.171875 43.179688 L 120.632812 44.765625 L 112.171875 46.351562 L 110.585938 54.820312 L 109.003906 46.351562 L 100.539062 44.765625 L 109.003906 43.179688 L 110.585938 34.710938 Z M 125.730469 26.597656 L 112.503906 24.121094 L 125.730469 21.644531 L 128.203125 8.40625 L 130.679688 21.644531 L 143.90625 24.121094 L 130.679688 26.597656 L 128.203125 39.839844 Z M 52.183594 149.984375 L 43.722656 151.570312 L 42.136719 160.039062 L 40.554688 151.570312 L 32.09375 149.984375 L 40.554688 148.398438 L 42.136719 139.925781 L 43.722656 148.398438 Z M 65.238281 165.140625 L 78.464844 167.617188 L 65.238281 170.09375 L 62.761719 183.335938 L 60.289062 170.09375 L 47.0625 167.617188 L 60.289062 165.140625 L 62.761719 151.902344 Z M 65.238281 165.140625 " fill-opacity="1" fill-rule="nonzero"/></g><g clip-path="url(#012ec50ec0)"><path fill="#d59f35" d="M 137.402344 85.597656 C 139.730469 84.742188 141.738281 83 142.878906 80.574219 L 137.355469 77.984375 L 137.332031 78.023438 C 137.265625 78.125 137.152344 78.183594 137.039062 78.183594 C 136.972656 78.183594 136.90625 78.164062 136.847656 78.128906 C 136.699219 78.03125 136.652344 77.84375 136.726562 77.6875 L 131.347656 75.164062 C 131.292969 75.289062 131.171875 75.367188 131.035156 75.367188 C 131 75.367188 130.964844 75.363281 130.929688 75.351562 C 130.746094 75.292969 130.644531 75.097656 130.703125 74.910156 L 130.71875 74.867188 L 129.355469 74.226562 L 125.195312 72.277344 C 124.058594 74.707031 124.007812 77.363281 124.839844 79.703125 C 120.570312 78.527344 116.21875 78.078125 111.945312 78.300781 C 106.753906 61.679688 91.257812 49.621094 72.945312 49.621094 C 50.382812 49.621094 32.09375 67.929688 32.09375 90.515625 C 32.09375 113.101562 50.382812 131.410156 72.945312 131.410156 C 73.652344 131.410156 74.351562 131.390625 75.050781 131.355469 C 78.355469 141.910156 85.902344 151.097656 96.695312 156.164062 C 117.125 165.75 141.449219 156.945312 151.027344 136.492188 C 159.597656 118.1875 153.441406 96.765625 137.402344 85.597656 Z M 73.429688 123.683594 C 73.269531 123.6875 73.109375 123.691406 72.945312 123.691406 C 54.671875 123.691406 39.800781 108.808594 39.800781 90.515625 C 39.800781 72.222656 54.671875 57.339844 72.945312 57.339844 C 87.347656 57.339844 99.632812 66.582031 104.191406 79.457031 C 92.664062 82.324219 82.480469 90.171875 77.042969 101.777344 C 73.722656 108.871094 72.613281 116.433594 73.429688 123.683594 Z M 84.027344 105.054688 C 88.402344 95.707031 96.609375 89.355469 105.902344 86.992188 C 106.023438 88.148438 106.089844 89.324219 106.089844 90.515625 C 106.089844 105.996094 95.441406 119.035156 81.089844 122.675781 C 80.453125 116.835938 81.355469 110.753906 84.027344 105.054688 Z M 144.042969 133.21875 C 136.289062 149.78125 116.515625 156.941406 99.96875 149.175781 C 91.621094 145.257812 85.667969 138.285156 82.808594 130.207031 C 100.605469 125.789062 113.800781 109.695312 113.800781 90.515625 C 113.800781 88.976562 113.710938 87.460938 113.546875 85.96875 C 118.425781 85.886719 123.394531 86.886719 128.101562 89.097656 C 144.648438 96.863281 151.800781 116.65625 144.042969 133.21875 Z M 144.042969 133.21875 " fill-opacity="1" fill-rule="nonzero"/></g><path fill="#dd855f" d="M 155.953125 72.585938 L 155.636719 72.4375 L 144.507812 67.214844 L 151.917969 62.007812 L 152.050781 61.914062 C 152.207031 61.800781 152.246094 61.582031 152.132812 61.425781 C 152.023438 61.265625 151.804688 61.230469 151.648438 61.339844 L 151.484375 61.457031 L 144.109375 66.636719 L 143.371094 57.648438 L 143.355469 57.449219 C 143.34375 57.304688 143.246094 57.1875 143.113281 57.144531 C 143 57.070312 142.847656 57.070312 142.726562 57.152344 L 142.5625 57.269531 L 135.191406 62.453125 L 134.453125 53.464844 L 134.4375 53.261719 C 134.421875 53.070312 134.253906 52.929688 134.058594 52.941406 C 133.867188 52.957031 133.722656 53.128906 133.738281 53.320312 L 133.746094 53.417969 L 134.492188 62.515625 L 123.28125 57.253906 L 122.96875 57.105469 C 122.792969 57.023438 122.582031 57.101562 122.503906 57.277344 C 122.421875 57.449219 122.496094 57.660156 122.671875 57.742188 L 122.886719 57.84375 L 134.386719 63.238281 L 130.71875 74.867188 L 130.703125 74.910156 C 130.644531 75.097656 130.746094 75.292969 130.929688 75.351562 C 130.964844 75.363281 131.003906 75.367188 131.035156 75.367188 C 131.171875 75.367188 131.292969 75.289062 131.351562 75.164062 C 131.355469 75.148438 131.367188 75.136719 131.371094 75.121094 L 135.023438 63.539062 L 143.300781 67.421875 L 136.742188 77.644531 C 136.734375 77.65625 136.734375 77.671875 136.726562 77.6875 C 136.652344 77.84375 136.699219 78.03125 136.847656 78.128906 C 136.90625 78.164062 136.972656 78.183594 137.039062 78.183594 C 137.152344 78.183594 137.265625 78.125 137.332031 78.023438 L 137.355469 77.984375 L 143.941406 67.722656 L 155.441406 73.117188 L 155.65625 73.21875 C 155.703125 73.242188 155.753906 73.253906 155.804688 73.253906 C 155.933594 73.253906 156.0625 73.175781 156.121094 73.050781 C 156.203125 72.875 156.128906 72.667969 155.953125 72.585938 Z M 135.585938 63.027344 L 142.703125 58.027344 L 143.414062 66.699219 Z M 135.585938 63.027344 " fill-opacity="1" fill-rule="nonzero"/></svg>