<svg xmlns="http://www.w3.org/2000/svg" xmlns:xlink="http://www.w3.org/1999/xlink" width="256" zoomAndPan="magnify" viewBox="0 0 192 191.999996" height="256" preserveAspectRatio="xMidYMid meet" version="1.0"><rect x="-19.2" width="230.4" fill="#ffffff" y="-19.2" height="230.399995" fill-opacity="1"/><rect x="-19.2" width="230.4" fill="#ffffff" y="-19.2" height="230.399995" fill-opacity="1"/><path fill="#f1ae2e" d="M 95.511719 171.609375 L 99.261719 68.140625 C 108.703125 66.164062 140.511719 65.09375 145.976562 68.140625 C 145.976562 68.140625 154.4375 66.515625 161.304688 65.789062 C 168.171875 65.0625 178.386719 62.726562 177.914062 60.171875 C 155.300781 16.050781 99.902344 16.585938 99.902344 16.585938 C 97.109375 12.125 94.550781 16.339844 94.550781 16.339844 C 41.082031 22.984375 13.375 56.273438 16.222656 60.75 C 19.070312 65.226562 49.734375 63.796875 54.605469 67.945312 C 70.675781 65.765625 93.882812 68.578125 93.882812 68.578125 L 90.183594 171.609375 C 92.089844 171.609375 93.8125 172.480469 95.511719 171.609375 Z M 95.511719 171.609375 " fill-opacity="1" fill-rule="nonzero"/><path fill="#ff8317" d="M 105.761719 175.308594 L 103.144531 175.308594 L 81.804688 113.917969 L 78.710938 113.917969 L 78.183594 112.464844 L 81.300781 112.464844 L 81.027344 111.683594 L 82.21875 110.71875 L 83.125 110.71875 Z M 50.085938 114.535156 C 50.085938 114.535156 49.601562 113.027344 49.355469 112.679688 C 49.355469 112.679688 47.488281 112.832031 46.71875 112.878906 L 45.960938 110.714844 L 45.054688 110.714844 L 43.867188 111.679688 C 46.125 118.28125 48.417969 124.988281 50.648438 131.5 L 53.144531 168.332031 L 55.441406 166.015625 L 53.875 140.902344 C 58.9375 155.636719 63.75 169.445312 66.332031 176.308594 L 68.777344 175.820312 L 47.363281 114.714844 Z M 50.085938 114.535156 " fill-opacity="1" fill-rule="nonzero"/><path fill="#06b0e5" d="M 175.949219 137.214844 L 175.949219 139.738281 C 175.949219 140.78125 168.820312 141.640625 159.769531 141.714844 L 159.769531 170.757812 C 164.558594 171.34375 166.484375 175.140625 166.484375 175.140625 C 157.878906 178.320312 149.835938 175.140625 149.835938 175.140625 C 149.835938 175.140625 152.472656 171.15625 157.589844 170.722656 L 157.589844 141.722656 C 148.289062 141.671875 140.878906 140.804688 140.878906 139.738281 L 140.878906 137.214844 C 140.878906 136.117188 148.730469 135.226562 158.414062 135.226562 C 168.097656 135.226562 175.949219 136.117188 175.949219 137.214844 Z M 78.1875 112.046875 C 77.425781 111.933594 68.195312 111.878906 68.195312 111.878906 L 52.289062 112.5 L 52.441406 125.371094 L 63.945312 162.9375 C 63.945312 162.9375 63.421875 163.351562 66.683594 163.523438 C 69.941406 163.695312 91.621094 152.148438 91.621094 152.148438 L 80.578125 117.003906 C 80.574219 117.003906 78.949219 112.15625 78.1875 112.046875 Z M 78.1875 112.046875 " fill-opacity="1" fill-rule="nonzero"/><path fill="#ff8317" d="M 97.351562 162.945312 L 97.398438 163.5625 L 81.292969 175.757812 L 75.914062 175.542969 L 81.597656 171.355469 L 51.839844 171.355469 L 51.839844 169.152344 L 84.585938 169.152344 L 90.886719 164.503906 L 62.457031 164.503906 L 62.457031 161.511719 L 91.359375 161.511719 L 91.359375 164.15625 L 95.828125 160.859375 L 97.101562 160.953125 L 97.195312 161.855469 Z M 62.925781 143.578125 C 62.925781 143.578125 62.53125 149.578125 63.003906 150.726562 C 63.476562 151.871094 64.253906 153.242188 64.3125 153.519531 C 64.367188 153.792969 64.304688 156.042969 65.082031 157.222656 C 65.863281 158.402344 89.339844 143.011719 89.339844 143.011719 C 89.339844 143.011719 89.089844 142.144531 88.109375 140.988281 C 87.121094 139.824219 84.871094 136.371094 84.550781 134.433594 C 84.550781 134.433594 88.238281 127.554688 89.71875 125.785156 C 89.960938 125.414062 89.074219 123.542969 89.074219 123.542969 C 89.074219 123.542969 87.832031 114.886719 85.386719 114.679688 C 82.941406 114.46875 73.378906 124.597656 69.617188 123.691406 C 65.859375 122.78125 60.019531 118.957031 57.183594 117.359375 C 54.34375 115.765625 54.679688 114.445312 52.929688 116.226562 C 51.183594 118.007812 49.367188 122.332031 49.367188 122.332031 C 53.351562 129.101562 55.75 130.878906 58.019531 134.285156 C 60.289062 137.695312 62.925781 143.578125 62.925781 143.578125 Z M 151.390625 162.945312 L 151.4375 163.5625 L 135.332031 175.757812 L 129.953125 175.542969 L 135.636719 171.355469 L 121.25 171.355469 L 122.636719 175.3125 L 120.019531 175.3125 C 119.582031 174.15625 119.09375 172.828125 118.558594 171.355469 L 105.878906 171.355469 L 105.878906 169.152344 L 117.761719 169.152344 C 115.179688 161.960938 111.714844 151.976562 107.914062 140.90625 L 109.480469 166.023438 L 107.183594 168.339844 L 104.6875 131.507812 C 102.457031 124.996094 100.164062 118.285156 97.90625 111.6875 L 99.09375 110.71875 L 100 110.71875 L 100.757812 112.882812 C 101.527344 112.839844 103.394531 112.6875 103.394531 112.6875 C 103.640625 113.03125 104.125 114.542969 104.125 114.542969 L 101.402344 114.722656 L 117.800781 161.515625 L 145.402344 161.515625 L 145.402344 164.164062 L 149.871094 160.867188 L 151.144531 160.960938 L 151.238281 161.863281 Z M 144.929688 164.503906 L 118.851562 164.503906 L 120.480469 169.152344 L 138.625 169.152344 Z M 137.164062 110.714844 L 136.257812 110.714844 L 135.066406 111.679688 L 135.339844 112.460938 L 132.222656 112.460938 L 132.75 113.914062 L 135.84375 113.914062 L 157.183594 175.308594 L 159.800781 175.308594 Z M 137.164062 110.714844 " fill-opacity="1" fill-rule="nonzero"/><path fill="#06b0e5" d="M 119.355469 159.214844 C 114.246094 150.777344 109.910156 135.390625 108.667969 129.742188 C 107.429688 124.097656 104.410156 115.933594 104.410156 115.933594 C 104.410156 115.933594 101.710938 112.269531 103.230469 112.152344 C 104.699219 112.042969 130.5625 112.042969 131.964844 112.042969 C 133.367188 112.042969 134.679688 117.859375 135.277344 121.40625 C 135.878906 124.957031 137.398438 131.742188 138.355469 134.246094 C 139.320312 136.75 145.316406 150.582031 142.417969 154.035156 C 139.515625 157.5 119.355469 159.214844 119.355469 159.214844 Z M 119.355469 159.214844 " fill-opacity="1" fill-rule="nonzero"/><path fill="#f7e8df" d="M 166.097656 126.144531 C 166.097656 128.460938 164.265625 134.03125 164.078125 134.828125 C 163.890625 135.625 163.378906 135.628906 163.378906 135.628906 C 163.378906 135.628906 164.519531 136.574219 164.597656 137.703125 C 162.265625 138.867188 160.761719 137.703125 160.761719 137.703125 C 160.839844 136.574219 161.976562 135.628906 161.976562 135.628906 C 161.976562 135.628906 161.46875 135.625 161.277344 134.828125 C 161.089844 134.03125 159.261719 128.457031 159.261719 126.144531 C 159.492188 124.820312 165.628906 124.855469 166.097656 126.144531 Z M 166.097656 126.144531 " fill-opacity="1" fill-rule="nonzero"/><path fill="#062b52" d="M 65.082031 157.222656 C 64.730469 154.226562 66.207031 149 70.777344 146.386719 C 75.34375 143.773438 85.570312 142.132812 89.339844 143.011719 C 91.285156 143.757812 92.265625 144.582031 92.265625 144.582031 C 95.558594 144.96875 99.722656 142.597656 103.394531 143.992188 C 104.074219 144.316406 104.195312 147.832031 104.195312 147.832031 L 92.539062 161.511719 C 92.539062 161.511719 67.875 163.046875 66.15625 161.5625 C 64.433594 160.078125 65.082031 157.222656 65.082031 157.222656 Z M 65.082031 157.222656 " fill-opacity="1" fill-rule="nonzero"/><path fill="#f1ae2e" d="M 128.4375 128.476562 C 131.742188 128.183594 137.335938 131.144531 140.527344 134.371094 C 143.71875 137.601562 146.296875 144.910156 146.296875 144.910156 C 148.367188 144.652344 152.15625 146.8125 153.398438 150.09375 C 154.644531 153.371094 155.851562 159.996094 155.589844 161.265625 C 155.324219 162.535156 149.226562 167.15625 146.75 168.332031 C 144.269531 169.507812 140.578125 168.554688 139.878906 167.644531 C 139.183594 166.738281 138.355469 163.902344 138.355469 163.902344 L 135.265625 158.972656 C 135.265625 158.972656 123.871094 164.316406 120.914062 161.507812 C 117.953125 158.699219 118.542969 153.535156 118.542969 153.535156 C 114.742188 153.460938 113.828125 151.636719 112.632812 143.402344 C 111.4375 135.164062 114.113281 132.671875 115.679688 131.625 C 117.25 130.578125 122.445312 129.421875 122.445312 129.421875 C 122.445312 129.421875 125.132812 128.773438 128.4375 128.476562 Z M 164.570312 129.398438 C 164.453125 129.335938 164.308594 129.339844 164.175781 129.363281 C 163.808594 129.429688 163.480469 129.652344 163.109375 129.675781 C 162.75 129.699219 162.40625 129.535156 162.085938 129.371094 C 161.765625 129.207031 161.4375 129.027344 161.078125 129.011719 C 160.71875 128.996094 160.085938 129.066406 160.195312 129.410156 C 160.222656 129.503906 161.144531 134.46875 161.722656 135.046875 C 162.304688 135.625 163.203125 135.871094 163.699219 134.753906 C 164.195312 133.640625 164.820312 130.472656 164.851562 129.816406 C 164.855469 129.683594 164.691406 129.460938 164.570312 129.398438 Z M 159.003906 124.578125 C 157.050781 125.253906 158.144531 127.917969 159.421875 127.742188 C 159.535156 127.726562 159.210938 126.429688 159.308594 125.992188 C 159.308594 125.992188 160.132812 126.523438 160.582031 126.691406 C 161.277344 126.292969 160.738281 123.976562 159.003906 124.578125 Z M 159.003906 124.578125 " fill-opacity="1" fill-rule="nonzero"/><path fill="#06b0e5" d="M 129.484375 155.128906 C 131.890625 154.914062 132.273438 154.589844 135.421875 155.316406 C 137.296875 157.308594 137.382812 162.347656 138.355469 163.902344 C 132.964844 165.1875 125.304688 164.023438 121.214844 161.746094 C 125.679688 159.785156 129.484375 155.128906 129.484375 155.128906 Z M 67.203125 161.746094 C 71.296875 164.023438 84.066406 166.179688 91.820312 161.511719 C 90.847656 159.957031 87.886719 157.15625 86.007812 155.164062 C 82.859375 154.4375 77.882812 154.914062 75.476562 155.132812 C 75.476562 155.128906 71.671875 159.785156 67.203125 161.746094 Z M 67.203125 161.746094 " fill-opacity="1" fill-rule="nonzero"/><path fill="#ff8317" d="M 138.359375 135.90625 L 140.875 141.585938 C 140.875 141.585938 139.617188 142.039062 139.152344 142.339844 C 138.6875 142.644531 138.378906 144.460938 136.25 144.859375 C 134.117188 145.253906 129.703125 144.460938 129.820312 144.265625 C 129.933594 144.074219 128.109375 137.378906 128.109375 137.378906 Z M 162.824219 173.605469 C 162.144531 173.328125 161.75 173.558594 161.75 173.558594 L 162.046875 172.863281 C 162.046875 172.863281 158.988281 170.554688 158.832031 170.488281 C 158.675781 170.417969 158.429688 170.472656 158.429688 170.472656 C 158.429688 170.472656 153.007812 169.15625 151.398438 171.113281 L 149.6875 174.257812 C 149.335938 175.40625 149.839844 176.582031 150.867188 177.378906 C 151.902344 178.175781 156.78125 179.65625 158.117188 179.777344 C 159.449219 179.894531 162.339844 178.949219 162.484375 176.582031 C 162.484375 176.582031 163.46875 176.078125 163.714844 175.214844 C 163.835938 174.816406 163.503906 173.882812 162.824219 173.605469 Z M 134.492188 154.042969 L 127.300781 154.042969 L 127.207031 153.140625 L 125.933594 153.046875 L 95.511719 175.542969 L 100.886719 175.757812 L 127.496094 155.75 L 127.449219 155.132812 L 135.066406 155.164062 C 134.917969 154.796875 134.492188 154.042969 134.492188 154.042969 Z M 85.425781 154.042969 L 73.289062 154.042969 L 73.199219 153.140625 L 71.925781 153.046875 L 41.5 175.542969 L 45.242188 175.691406 L 46.878906 175.757812 L 73.488281 155.75 L 73.4375 155.132812 L 86.003906 155.164062 C 85.855469 154.796875 85.425781 154.042969 85.425781 154.042969 Z M 85.425781 154.042969 " fill-opacity="1" fill-rule="nonzero"/><path fill="#062b52" d="M 106.90625 171.875 L 106.878906 169.070312 C 106.878906 169.070312 115.175781 161.863281 115.289062 161.875 C 115.402344 161.886719 116.046875 161.6875 116.398438 162.207031 C 116.746094 162.722656 117.628906 164.980469 114.292969 167.949219 C 111.519531 170.417969 109.960938 172.042969 108.292969 172.398438 L 112.628906 174.835938 L 113.429688 175.054688 C 113.429688 175.054688 113.71875 175.902344 113.429688 176.035156 C 113.039062 176.582031 101.953125 177.453125 100.886719 176.949219 C 99.820312 176.441406 100.058594 174.765625 100.4375 174.890625 C 100.816406 175.015625 106.90625 171.875 106.90625 171.875 Z M 106.90625 171.875 " fill-opacity="1" fill-rule="nonzero"/><path fill="#f7e8df" d="M 122.449219 129.425781 C 122.421875 129.261719 122.753906 128.667969 122.449219 127.953125 C 122.339844 128.03125 120.980469 129.339844 119.71875 128.269531 C 119.71875 128.269531 118.316406 129.816406 117.144531 127.953125 C 116.730469 127.242188 117.054688 127.320312 116.632812 126.078125 C 116.214844 124.832031 114.722656 120.828125 116.632812 117.320312 C 118.546875 113.816406 122.527344 112.882812 125.019531 114.234375 C 127.515625 115.589844 127.695312 117.410156 127.695312 117.410156 C 127.695312 117.410156 128.152344 117.9375 128.257812 118.195312 C 128.367188 118.449219 128.277344 118.914062 128.421875 119.167969 C 128.566406 119.421875 129.207031 120.15625 129.601562 121.042969 C 129.996094 121.925781 129.90625 123.972656 129.90625 123.972656 C 130.136719 124.539062 130.441406 124.65625 130.628906 125.199219 C 130.816406 125.738281 129.90625 126.355469 129.90625 126.355469 C 130.054688 127.074219 129.636719 127.835938 129.125 127.8125 C 129.125 127.8125 128.792969 128.371094 128.4375 128.476562 C 128.4375 128.476562 129.582031 130.085938 128.949219 131.832031 C 128.769531 131.902344 124.207031 130.765625 122.449219 129.425781 Z M 141.988281 145.269531 C 141.988281 145.269531 141.054688 143.019531 139.148438 142.339844 L 136.285156 143.8125 C 135.464844 143.042969 133.304688 142.808594 130.90625 143.183594 C 130.046875 141.417969 128.085938 137.386719 128.109375 137.375 C 128.132812 137.363281 125.96875 138.589844 125.96875 138.589844 L 128.304688 143.6875 C 126.199219 144.128906 124.207031 144.589844 124.207031 144.589844 C 123.632812 145.582031 123.542969 149.171875 124.058594 150.714844 C 124.058594 150.714844 127.066406 149.550781 130.238281 146.859375 C 130.535156 146.640625 131.101562 147.035156 131.976562 146.5625 C 132.851562 146.089844 133.371094 145.742188 133.875 145.855469 C 134.375 145.964844 134.953125 146.652344 135.773438 146.167969 C 135.773438 146.167969 136.214844 147.160156 136.96875 146.996094 C 137.175781 146.921875 137.101562 146.773438 137.101562 146.773438 C 137.101562 146.773438 137.101562 146.152344 136.964844 145.433594 C 137.652344 145.296875 139.832031 145.027344 141.988281 145.269531 Z M 155.867188 168.300781 C 155.605469 167.84375 154.675781 159.335938 154.574219 158.882812 C 154.480469 158.429688 153.683594 157.824219 152.207031 157.554688 C 150.730469 157.289062 150.355469 155.902344 150.253906 155.652344 C 150.152344 155.402344 149.199219 155.847656 148.359375 157.308594 C 147.515625 158.769531 148.019531 158.511719 146.085938 159.480469 C 144.152344 160.453125 141.71875 161.675781 141.042969 164.089844 C 141.941406 166.441406 147.503906 171.796875 148.171875 172.695312 C 148.835938 173.59375 148.921875 174.480469 149.941406 175.433594 C 150.960938 176.382812 152.199219 176.894531 153.601562 177.382812 C 153.601562 177.382812 153.367188 174.292969 155.886719 172.144531 C 156.011719 172.058594 156.433594 172.265625 156.433594 172.265625 C 156.433594 172.265625 157.121094 170.660156 158.429688 170.476562 C 158.429688 170.476562 156.125 168.753906 155.867188 168.300781 Z M 162.816406 173.785156 C 162.769531 173.535156 162.089844 173.464844 161.75 172.957031 C 160.90625 173.203125 160.332031 174.261719 160.304688 174.378906 C 160.257812 174.359375 160.097656 174.277344 160.097656 174.277344 C 158.445312 175.519531 158.117188 178.203125 158.117188 178.203125 C 158.417969 178.46875 159.441406 178.679688 159.40625 178.007812 C 159.40625 178.007812 160.515625 178.304688 160.378906 177.394531 C 160.894531 177.558594 161.035156 177.078125 160.824219 176.800781 C 161.148438 176.800781 161.460938 176.492188 161.269531 176.074219 C 161.609375 176.167969 162.113281 176.015625 162.046875 175.273438 C 162.046875 175.273438 162.367188 175.074219 162.320312 174.710938 C 162.320312 174.710938 162.710938 174.582031 162.628906 174.230469 C 162.628906 174.226562 162.863281 174.027344 162.816406 173.785156 Z M 90.691406 113.917969 C 90.570312 113.265625 90.449219 112.101562 89.8125 111.554688 C 89.171875 111.011719 88.359375 111.429688 87.640625 111.371094 C 86.921875 111.3125 83.609375 112.839844 81.523438 114.449219 C 79.433594 116.058594 76.671875 117.617188 76.332031 117.636719 C 76.332031 117.636719 76.621094 114.980469 76.121094 113.898438 C 75.617188 112.816406 75.367188 112.21875 75.359375 111.625 C 75.351562 111.03125 74.914062 109.636719 73.058594 108.65625 C 71.207031 107.675781 67.394531 106.976562 64.414062 110.339844 C 64.414062 110.339844 61.492188 113.292969 63.234375 116.382812 C 62.867188 117.144531 63.207031 118.238281 64.414062 118.570312 C 64.414062 118.570312 64.859375 119.429688 65.289062 119.632812 L 65.398438 119.964844 C 65.398438 119.964844 63.648438 119.632812 62.613281 118.949219 C 61.578125 118.265625 58.101562 115.285156 55.96875 113.894531 C 53.835938 112.507812 49.835938 111.230469 49.207031 111.074219 C 48.578125 110.914062 46.914062 110.265625 46.175781 110.933594 C 45.4375 111.605469 44.933594 116.996094 49.375 122.328125 C 50.28125 123.074219 51.65625 122.53125 52.519531 123.039062 C 53.378906 123.550781 54.292969 124.238281 54.34375 123.335938 C 54.386719 122.429688 53.875 122.171875 54.34375 121.035156 C 54.8125 119.898438 55.816406 118.1875 55.492188 116.890625 C 55.492188 116.890625 58.789062 120.730469 60.117188 122.140625 C 61.449219 123.554688 63.007812 124.878906 63.007812 124.878906 C 63.007812 124.878906 68.152344 124.921875 71.09375 126.050781 C 71.09375 126.050781 73.367188 126.320312 74.152344 126.402344 C 74.074219 126.125 74.203125 125.425781 74.203125 125.425781 L 77.738281 124.253906 C 77.738281 124.253906 77.992188 123.230469 78.925781 123.335938 C 78.925781 123.335938 79.539062 122.222656 80.253906 122.09375 C 80.253906 122.09375 79.992188 121.304688 81.542969 120.402344 C 83.09375 119.496094 85.011719 116.652344 85.011719 116.652344 C 85.011719 116.652344 88.023438 120.488281 89.078125 123.535156 C 89.074219 123.542969 91.507812 118.90625 90.691406 113.917969 Z M 112.261719 162.546875 C 111.15625 162.410156 108.492188 162.441406 108.492188 162.441406 C 106.367188 157.265625 105.554688 147.285156 102.53125 144.960938 C 101.855469 145.253906 101.242188 146.363281 100.132812 146.734375 C 99.019531 147.109375 95.792969 147.878906 95.039062 151.324219 C 95.039062 151.324219 92.914062 148.9375 92.722656 148.347656 C 92.53125 147.757812 92.117188 146.636719 91.648438 146.34375 C 91.183594 146.058594 90.613281 147.183594 90.441406 148.347656 C 90.265625 149.507812 86.582031 152.28125 86.832031 155.898438 C 88.300781 158.734375 94.542969 164.660156 100.003906 166.714844 C 100.003906 166.714844 100.851562 170.316406 100.878906 170.9375 C 100.914062 171.554688 99.894531 173.378906 100.445312 175.074219 C 100.445312 175.074219 108.191406 173.847656 112.636719 174.835938 C 112.980469 174.890625 112.890625 173.550781 112.304688 173.101562 C 112.003906 172.871094 111.234375 172.972656 110.582031 172.84375 C 109.929688 172.714844 108.257812 172.292969 107.699219 171.355469 C 107.699219 171.355469 109.691406 170.253906 111.035156 169.152344 C 112.375 168.046875 114.089844 166.34375 114.109375 165.964844 C 114.109375 165.964844 115.046875 165.433594 114.925781 164.78125 C 114.925781 164.78125 115.785156 164.035156 115.8125 163.183594 C 115.8125 163.183594 116.0625 162.425781 115.535156 161.96875 C 114.828125 161.515625 113.363281 162.679688 112.261719 162.546875 Z M 112.261719 162.546875 " fill-opacity="1" fill-rule="nonzero"/><path fill="#ff8317" d="M 71.621094 111.484375 C 71.996094 111.960938 71.9375 113.667969 71.5 113.917969 C 71.0625 114.167969 68.765625 114.214844 68.476562 114.023438 C 68.1875 113.832031 67.394531 112.03125 67.558594 111.855469 C 68.644531 110.699219 71.246094 111.007812 71.621094 111.484375 Z M 72.839844 111.683594 C 72.636719 111.871094 72.933594 113.050781 72.933594 113.050781 C 72.933594 113.050781 73.578125 113.617188 73.613281 113.816406 C 73.648438 114.015625 73.472656 114.261719 73.472656 114.261719 C 73.472656 114.261719 75.902344 114.226562 76.285156 113.921875 C 76.667969 113.617188 76.480469 111.789062 76.335938 111.625 C 76.195312 111.464844 73.472656 111.117188 72.839844 111.683594 Z M 158.777344 127.320312 C 158.730469 127.4375 159.441406 127.53125 159.441406 127.53125 L 159.296875 126.335938 C 159.296875 126.335938 158.800781 127.257812 158.777344 127.320312 Z M 158.152344 126.042969 C 158.105469 126.269531 158.351562 126.800781 158.398438 126.835938 C 158.445312 126.871094 159.253906 126.144531 159.253906 126.144531 C 159.253906 126.144531 158.199219 125.820312 158.152344 126.042969 Z M 159.3125 125.863281 C 159.34375 125.902344 159.273438 124.789062 159.109375 124.765625 C 158.945312 124.742188 158.410156 125.214844 158.339844 125.296875 C 158.222656 125.4375 159.285156 125.828125 159.3125 125.863281 Z M 160.300781 125.164062 C 160.277344 125.054688 159.769531 124.742188 159.664062 124.765625 C 159.558594 124.789062 159.601562 125.8125 159.613281 125.863281 C 159.613281 125.863281 160.324219 125.273438 160.300781 125.164062 Z M 160.546875 125.617188 C 160.464844 125.59375 159.730469 126.054688 159.6875 126.113281 L 160.632812 126.335938 C 160.785156 126.160156 160.632812 125.640625 160.546875 125.617188 Z M 160.546875 125.617188 " fill-opacity="1" fill-rule="nonzero"/><path fill="#062b52" d="M 165.75 126.226562 L 165.792969 126.296875 C 165.464844 126.507812 165.03125 126.695312 164.546875 126.835938 C 163.964844 127.007812 163.3125 127.09375 162.667969 127.09375 C 161.933594 127.09375 161.203125 126.984375 160.558594 126.769531 C 159.980469 126.574219 159.292969 126.078125 159.265625 126.054688 L 159.363281 125.925781 C 159.367188 125.925781 160.058594 126.425781 160.613281 126.613281 C 161.777344 127.003906 163.304688 127.03125 164.5 126.679688 C 164.515625 126.675781 164.527344 126.671875 164.542969 126.667969 C 164.667969 126.050781 165.367188 122.480469 165.460938 122.242188 C 165.566406 121.984375 166.652344 121.933594 166.578125 122.398438 C 166.496094 122.863281 165.75 126.226562 165.75 126.226562 Z M 99.019531 110.742188 L 116.402344 160.070312 C 115.777344 160.496094 114.957031 161.058594 114.890625 161.109375 L 114.988281 161.242188 C 115.097656 161.160156 117.179688 159.734375 117.199219 159.71875 L 117.105469 159.582031 C 117.078125 159.605469 116.847656 159.761719 116.542969 159.96875 L 99.175781 110.6875 Z M 105.519531 162.042969 C 106.480469 162.476562 107.34375 162.5625 107.890625 162.5625 C 108.257812 162.5625 108.484375 162.523438 108.507812 162.519531 L 108.488281 162.4375 L 108.574219 162.433594 C 108.449219 160.257812 107.484375 142.832031 107.195312 139.117188 C 107.453125 139.855469 107.683594 140.496094 107.832031 140.929688 L 107.988281 140.875 C 106.898438 137.789062 104.824219 131.902344 104.78125 131.707031 L 104.699219 131.71875 L 104.617188 131.726562 C 104.625 131.820312 105.964844 135.632812 106.964844 138.480469 C 107.074219 138.898438 107.949219 154.238281 108.402344 162.367188 C 108.109375 162.402344 106.941406 162.496094 105.585938 161.890625 C 104.800781 161.535156 102.933594 159.457031 100.957031 157.257812 C 98.953125 155.03125 96.683594 152.503906 95.082031 151.253906 L 94.980469 151.382812 C 96.570312 152.621094 98.835938 155.144531 100.832031 157.367188 C 102.914062 159.679688 104.707031 161.675781 105.519531 162.042969 Z M 64.15625 162.882812 L 64.734375 164.53125 L 64.886719 164.472656 L 64.292969 162.773438 L 66.023438 161.460938 L 65.925781 161.328125 L 61.980469 164.324219 L 62.078125 164.457031 L 63.523438 163.359375 L 67.9375 176.003906 L 68.089844 175.949219 L 63.660156 163.253906 Z M 84.121094 169.394531 L 66.703125 169.519531 C 66.535156 169.074219 66.484375 169.070312 66.441406 169.070312 L 66.441406 169.175781 L 66.390625 169.214844 C 66.476562 169.3125 66.835938 170.402344 67.132812 171.378906 L 67.292969 171.328125 C 67.050781 170.53125 66.878906 170.015625 66.761719 169.683594 L 83.890625 169.5625 L 81.550781 171.289062 L 81.648438 171.421875 L 84.636719 169.21875 L 84.539062 169.085938 Z M 63.675781 169.179688 L 63.792969 169.519531 L 55.308594 169.519531 L 55.710938 169.214844 L 55.613281 169.082031 L 52.710938 171.261719 L 52.808594 171.394531 L 55.085938 169.679688 L 63.847656 169.679688 L 64.421875 171.355469 L 64.578125 171.300781 L 63.828125 169.121094 Z M 87 114.4375 C 86.164062 115.171875 85.035156 116.707031 85.027344 116.71875 L 85.160156 116.820312 C 85.167969 116.800781 86.285156 115.285156 87.109375 114.5625 Z M 89.019531 126.859375 L 89.035156 126.871094 L 89.019531 126.859375 C 89.050781 126.78125 89.039062 126.769531 89.011719 126.753906 L 88.894531 126.78125 L 88.964844 126.828125 L 88.894531 126.785156 C 88.878906 126.820312 88.472656 127.476562 88.085938 128.113281 C 87.59375 128.914062 87.039062 129.824219 86.984375 129.914062 L 87.128906 129.996094 C 87.179688 129.90625 87.734375 129 88.226562 128.199219 C 88.3125 128.058594 88.386719 127.9375 88.457031 127.820312 L 94.320312 144.558594 L 94.472656 144.5 L 88.570312 127.636719 C 88.851562 127.167969 88.976562 126.957031 89.019531 126.859375 Z M 74.917969 125.894531 L 74.894531 125.972656 L 74.84375 126.035156 C 74.855469 126.042969 74.863281 126.054688 74.917969 126.054688 C 75.105469 126.054688 75.785156 125.960938 78.535156 125.457031 L 78.503906 125.292969 C 77.148438 125.542969 75.074219 125.914062 74.917969 125.894531 Z M 69.976562 117.117188 C 70.113281 116.246094 70.738281 115.527344 71.265625 115 L 71.148438 114.882812 C 70.605469 115.429688 69.957031 116.171875 69.8125 117.089844 Z M 74.144531 126.492188 C 74.183594 126.492188 78.078125 126.667969 79.296875 126.730469 L 79.308594 126.566406 C 78.085938 126.503906 74.191406 126.332031 74.152344 126.328125 Z M 74.34375 120.914062 L 74.3125 120.9375 L 74.113281 125.429688 L 74.28125 125.433594 L 74.472656 121.015625 C 75.683594 120.019531 76.355469 119.171875 76.421875 117.554688 L 76.253906 117.550781 C 76.191406 119.125 75.5625 119.917969 74.34375 120.914062 Z M 73.742188 114.902344 L 73.640625 115.03125 C 74.253906 115.519531 74.953125 116.074219 75.367188 116.800781 L 75.511719 116.714844 C 75.078125 115.964844 74.367188 115.398438 73.742188 114.902344 Z M 100.835938 112.851562 L 100.683594 112.90625 L 101.324219 114.746094 L 101.480469 114.6875 Z M 118.546875 153.457031 L 118.542969 153.621094 C 119.117188 153.636719 119.675781 153.644531 120.214844 153.644531 C 122.753906 153.644531 124.757812 153.476562 125.152344 153.207031 C 125.59375 152.90625 126.347656 150.058594 126.429688 149.734375 L 126.269531 149.691406 C 125.945312 150.941406 125.355469 152.871094 125.058594 153.070312 C 124.671875 153.335938 122.125 153.550781 118.546875 153.457031 Z M 125.039062 127.554688 C 125.078125 127.554688 125.117188 127.554688 125.160156 127.554688 L 125.15625 127.386719 C 124.800781 127.398438 124.4375 127.363281 124.082031 127.300781 C 123.933594 127.277344 123.765625 127.234375 123.65625 127.125 L 123.539062 127.238281 C 123.675781 127.378906 123.867188 127.429688 124.050781 127.464844 C 124.375 127.523438 124.710938 127.554688 125.039062 127.554688 Z M 123.441406 119.796875 C 123.429688 119.789062 123.421875 119.785156 123.414062 119.785156 L 123.378906 119.949219 C 123.542969 120.015625 123.832031 120.113281 124.175781 120.113281 C 124.53125 120.113281 124.949219 120.015625 125.34375 119.675781 L 125.238281 119.550781 C 124.523438 120.148438 123.746094 119.921875 123.441406 119.796875 Z M 128.617188 122.777344 L 128.496094 122.664062 C 127.960938 123.222656 126.226562 123.03125 126.101562 122.980469 L 126.0625 123.054688 L 126.007812 123.121094 C 126.054688 123.15625 126.484375 123.226562 126.992188 123.226562 C 127.582031 123.226562 128.277344 123.128906 128.617188 122.777344 Z M 78.90625 123.257812 L 78.9375 123.421875 C 79.574219 123.300781 81.464844 123.558594 81.484375 123.5625 L 81.507812 123.398438 C 81.429688 123.390625 79.574219 123.140625 78.90625 123.257812 Z M 124.132812 150.691406 L 123.972656 150.738281 C 124.324219 151.820312 124.617188 152.636719 124.621094 152.644531 L 124.777344 152.589844 C 124.777344 152.578125 124.480469 151.765625 124.132812 150.691406 Z M 117.777344 148.28125 L 117.832031 148.34375 L 117.90625 148.378906 C 118.226562 147.949219 119.371094 146.480469 120.65625 145.703125 C 121.789062 145.125 124.191406 144.679688 124.21875 144.675781 L 124.1875 144.515625 C 124.097656 144.53125 122.125 144.898438 120.898438 145.417969 C 120.855469 145.316406 120.789062 145.234375 120.683594 145.1875 C 120.601562 145.144531 120.511719 145.125 120.410156 145.121094 C 120.394531 144.992188 120.367188 144.746094 120.328125 144.417969 C 120.15625 142.949219 119.804688 139.886719 119.898438 138.886719 L 119.730469 138.871094 C 119.636719 139.890625 119.996094 142.960938 120.167969 144.4375 C 120.203125 144.746094 120.230469 144.980469 120.242188 145.113281 C 119.6875 145.132812 119.007812 145.429688 118.996094 145.433594 L 119.066406 145.585938 C 119.292969 145.484375 120.21875 145.144531 120.613281 145.335938 C 120.683594 145.367188 120.722656 145.417969 120.75 145.484375 C 120.691406 145.507812 120.632812 145.535156 120.578125 145.566406 C 119.265625 146.355469 118.101562 147.84375 117.777344 148.28125 Z M 121.039062 139.386719 L 120.898438 139.296875 C 120.609375 139.757812 120.371094 140.25 120.195312 140.757812 L 120.347656 140.816406 C 120.523438 140.316406 120.757812 139.832031 121.039062 139.386719 Z M 125.402344 115.96875 L 124.386719 116.246094 L 124.429688 116.40625 L 125.445312 116.128906 Z M 125.796875 121.808594 C 125.058594 122.457031 125.203125 123.667969 125.207031 123.722656 L 125.371094 123.699219 C 125.371094 123.6875 125.234375 122.523438 125.902344 121.933594 Z M 124.101562 116.777344 L 124.019531 116.917969 C 124.113281 116.972656 124.210938 116.992188 124.3125 116.992188 C 124.414062 116.992188 124.511719 116.972656 124.605469 116.953125 C 124.742188 116.917969 124.882812 116.882812 125.019531 116.84375 C 125.324219 116.761719 125.636719 116.675781 125.949219 116.667969 L 125.945312 116.5 C 125.609375 116.511719 125.285156 116.601562 124.972656 116.6875 C 124.839844 116.722656 124.703125 116.757812 124.566406 116.792969 C 124.410156 116.824219 124.230469 116.851562 124.101562 116.777344 Z M 64.054688 115.847656 C 63.785156 115.816406 63.398438 115.957031 63.164062 116.339844 L 63.304688 116.425781 C 63.527344 116.0625 63.855469 116.011719 63.953125 116.007812 C 64.066406 116 64.125 116.03125 64.132812 116.039062 L 64.292969 115.992188 C 64.28125 115.964844 64.261719 115.941406 64.238281 115.921875 C 65.949219 114.660156 67.9375 113.171875 67.976562 113.027344 L 67.824219 112.964844 C 67.730469 113.101562 66.195312 114.265625 64.839844 115.269531 C 65.734375 113.460938 65.433594 111.164062 65.265625 110.894531 C 65.101562 110.640625 64.484375 110.285156 64.457031 110.269531 L 64.375 110.417969 C 64.542969 110.511719 65.011719 110.804688 65.121094 110.984375 C 65.238281 111.167969 65.617188 113.671875 64.523438 115.503906 C 64.359375 115.621094 64.203125 115.738281 64.054688 115.847656 Z M 58.082031 137.769531 L 58.011719 137.917969 C 58.46875 138.144531 58.878906 138.476562 59.277344 138.796875 C 59.570312 139.035156 59.875 139.277344 60.199219 139.484375 L 60.289062 139.34375 C 59.972656 139.144531 59.671875 138.902344 59.382812 138.667969 C 58.972656 138.34375 58.558594 138.007812 58.082031 137.769531 Z M 51.828125 113.601562 L 51.742188 113.738281 C 51.765625 113.753906 53.996094 115.15625 55.425781 116.945312 L 55.554688 116.84375 C 54.109375 115.035156 51.851562 113.617188 51.828125 113.601562 Z M 52.394531 123.191406 C 52.808594 123.472656 56.117188 126.183594 58.121094 127.847656 L 58.226562 127.722656 C 56.21875 126.054688 52.902344 123.339844 52.484375 123.058594 Z M 127.15625 119.9375 C 126.761719 119.617188 126.167969 119.132812 126.019531 118.714844 L 125.863281 118.773438 C 126.027344 119.230469 126.644531 119.738281 127.054688 120.066406 C 127.199219 120.1875 127.324219 120.289062 127.367188 120.339844 C 127.449219 120.441406 127.242188 121.03125 127.003906 121.523438 L 127.152344 121.597656 C 127.28125 121.335938 127.683594 120.464844 127.496094 120.234375 C 127.441406 120.167969 127.324219 120.074219 127.15625 119.9375 Z M 65.367188 125.007812 L 65.394531 125.089844 C 65.449219 125.070312 65.484375 125.054688 65.484375 122.746094 C 65.484375 121.660156 65.464844 120.230469 65.371094 119.625 C 65.347656 119.480469 65.078125 118.859375 64.980469 118.640625 C 65.078125 118.609375 65.140625 118.578125 65.148438 118.574219 L 65.070312 118.429688 C 65.066406 118.429688 64.761719 118.59375 64.4375 118.492188 L 64.386719 118.652344 C 64.484375 118.683594 64.574219 118.691406 64.660156 118.691406 C 64.714844 118.691406 64.765625 118.6875 64.816406 118.679688 C 64.964844 119.015625 65.191406 119.546875 65.203125 119.652344 C 65.304688 120.285156 65.324219 121.828125 65.320312 123.097656 C 64.804688 122.816406 64.378906 122.320312 64.121094 122.011719 C 63.917969 121.773438 63.847656 121.695312 63.761719 121.722656 L 63.8125 121.878906 C 63.792969 121.886719 63.777344 121.878906 63.773438 121.878906 C 63.804688 121.898438 63.90625 122.015625 63.996094 122.121094 C 64.273438 122.453125 64.738281 122.996094 65.320312 123.285156 C 65.3125 124.203125 65.292969 124.933594 65.285156 124.996094 Z M 66.796875 119.113281 C 67.644531 119.585938 68.648438 119.738281 69.53125 119.878906 L 69.558594 119.714844 C 68.644531 119.574219 67.699219 119.425781 66.878906 118.972656 Z M 73.484375 155.867188 L 73.496094 155.621094 L 72.304688 155.554688 L 72.050781 153.027344 L 71.800781 153.054688 L 72.058594 155.617188 L 45.167969 175.558594 L 45.316406 175.757812 L 72.226562 155.800781 Z M 64.746094 117.558594 C 64.371094 117.503906 64.023438 117.277344 63.824219 116.957031 L 63.683594 117.046875 C 63.914062 117.40625 64.300781 117.660156 64.722656 117.722656 Z M 62.339844 140.410156 C 62.117188 139.359375 61.875 138.292969 61.621094 137.242188 L 61.460938 137.28125 C 61.714844 138.332031 61.957031 139.394531 62.179688 140.441406 Z M 45.761719 112.574219 L 45.136719 110.6875 L 44.980469 110.738281 L 45.609375 112.625 Z M 60.050781 140.945312 C 60.746094 141.230469 61.425781 141.566406 62.070312 141.941406 L 62.152344 141.800781 C 61.5 141.421875 60.8125 141.082031 60.113281 140.796875 Z M 80.214844 122.070312 C 81.085938 122.03125 82.585938 121.59375 82.652344 121.574219 L 82.605469 121.414062 C 82.589844 121.417969 81.058594 121.867188 80.207031 121.90625 Z M 50.972656 124.773438 C 49.636719 123.109375 49.292969 122.117188 49.289062 122.109375 L 49.132812 122.160156 C 49.140625 122.183594 49.242188 122.472656 49.539062 122.992188 L 62.402344 159.984375 L 60.855469 161.125 L 60.957031 161.253906 L 63.207031 159.589844 L 63.105469 159.457031 L 62.535156 159.878906 L 49.933594 123.636719 C 50.167969 123.992188 50.464844 124.402344 50.84375 124.871094 Z M 73.542969 153.980469 L 73.296875 154.007812 C 73.421875 155.210938 73.433594 155.210938 73.558594 155.214844 L 73.691406 155.105469 L 73.566406 155.082031 L 73.566406 155.074219 L 73.679688 155.039062 C 73.65625 154.972656 73.59375 154.449219 73.542969 153.980469 Z M 74.238281 116.800781 L 74.15625 116.65625 C 73.324219 117.148438 72.222656 117.191406 71.355469 116.769531 L 71.28125 116.917969 C 71.699219 117.121094 72.171875 117.226562 72.644531 117.226562 C 73.199219 117.226562 73.761719 117.082031 74.238281 116.800781 Z M 74.242188 135.097656 C 74.414062 135.074219 75.777344 134.847656 77.246094 134.597656 C 77.265625 134.625 77.308594 134.667969 77.371094 134.730469 C 77.636719 134.996094 78.269531 135.625 78.789062 136.691406 C 79.429688 138.003906 79.90625 138.667969 81.324219 139.796875 C 82.722656 140.910156 83.273438 141.660156 83.359375 142.570312 L 83.523438 142.550781 C 83.433594 141.59375 82.867188 140.816406 81.429688 139.667969 C 80.035156 138.558594 79.5625 137.902344 78.9375 136.617188 C 78.40625 135.527344 77.761719 134.882812 77.488281 134.613281 C 77.46875 134.59375 77.457031 134.582031 77.441406 134.566406 C 79.054688 134.292969 80.742188 134.003906 81.078125 133.929688 L 81.046875 133.769531 C 80.703125 133.839844 78.984375 134.136719 77.355469 134.414062 C 77.347656 134.351562 77.339844 134.269531 77.335938 134.195312 C 77.308594 133.867188 77.269531 133.363281 76.976562 133.0625 C 76.742188 132.820312 76.324219 132.65625 75.957031 132.507812 C 75.746094 132.425781 75.542969 132.34375 75.421875 132.269531 C 76.5625 132.089844 77.457031 131.933594 78.023438 131.808594 L 77.988281 131.648438 C 77.402344 131.777344 76.476562 131.9375 75.28125 132.117188 C 75.210938 131.996094 75.070312 131.75 74.90625 131.453125 C 74.105469 130.007812 72.441406 127 71.300781 126.015625 L 71.191406 126.140625 C 72.308594 127.105469 73.964844 130.097656 74.761719 131.535156 C 74.921875 131.824219 75.03125 132.023438 75.105469 132.148438 C 74.394531 132.257812 73.601562 132.371094 72.730469 132.492188 C 72.664062 132.503906 72.625 132.503906 72.617188 132.507812 L 72.644531 132.671875 C 72.648438 132.671875 72.691406 132.664062 72.753906 132.65625 C 73.652344 132.53125 74.472656 132.414062 75.203125 132.300781 C 75.3125 132.4375 75.578125 132.542969 75.890625 132.664062 C 76.242188 132.804688 76.636719 132.960938 76.851562 133.179688 C 77.101562 133.4375 77.140625 133.882812 77.164062 134.210938 C 77.167969 134.304688 77.175781 134.382812 77.1875 134.445312 C 75.730469 134.691406 74.386719 134.917969 74.214844 134.941406 Z M 82.148438 110.757812 C 82.203125 110.859375 82.640625 112.367188 82.925781 113.355469 L 83.082031 113.308594 C 82.867188 112.542969 82.351562 110.757812 82.289062 110.667969 Z M 62.957031 124.953125 C 62.988281 124.976562 66.195312 127.277344 68.242188 128.046875 L 68.300781 127.894531 C 66.273438 127.128906 63.082031 124.839844 63.050781 124.816406 Z M 81.765625 112.363281 L 81.296875 112.382812 L 81.300781 112.546875 L 81.699219 112.53125 C 81.78125 112.628906 82.0625 113.023438 82.0625 113.78125 L 81.789062 113.835938 L 81.820312 113.996094 L 82.222656 113.910156 L 82.222656 113.84375 C 82.242188 112.839844 81.808594 112.402344 81.789062 112.386719 Z M 53.101562 167.0625 L 55.441406 165.332031 L 55.34375 165.199219 L 54.820312 165.582031 C 54.429688 158.421875 53.597656 143.070312 53.398438 139.785156 L 53.792969 140.925781 L 53.945312 140.875 L 50.71875 131.476562 L 50.566406 131.527344 L 53.199219 139.199219 C 53.242188 139.617188 54.609375 164.792969 54.660156 165.699219 L 53 166.929688 Z M 62.851562 143.238281 C 62.84375 143.429688 62.84375 143.554688 62.84375 143.582031 L 63.007812 143.578125 C 63.007812 143.550781 63.011719 143.429688 63.015625 143.242188 C 63.039062 142.410156 63.085938 140.464844 62.984375 139.917969 L 62.824219 139.945312 C 62.921875 140.472656 62.871094 142.480469 62.851562 143.238281 Z M 69.984375 110.296875 C 70.679688 110.25 71.390625 110.25 72.085938 110.296875 C 72.152344 110.300781 72.222656 110.308594 72.292969 110.308594 C 72.433594 110.308594 72.574219 110.289062 72.699219 110.214844 L 72.617188 110.074219 C 72.472656 110.15625 72.28125 110.144531 72.097656 110.132812 C 71.394531 110.082031 70.675781 110.082031 69.972656 110.132812 Z M 72.160156 109.796875 C 72.226562 109.796875 72.308594 109.792969 72.378906 109.746094 L 72.289062 109.605469 C 72.25 109.632812 72.183594 109.632812 72.117188 109.628906 L 70.695312 109.605469 L 70.695312 109.773438 L 72.128906 109.796875 C 72.136719 109.796875 72.144531 109.796875 72.160156 109.796875 Z M 72.851562 112.402344 C 72.789062 112.375 72.699219 112.359375 72.601562 112.34375 C 72.589844 112.328125 72.582031 112.316406 72.574219 112.300781 L 72.5 112.335938 C 72.222656 112.320312 71.898438 112.34375 71.824219 112.394531 L 71.78125 112.472656 L 71.882812 112.472656 L 71.914062 112.535156 C 71.96875 112.507812 72.257812 112.484375 72.5 112.5 C 72.707031 112.847656 72.964844 113.09375 73.183594 113.292969 C 73.433594 113.523438 73.570312 113.652344 73.53125 113.800781 C 73.511719 113.960938 73.375 114.316406 72.695312 114.917969 L 72.667969 114.941406 L 72.777344 115.066406 L 72.804688 115.042969 C 73.347656 114.5625 73.65625 114.144531 73.691406 113.835938 C 73.761719 113.597656 73.558594 113.410156 73.296875 113.171875 C 73.113281 113.003906 72.890625 112.796875 72.710938 112.527344 C 72.734375 112.535156 72.761719 112.539062 72.785156 112.550781 Z M 129.539062 142.511719 C 129.527344 142.457031 128.683594 140.53125 128.320312 139.707031 L 128.171875 139.773438 C 128.640625 140.851562 129.351562 142.484375 129.378906 142.550781 Z M 141.976562 139.332031 C 141.542969 139.96875 140.996094 140.679688 140.871094 140.710938 L 140.886719 140.875 C 141.117188 140.855469 141.824219 139.851562 142.117188 139.425781 Z M 150.332031 155.621094 C 149.582031 153.886719 147.789062 150.15625 146.363281 148.429688 L 146.238281 148.535156 C 147.652344 150.246094 149.4375 153.964844 150.183594 155.6875 Z M 133.648438 175.585938 L 133.75 175.71875 L 142.992188 168.878906 L 142.890625 168.746094 Z M 153.914062 177.640625 C 153.9375 177.644531 156.363281 178.378906 157.65625 178.539062 L 157.675781 178.371094 C 156.398438 178.21875 153.984375 177.488281 153.960938 177.476562 Z M 134.058594 144.53125 C 134.792969 145.019531 135.785156 145.84375 135.691406 146.140625 L 135.847656 146.191406 C 136.019531 145.667969 134.460938 144.601562 134.148438 144.394531 Z M 149.835938 173.816406 C 149.714844 173.746094 149.609375 173.652344 149.507812 173.554688 L 149.394531 173.679688 C 149.5 173.773438 149.617188 173.882812 149.753906 173.957031 C 149.847656 174.011719 149.980469 174.066406 150.128906 174.066406 C 150.164062 174.066406 150.195312 174.066406 150.226562 174.058594 L 150.203125 173.894531 C 150.058594 173.917969 149.925781 173.867188 149.835938 173.816406 Z M 135.085938 133.441406 C 135.386719 134.570312 136.902344 136.089844 136.964844 136.152344 L 137.078125 136.039062 C 137.0625 136.019531 135.53125 134.484375 135.242188 133.398438 Z M 135.316406 143.964844 L 135.265625 144.121094 C 135.367188 144.160156 136.679688 144.945312 136.945312 145.894531 L 137.101562 145.851562 C 137.0625 145.710938 137 145.574219 136.929688 145.445312 L 137.042969 145.410156 C 136.917969 144.976562 136.589844 144.222656 136.359375 143.773438 L 136.210938 143.847656 C 136.410156 144.238281 136.679688 144.851562 136.828125 145.28125 C 136.324219 144.539062 135.40625 143.996094 135.316406 143.964844 Z M 148.699219 145.285156 L 136.335938 110.6875 L 136.183594 110.742188 L 148.546875 145.339844 Z M 136.1875 134.296875 L 136.351562 134.324219 C 136.40625 134.003906 136.492188 133.691406 136.613281 133.386719 L 136.460938 133.328125 C 136.335938 133.640625 136.246094 133.964844 136.1875 134.296875 Z M 135.996094 112.394531 L 135.976562 112.382812 L 135.339844 112.382812 L 135.339844 112.546875 L 135.921875 112.546875 C 136.019531 112.625 136.421875 112.984375 136.375 113.757812 L 135.835938 113.839844 L 135.859375 114 L 136.527344 113.898438 L 136.53125 113.835938 C 136.628906 112.835938 136.019531 112.414062 135.996094 112.394531 Z M 158.917969 177.476562 L 158.914062 177.640625 C 158.96875 177.644531 159.292969 177.769531 159.324219 178.011719 L 159.488281 177.992188 C 159.445312 177.640625 159.023438 177.476562 158.917969 177.476562 Z M 146.292969 144.832031 C 146.140625 144.839844 145.789062 144.878906 145.34375 144.929688 C 144.332031 145.050781 142.804688 145.230469 141.992188 145.1875 L 141.980469 145.351562 C 142.074219 145.359375 142.171875 145.359375 142.277344 145.359375 C 143.140625 145.359375 144.457031 145.203125 145.359375 145.097656 C 145.800781 145.042969 146.152344 145.003906 146.296875 144.996094 Z M 163.613281 132.839844 C 163.441406 134.28125 163.144531 135.40625 163.09375 135.582031 C 163 135.589844 162.886719 135.597656 162.757812 135.597656 L 162.578125 131.777344 C 162.558594 131.363281 162.550781 131.164062 162.53125 131.070312 L 162.542969 131.070312 L 162.53125 131.070312 C 162.515625 130.984375 162.496094 130.984375 162.457031 130.988281 L 162.378906 131.070312 L 162.460938 131.070312 L 162.378906 131.078125 C 162.382812 131.15625 162.519531 134.046875 162.59375 135.59375 C 162.515625 135.59375 162.433594 135.589844 162.351562 135.585938 L 162.363281 135.570312 C 162.359375 135.566406 161.929688 135.046875 161.527344 132.675781 L 161.363281 132.699219 C 161.679688 134.570312 162.015625 135.3125 162.164062 135.566406 C 162.105469 135.558594 162.046875 135.550781 161.988281 135.546875 L 161.960938 135.707031 C 162.226562 135.746094 162.472656 135.761719 162.6875 135.761719 C 163.101562 135.761719 163.375 135.710938 163.394531 135.707031 L 163.363281 135.546875 C 163.363281 135.546875 163.328125 135.550781 163.269531 135.558594 C 163.351562 135.253906 163.617188 134.191406 163.78125 132.855469 Z M 162.132812 173.773438 C 162.0625 173.75 161.976562 173.722656 161.957031 173.703125 L 161.835938 173.820312 C 161.886719 173.871094 161.976562 173.898438 162.082031 173.933594 C 162.269531 173.988281 162.496094 174.0625 162.550781 174.25 L 162.707031 174.203125 C 162.632812 173.929688 162.34375 173.835938 162.132812 173.773438 Z M 158.414062 139.121094 C 154.21875 139.121094 150.160156 138.949219 146.984375 138.640625 L 146.96875 138.804688 C 150.148438 139.117188 154.214844 139.289062 158.414062 139.289062 C 166.453125 139.289062 173.457031 138.671875 175.441406 137.785156 L 175.375 137.632812 C 173.410156 138.503906 166.429688 139.121094 158.414062 139.121094 Z M 177.953125 60.050781 L 177.875 60.289062 C 175.886719 59.597656 158.03125 53.699219 143.367188 58.574219 L 143.335938 58.585938 L 143.304688 58.578125 C 143.121094 58.542969 142.945312 58.511719 142.761719 58.476562 C 143.335938 59.691406 145.945312 65.394531 146.097656 68.132812 L 145.851562 68.148438 C 145.691406 65.328125 142.769531 59.070312 142.460938 58.417969 C 127.128906 55.464844 112.542969 54.460938 100.101562 54.390625 C 100.003906 56.066406 99.566406 63.628906 99.382812 68.144531 L 99.136719 68.132812 C 99.320312 63.628906 99.753906 56.09375 99.855469 54.390625 C 97.84375 54.378906 95.894531 54.398438 94.003906 54.433594 C 94.007812 55.917969 94.023438 68.195312 94.003906 68.582031 L 93.757812 68.574219 C 93.773438 68.195312 93.757812 55.863281 93.757812 54.441406 C 88.46875 54.546875 83.671875 54.804688 79.5 55.128906 C 70.828125 55.804688 63.796875 56.816406 59.074219 57.621094 C 57.117188 60.023438 54.75 67.90625 54.722656 67.984375 L 54.484375 67.914062 C 54.578125 67.597656 56.761719 60.335938 58.714844 57.6875 C 54.734375 58.378906 52.496094 58.902344 52.445312 58.914062 L 52.414062 58.917969 L 52.386719 58.914062 C 34.050781 54.6875 17.585938 58.808594 16.363281 60.503906 C 16.285156 60.617188 16.316406 60.667969 16.324219 60.6875 L 16.113281 60.816406 C 16.054688 60.71875 16.015625 60.566406 16.164062 60.359375 C 16.847656 59.402344 21.53125 57.9375 27.890625 57.242188 C 33.542969 56.621094 42.371094 56.367188 52.359375 58.648438 C 53.265625 57.175781 67.5 34.425781 95.773438 17.476562 C 95.71875 17.460938 95.660156 17.441406 95.605469 17.421875 C 94.71875 17.078125 94.445312 16.414062 94.433594 16.382812 L 94.664062 16.289062 C 94.667969 16.296875 94.917969 16.890625 95.703125 17.191406 C 96.699219 17.570312 98.132812 17.320312 99.847656 16.472656 L 99.957031 16.691406 C 99.742188 16.800781 99.535156 16.894531 99.328125 16.980469 C 100.628906 17.421875 107.152344 19.785156 115.195312 25.355469 C 123.445312 31.066406 135.027344 41.421875 143.390625 58.304688 C 158.109375 53.464844 175.960938 59.363281 177.953125 60.050781 Z M 143.101562 58.289062 C 134.773438 41.535156 123.269531 31.25 115.066406 25.566406 C 106.136719 19.382812 99.085938 17.164062 99.015625 17.140625 L 99.027344 17.109375 C 98.171875 17.445312 97.40625 17.613281 96.742188 17.613281 C 96.484375 17.613281 96.25 17.589844 96.023438 17.539062 L 96.058594 17.59375 C 68.527344 34.046875 54.285156 56.03125 52.683594 58.597656 C 54.472656 58.195312 64.558594 56.035156 79.480469 54.875 C 85.214844 54.429688 92.125 54.101562 99.875 54.140625 C 99.878906 54.074219 99.878906 54.035156 99.878906 54.03125 L 100.128906 54.046875 C 100.128906 54.050781 100.125 54.085938 100.121094 54.140625 C 112.730469 54.210938 127.539062 55.246094 143.101562 58.289062 Z M 159.8125 176.960938 C 159.707031 176.933594 159.546875 176.894531 159.523438 176.867188 L 159.378906 176.941406 C 159.429688 177.035156 159.574219 177.070312 159.777344 177.121094 C 159.996094 177.175781 160.292969 177.25 160.296875 177.390625 L 160.460938 177.386719 C 160.453125 177.121094 160.101562 177.035156 159.8125 176.960938 Z M 164.472656 129.828125 C 163.78125 130.019531 163.042969 130.1875 162.320312 130.101562 C 161.707031 130.027344 161.109375 129.765625 160.636719 129.363281 L 160.53125 129.488281 C 161.023438 129.914062 161.65625 130.191406 162.300781 130.265625 C 162.445312 130.28125 162.582031 130.289062 162.722656 130.289062 C 163.335938 130.289062 163.945312 130.148438 164.519531 129.984375 Z M 160.550781 175.550781 C 160.46875 175.539062 160.386719 175.523438 160.355469 175.503906 L 160.257812 175.640625 C 160.324219 175.683594 160.410156 175.699219 160.523438 175.714844 C 160.753906 175.753906 161.039062 175.796875 161.191406 176.109375 L 161.339844 176.035156 C 161.148438 175.648438 160.789062 175.589844 160.550781 175.550781 Z M 160.324219 176.359375 C 160.175781 176.316406 160.039062 176.273438 159.976562 176.207031 L 159.855469 176.320312 C 159.953125 176.421875 160.109375 176.46875 160.277344 176.519531 C 160.492188 176.585938 160.714844 176.652344 160.792969 176.828125 L 160.945312 176.761719 C 160.832031 176.515625 160.558594 176.433594 160.324219 176.359375 Z M 157.585938 141.640625 L 157.585938 141.804688 L 159.765625 141.800781 L 159.765625 141.636719 Z M 161.832031 174.277344 C 161.703125 174.226562 161.554688 174.167969 161.515625 174.121094 L 161.386719 174.222656 C 161.449219 174.304688 161.597656 174.363281 161.773438 174.429688 C 161.964844 174.507812 162.222656 174.609375 162.242188 174.722656 L 162.402344 174.691406 C 162.367188 174.492188 162.09375 174.386719 161.832031 174.277344 Z M 160.34375 174.300781 L 155.921875 172.074219 C 155.894531 172.058594 153.238281 170.777344 152.164062 169.234375 C 151.070312 167.660156 148.523438 158.148438 148.511719 158.078125 L 148.429688 158.082031 L 148.347656 158.082031 C 148.347656 158.144531 150.886719 167.679688 152.03125 169.328125 C 153.128906 170.910156 155.742188 172.167969 155.847656 172.222656 L 160.0625 174.347656 L 160.285156 174.457031 C 160.699219 174.558594 161.808594 174.902344 161.972656 175.304688 L 162.125 175.242188 C 161.894531 174.691406 160.484375 174.335938 160.34375 174.300781 Z M 128.125 121.371094 C 128.039062 121.300781 127.953125 121.222656 127.9375 121.203125 L 127.789062 121.285156 C 127.8125 121.324219 127.863281 121.371094 128.015625 121.5 C 128.246094 121.699219 128.636719 122.03125 128.902344 122.394531 L 129.035156 122.292969 C 128.757812 121.917969 128.363281 121.574219 128.125 121.371094 Z M 123.269531 114.359375 C 123.039062 114.289062 122.816406 114.3125 122.609375 114.421875 C 121.800781 114.867188 121.367188 116.613281 121.019531 118.019531 C 120.929688 118.378906 120.84375 118.71875 120.765625 118.984375 C 120.328125 120.4375 118.960938 121.355469 117.675781 122.0625 C 116.957031 122.457031 116.738281 122.992188 116.679688 123.371094 C 116.59375 123.9375 116.8125 124.554688 117.261719 125.019531 C 117.96875 125.753906 119.820312 125.410156 120.144531 125.339844 C 120.761719 125.980469 122.273438 127.605469 122.367188 127.96875 L 122.527344 127.929688 C 122.402344 127.453125 120.453125 125.421875 120.230469 125.195312 L 120.195312 125.160156 L 120.152344 125.171875 C 120.132812 125.175781 118.074219 125.625 117.375 124.90625 C 116.964844 124.480469 116.761719 123.914062 116.84375 123.398438 C 116.914062 122.90625 117.230469 122.5 117.753906 122.210938 C 119.066406 121.488281 120.46875 120.546875 120.917969 119.03125 C 121 118.765625 121.085938 118.421875 121.171875 118.058594 C 121.496094 116.757812 121.9375 114.976562 122.679688 114.570312 C 122.855469 114.472656 123.039062 114.460938 123.238281 114.527344 L 123.269531 114.535156 L 123.296875 114.523438 C 123.308594 114.515625 124.433594 114.035156 125.878906 115.515625 C 127.347656 117.023438 127.617188 117.445312 127.621094 117.449219 L 127.761719 117.363281 C 127.75 117.347656 127.492188 116.929688 125.996094 115.398438 C 124.585938 113.953125 123.46875 114.28125 123.269531 114.359375 Z M 126.578125 118.066406 L 126.691406 118.179688 C 126.714844 118.160156 127.226562 117.667969 127.996094 118.109375 L 128.078125 117.96875 C 127.195312 117.460938 126.582031 118.058594 126.578125 118.066406 Z M 122.46875 119.777344 C 122.289062 119.800781 122.105469 119.84375 121.933594 119.90625 L 121.984375 120.058594 C 122.148438 120.003906 122.320312 119.960938 122.492188 119.9375 Z M 122.527344 120.425781 L 122.4375 120.289062 L 122.167969 120.464844 L 122.253906 120.601562 Z M 127.207031 119.207031 L 127.140625 119.359375 C 127.304688 119.433594 127.550781 119.5 127.796875 119.5 C 128.089844 119.5 128.382812 119.402344 128.535156 119.085938 L 128.386719 119.011719 C 128.105469 119.59375 127.214844 119.210938 127.207031 119.207031 Z M 116.550781 162.933594 L 126.226562 155.757812 L 127.496094 155.828125 L 127.507812 155.664062 L 126.277344 155.59375 L 126.019531 153.03125 L 125.855469 153.050781 L 126.113281 155.632812 L 116.449219 162.796875 Z M 127.574219 155.167969 L 127.664062 155.09375 L 127.578125 155.078125 L 127.578125 155.074219 L 127.648438 155.046875 C 127.625 154.984375 127.5625 154.457031 127.511719 153.980469 L 127.347656 153.996094 C 127.472656 155.164062 127.488281 155.164062 127.574219 155.167969 Z M 117.441406 123.53125 C 117.578125 123.53125 118.226562 123.683594 118.6875 124.359375 L 118.820312 124.265625 C 118.320312 123.527344 117.605469 123.371094 117.441406 123.371094 Z M 128.554688 142.167969 L 126.789062 138.136719 L 126.636719 138.203125 L 128.402344 142.234375 Z M 128.402344 127.03125 C 128.933594 126.496094 129.917969 125.5 129.984375 123.976562 L 129.820312 123.96875 C 129.757812 125.429688 128.800781 126.398438 128.28125 126.914062 C 128.082031 127.117188 127.984375 127.21875 127.960938 127.300781 C 127.882812 127.59375 128.28125 128.367188 128.363281 128.519531 L 128.507812 128.441406 C 128.332031 128.113281 128.070312 127.523438 128.121094 127.347656 C 128.136719 127.300781 128.273438 127.164062 128.402344 127.03125 Z M 122.625 118.695312 L 122.761719 118.792969 C 122.765625 118.78125 123.628906 117.792969 124.714844 118.332031 L 124.789062 118.183594 C 123.695312 117.640625 122.761719 118.503906 122.625 118.695312 Z M 114.722656 164.816406 C 114.851562 164.871094 114.9375 164.96875 114.988281 165.121094 L 115.144531 165.066406 C 115.078125 164.871094 114.957031 164.734375 114.785156 164.660156 C 114.367188 164.492188 113.769531 164.761719 113.53125 164.882812 L 113.558594 164.960938 L 113.605469 165.03125 C 113.828125 164.917969 114.371094 164.671875 114.722656 164.816406 Z M 110.890625 169.492188 L 112.382812 168.597656 C 112.484375 165.839844 114.105469 163.308594 114.105469 163.308594 L 112.589844 162.445312 L 111.386719 162.445312 L 113.074219 163.492188 C 111.492188 165.046875 110.78125 169.347656 110.890625 169.492188 Z M 117.6875 169.179688 L 118.238281 170.703125 L 110.617188 170.703125 L 110.617188 170.867188 L 118.296875 170.867188 L 118.480469 171.382812 L 118.636719 171.324219 L 117.84375 169.121094 Z M 140.789062 165.464844 C 140.882812 164.667969 141.015625 164.308594 141.207031 163.847656 L 141.054688 163.78125 C 141.042969 163.820312 141.023438 163.851562 141.011719 163.886719 C 140.664062 163.234375 139.601562 160.746094 138.722656 158.640625 C 138.707031 158.597656 138.675781 158.53125 138.601562 158.558594 L 138.554688 158.667969 L 138.570312 158.707031 C 139.046875 159.851562 140.570312 163.492188 140.933594 164.082031 C 140.796875 164.441406 140.699219 164.808594 140.625 165.449219 C 140.597656 165.714844 140.457031 166.039062 140.324219 166.351562 C 140.0625 166.964844 139.792969 167.59375 140.191406 168.007812 L 140.308594 167.894531 C 139.988281 167.558594 140.238281 166.976562 140.472656 166.417969 C 140.617188 166.09375 140.757812 165.753906 140.789062 165.464844 Z M 136.214844 170.867188 C 135.898438 171.097656 135.675781 171.253906 135.621094 171.273438 L 135.636719 171.351562 L 135.636719 171.433594 C 135.742188 171.433594 136.761719 170.6875 138.671875 169.214844 L 138.574219 169.082031 C 137.945312 169.566406 137.074219 170.230469 136.441406 170.699219 L 121.109375 170.699219 L 120.558594 169.117188 L 120.402344 169.175781 L 121.171875 171.378906 L 121.328125 171.324219 L 121.167969 170.863281 Z M 109.742188 172.269531 C 109.742188 172.269531 108.222656 173.464844 107.691406 175.007812 L 108.71875 175.308594 C 109.273438 174.257812 110.769531 172.84375 110.769531 172.84375 C 110.757812 172.425781 109.742188 172.269531 109.742188 172.269531 Z M 127.84375 164.015625 L 127.84375 163.847656 C 127.757812 163.847656 119.414062 163.78125 118.675781 163.765625 C 118.554688 163.425781 118.425781 163.074219 118.367188 162.925781 C 119.207031 162.199219 119.882812 161.628906 119.96875 161.585938 L 119.941406 161.511719 L 119.941406 161.425781 C 119.902344 161.425781 119.804688 161.425781 115.808594 164.9375 L 115.917969 165.066406 C 116.617188 164.449219 117.480469 163.695312 118.234375 163.042969 C 118.335938 163.308594 118.601562 164.046875 118.773438 164.53125 L 118.925781 164.472656 C 118.898438 164.382812 118.820312 164.171875 118.734375 163.929688 C 119.800781 163.949219 127.496094 164.011719 127.84375 164.015625 Z M 142.015625 141.058594 L 140.847656 141.507812 L 140.90625 141.664062 L 142.074219 141.214844 Z M 113.210938 165.507812 L 113.265625 165.664062 C 113.273438 165.660156 113.285156 165.65625 113.304688 165.644531 C 113.371094 165.609375 113.578125 165.503906 113.75 165.582031 C 113.875 165.632812 113.964844 165.769531 114.023438 165.984375 L 114.179688 165.941406 C 114.109375 165.675781 113.984375 165.503906 113.816406 165.429688 C 113.574219 165.320312 113.3125 165.453125 113.210938 165.507812 Z M 115.335938 164.304688 L 115.480469 164.226562 C 115.363281 164.003906 115.1875 163.859375 114.964844 163.800781 C 114.480469 163.664062 113.941406 163.972656 113.917969 163.988281 L 114.003906 164.128906 C 114.007812 164.125 114.507812 163.839844 114.921875 163.957031 C 115.101562 164.007812 115.238281 164.125 115.335938 164.304688 Z M 115.929688 163.457031 L 116.082031 163.398438 C 115.996094 163.148438 115.835938 162.976562 115.617188 162.890625 C 115.125 162.6875 114.460938 162.988281 114.269531 163.082031 L 114.34375 163.230469 C 114.46875 163.167969 115.113281 162.863281 115.558594 163.042969 C 115.734375 163.117188 115.855469 163.246094 115.929688 163.457031 Z M 105.605469 168.605469 C 105.191406 168.269531 103.191406 167.640625 101.585938 167.140625 C 100.894531 166.921875 100.292969 166.734375 100.027344 166.632812 L 99.96875 166.785156 C 100.238281 166.886719 100.839844 167.078125 101.535156 167.296875 C 103.046875 167.769531 105.117188 168.421875 105.503906 168.738281 C 106.074219 169.203125 107.613281 171.382812 107.628906 171.402344 L 107.765625 171.304688 C 107.699219 171.214844 106.195312 169.085938 105.605469 168.605469 Z M 105.605469 168.605469 " fill-opacity="1" fill-rule="nonzero"/><path fill="#f7e8df" d="M 84.890625 144.15625 C 87.128906 144.261719 89.949219 144.515625 91.703125 146.285156 L 91.585938 146.402344 C 89.726562 144.527344 86.605469 144.394531 84.328125 144.292969 C 83.933594 144.277344 83.566406 144.261719 83.226562 144.238281 C 80.953125 144.082031 78.886719 144.929688 78.777344 145.128906 L 78.621094 145.070312 C 78.734375 144.757812 80.957031 143.917969 83.234375 144.074219 C 83.570312 144.09375 83.941406 144.113281 84.332031 144.128906 C 84.449219 144.136719 84.570312 144.136719 84.695312 144.144531 C 84.285156 143.550781 83.851562 143.039062 83.726562 143.003906 L 83.765625 142.847656 C 84.066406 142.921875 84.863281 144.097656 84.898438 144.148438 Z M 84.753906 152.296875 C 84.757812 152.339844 84.871094 153.339844 85.355469 154.085938 L 85.496094 153.996094 C 85.035156 153.285156 84.917969 152.289062 84.917969 152.277344 Z M 83.773438 153.03125 C 84.003906 153.382812 84.28125 153.699219 84.59375 153.980469 L 84.703125 153.855469 C 84.398438 153.585938 84.136719 153.28125 83.910156 152.941406 Z M 82.078125 151.976562 L 81.933594 152.050781 C 82.144531 152.449219 82.488281 152.777344 82.894531 152.96875 L 82.964844 152.820312 C 82.585938 152.644531 82.273438 152.34375 82.078125 151.976562 Z M 166.410156 122.316406 C 165.898438 122.449219 165.667969 122.265625 165.660156 122.257812 L 165.550781 122.382812 C 165.558594 122.390625 165.667969 122.480469 165.890625 122.515625 C 166.03125 122.539062 166.21875 122.535156 166.453125 122.476562 Z M 166.410156 122.316406 " fill-opacity="1" fill-rule="nonzero"/><path fill="#062b52" d="M 98.171875 170.753906 C 96.582031 171.992188 94.445312 171.988281 91.820312 171.851562 C 89.042969 171.707031 86.589844 172.34375 86.566406 172.351562 L 86.523438 172.191406 C 86.550781 172.183594 89.023438 171.542969 91.824219 171.6875 C 94.503906 171.828125 96.519531 171.835938 98.070312 170.625 Z M 40.070312 175.675781 L 40.09375 175.84375 C 40.128906 175.839844 43.8125 175.429688 48.6875 176.085938 L 48.710938 175.921875 C 43.816406 175.265625 40.109375 175.671875 40.070312 175.675781 Z M 65.570312 176.101562 C 64.941406 176.160156 64.441406 176.203125 64.277344 176.226562 L 64.300781 176.386719 C 64.460938 176.363281 64.957031 176.320312 65.585938 176.265625 C 67.1875 176.125 69.605469 175.914062 70.335938 175.703125 L 70.289062 175.542969 C 69.574219 175.753906 67.070312 175.972656 65.570312 176.101562 Z M 74.617188 175.710938 C 74.675781 175.710938 80.6875 175.859375 82.957031 176.050781 L 82.96875 175.886719 C 80.691406 175.691406 74.679688 175.546875 74.621094 175.542969 Z M 100.542969 175.714844 C 98.242188 175.585938 94.738281 175.351562 94.515625 175.242188 L 94.429688 175.378906 C 94.667969 175.539062 99.554688 175.824219 100.53125 175.882812 Z M 98.246094 177.28125 C 97.9375 177.296875 97.90625 177.300781 97.890625 177.300781 L 97.910156 177.464844 C 97.929688 177.464844 98.046875 177.457031 98.25 177.449219 C 103.886719 177.191406 113.519531 176.613281 114.679688 175.617188 L 114.570312 175.492188 C 113.753906 176.195312 107.800781 176.847656 98.246094 177.28125 Z M 118.109375 175.4375 L 118.164062 175.519531 L 118.179688 175.585938 C 118.359375 175.542969 122.679688 175.320312 124.660156 175.585938 L 124.683594 175.421875 C 122.785156 175.167969 118.261719 175.335938 118.109375 175.4375 Z M 129.617188 175.3125 L 129.617188 175.289062 L 129.242188 175.289062 L 129.242188 175.457031 L 129.527344 175.457031 C 129.902344 175.558594 131.902344 175.828125 133.941406 175.828125 C 135.234375 175.828125 136.539062 175.71875 137.445312 175.390625 L 137.390625 175.234375 C 135.09375 176.070312 130.246094 175.433594 129.617188 175.3125 Z M 169.167969 174.832031 C 167.238281 174.851562 163.144531 175.980469 163.074219 176.050781 L 163.140625 176.121094 L 163.164062 176.183594 C 163.292969 176.132812 167.238281 175.019531 169.167969 174.996094 Z M 169.167969 174.832031 " fill-opacity="1" fill-rule="nonzero"/></svg>