<svg xmlns="http://www.w3.org/2000/svg" xmlns:xlink="http://www.w3.org/1999/xlink" width="500" zoomAndPan="magnify" viewBox="0 0 375 374.999991" height="500" preserveAspectRatio="xMidYMid meet" version="1.0"><defs><clipPath id="5909825ef2"><path d="M 8.339844 58 L 244 58 L 244 328.746094 L 8.339844 328.746094 Z M 8.339844 58 " clip-rule="nonzero"/></clipPath><clipPath id="aeaa2340e4"><path d="M 243.210938 97 L 263.742188 97 L 263.742188 106 L 243.210938 106 Z M 243.210938 97 " clip-rule="nonzero"/></clipPath><clipPath id="be6fedff2a"><path d="M 111.242188 45.996094 L 366.992188 45.996094 L 366.992188 328.746094 L 111.242188 328.746094 Z M 111.242188 45.996094 " clip-rule="nonzero"/></clipPath><clipPath id="398e5a4f2d"><path d="M 20 13 L 255.652344 13 L 255.652344 283.746094 L 20 283.746094 Z M 20 13 " clip-rule="nonzero"/></clipPath><clipPath id="5769c75432"><path d="M 0.25 52 L 20.78125 52 L 20.78125 61 L 0.25 61 Z M 0.25 52 " clip-rule="nonzero"/></clipPath><clipPath id="b00c36df08"><rect x="0" width="256" y="0" height="284"/></clipPath><clipPath id="c17f8dd284"><path d="M 140.148438 234 L 155 234 L 155 249 L 140.148438 249 Z M 140.148438 234 " clip-rule="nonzero"/></clipPath><clipPath id="e9f73f1cd0"><path d="M 194 187.5 L 209 187.5 L 209 199 L 194 199 Z M 194 187.5 " clip-rule="nonzero"/></clipPath><clipPath id="df5c476431"><path d="M 206 227 L 234.648438 227 L 234.648438 249 L 206 249 Z M 206 227 " clip-rule="nonzero"/></clipPath><clipPath id="2dcd405245"><path d="M 161 275 L 176 275 L 176 289.5 L 161 289.5 Z M 161 275 " clip-rule="nonzero"/></clipPath><clipPath id="83f644f4f5"><path d="M 159 187.5 L 174 187.5 L 174 199 L 159 199 Z M 159 187.5 " clip-rule="nonzero"/></clipPath><clipPath id="45c8fddc7b"><path d="M 140.148438 227 L 155 227 L 155 239 L 140.148438 239 Z M 140.148438 227 " clip-rule="nonzero"/></clipPath><clipPath id="55b2db7c87"><path d="M 192 268 L 221 268 L 221 289.5 L 192 289.5 Z M 192 268 " clip-rule="nonzero"/></clipPath><clipPath id="62139a27d8"><path d="M 199 275 L 214 275 L 214 289.5 L 199 289.5 Z M 199 275 " clip-rule="nonzero"/></clipPath></defs><g clip-path="url(#5909825ef2)"><path fill="#000f74" d="M 203.265625 152.570312 C 198.171875 153.316406 192.972656 152.921875 187.863281 153.308594 C 180.359375 154.03125 174.117188 155.296875 166.917969 157.507812 C 162.507812 158.777344 157.691406 159.890625 152.789062 160.566406 C 159.886719 161.789062 167.359375 163.242188 176.460938 168.105469 C 159.402344 160.714844 149.164062 164.3125 135.253906 160.636719 C 134.515625 160.519531 133.785156 160.378906 133.0625 160.214844 C 125.699219 158.105469 118.152344 155.996094 110.558594 154.925781 C 106.921875 154.417969 103.558594 154.078125 99.984375 155.109375 C 97.320312 156.058594 93.074219 158.964844 88.953125 161.789062 C 90.878906 162.109375 92.679688 162.730469 94.542969 163.847656 C 99.097656 166.742188 108.410156 170.121094 113.757812 170.929688 C 108.140625 171.082031 98.535156 168.332031 93.289062 166.140625 C 90.648438 165.015625 88.214844 164.90625 85.394531 165.238281 C 84.589844 165.367188 83.820312 165.519531 83.082031 165.714844 C 82.441406 166.113281 81.832031 166.476562 81.265625 166.796875 C 79.371094 167.902344 78.164062 169.011719 76.855469 170.769531 C 75.511719 172.699219 74.757812 174.414062 74.0625 176.652344 C 73.335938 179.300781 72.957031 181.800781 72.804688 184.3125 C 73.195312 183.921875 73.625 183.527344 74.109375 183.128906 C 78.117188 180.234375 83.105469 178.761719 87.714844 177.089844 C 83.628906 179.253906 78.984375 181.46875 75.863281 184.960938 C 74.605469 186.441406 73.984375 187.65625 73.464844 189.527344 C 73.222656 190.625 73.097656 191.667969 73.042969 192.710938 L 73.050781 192.761719 C 73.75 198.441406 71.324219 205.851562 73.398438 211.476562 C 76.410156 216.589844 75.394531 221.851562 77.5625 225.722656 C 77.898438 226.328125 79.851562 229.546875 80.167969 230.148438 C 77.445312 229.257812 75.398438 226.957031 73.367188 224.875 C 70.414062 221.851562 67.75 221.40625 65.394531 218.855469 C 64.125 217.421875 63.207031 215.945312 62.238281 214.304688 C 59.703125 210.0625 58.042969 206.925781 54.363281 203.449219 C 57.46875 207.359375 58.625 210.679688 60.402344 215.222656 C 61.191406 217.15625 61.929688 218.871094 63.039062 220.652344 C 64.292969 222.53125 65.4375 223.726562 67.394531 224.882812 C 72.128906 228.082031 74.636719 231.472656 77.765625 234.953125 C 82.285156 239.980469 89.925781 244.03125 93.050781 248.671875 C 95.257812 251.960938 98.683594 252.949219 101.417969 255.746094 C 102.847656 257.207031 104.242188 258.96875 105.824219 260.910156 C 106.40625 261.625 107.011719 262.363281 107.652344 263.117188 C 107.324219 263.046875 106.988281 262.976562 106.652344 262.914062 C 104.035156 262.28125 102.257812 261.183594 99.804688 260.226562 C 97.730469 259.417969 95.464844 259.402344 93.289062 258.472656 C 90.828125 257.398438 88.511719 255.617188 85.859375 254.375 C 82.554688 253.113281 80.8125 252.015625 78.695312 249.042969 C 77.058594 246.761719 74.246094 245.730469 72.277344 243.355469 C 72.183594 243.242188 72.089844 243.128906 72.003906 243.007812 C 72.078125 243.121094 72.15625 243.226562 72.238281 243.335938 C 73.324219 244.792969 74.5625 245.820312 75.691406 246.824219 C 74.433594 245.851562 73.019531 244.808594 71.835938 243.125 C 73.019531 244.808594 74.433594 245.851562 75.691406 246.824219 C 76.589844 247.636719 77.417969 248.4375 78.042969 249.449219 C 80.277344 253.019531 81.757812 253.796875 85.167969 255.800781 C 87.8125 257.273438 89.8125 259.144531 92.304688 260.5625 C 94.640625 261.703125 96.554688 261.953125 98.722656 262.910156 C 101.390625 264.21875 102.875 265.515625 105.910156 266.382812 C 108.453125 267.222656 111.222656 270.117188 114.132812 271.640625 C 121.050781 275.261719 128.433594 278.691406 133.007812 282.804688 C 136.457031 286.023438 138.546875 288.753906 142.601562 291.242188 C 140.367188 290.988281 138.777344 290.082031 136.578125 290.285156 C 140.132812 291.34375 140.671875 293.546875 145.863281 293.863281 C 148.953125 294.011719 152.296875 292.257812 155.574219 291.703125 C 159.199219 291.085938 162.523438 291.226562 167.285156 291.390625 C 172.328125 291.800781 178.675781 292.15625 183.515625 290.640625 C 178.820312 292.914062 172.460938 293.078125 167.285156 293.441406 C 159.429688 293.773438 157.351562 294.351562 154.300781 295.738281 C 156.566406 296.292969 158.851562 296.6875 161.113281 296.914062 C 167.015625 297.296875 173.167969 297.253906 179.085938 297.210938 C 219.226562 297.664062 200.136719 313.574219 239.042969 306.550781 C 201.59375 315.246094 215.792969 301.078125 179.34375 302.5 C 172.125 303.078125 165.765625 303.5 158.515625 302.574219 C 155.648438 302.207031 152.136719 302.085938 149.753906 300 C 151.050781 302.410156 155.738281 303.492188 158.289062 304.101562 C 168.226562 306.296875 167.542969 309.289062 174.558594 314.535156 C 176.316406 315.78125 177.800781 316.601562 179.871094 317.25 C 182.355469 317.953125 184.222656 317.972656 186.734375 317.351562 C 184.238281 318.285156 182.300781 318.484375 179.667969 318.105469 C 177.390625 317.683594 175.71875 317 173.683594 315.929688 C 172.546875 315.269531 171.582031 314.601562 170.699219 313.957031 C 171.664062 315.851562 172.417969 317.84375 173.160156 320.054688 C 173.464844 321.007812 173.765625 321.816406 174.269531 322.683594 C 174.742188 323.433594 175.164062 323.894531 175.890625 324.40625 C 177.789062 325.652344 180.039062 325.855469 182.253906 326.011719 C 179.929688 326.039062 177.660156 326.042969 175.519531 325.035156 C 174.625 324.546875 174.078125 324.0625 173.445312 323.261719 C 172.761719 322.371094 172.347656 321.550781 171.910156 320.523438 C 170.261719 316.734375 168.554688 313.542969 165.410156 310.792969 C 163.371094 309.066406 161.722656 308.269531 159.121094 307.722656 C 157.515625 307.410156 156 307.308594 154.4375 307.191406 C 149.949219 306.839844 149.355469 304.492188 145.636719 303.621094 C 147.515625 304.492188 148.523438 305.699219 149.898438 306.976562 C 151.269531 308.253906 152.175781 308.574219 153.355469 310.109375 C 155.046875 312.316406 157.015625 314.488281 158.605469 316.84375 C 161.515625 321.148438 161.875 324.042969 161.890625 329 C 159.820312 321.632812 156.074219 317.828125 150.070312 313.195312 C 146.351562 310.328125 142.703125 307.871094 139.144531 302.992188 C 135.457031 297.933594 133.78125 296.570312 130.625 293.464844 C 125.121094 288.066406 120.21875 287.328125 114.238281 283.089844 C 117.9375 287.550781 120.375 287.863281 123.066406 292.800781 C 123.675781 293.914062 124.710938 295.136719 125.527344 296.410156 C 126.070312 297.246094 126.503906 299.066406 127.523438 300.785156 C 128.851562 303.023438 130.78125 305.210938 131.207031 306.097656 C 133.003906 309.765625 134.128906 312.613281 134.292969 316.753906 C 134.132812 321.554688 132.605469 324.871094 130.132812 328.917969 C 131.679688 324.847656 132.484375 321.433594 131.386719 317.140625 C 130.441406 313.800781 128.882812 311.671875 126.742188 309.007812 C 123.0625 304.800781 119.378906 301.390625 117.050781 297.960938 C 117.570312 295.835938 117.695312 294.300781 117.285156 292.269531 C 117.28125 293.613281 116.921875 295.1875 116.039062 297.324219 C 114.246094 301.683594 112.15625 304.097656 111.113281 309.398438 C 109.644531 302.5625 110.613281 302.972656 112.195312 296.183594 C 112.601562 293.914062 110.777344 292.082031 110.527344 289.773438 C 110.464844 288.515625 108.890625 288.453125 108.304688 287.351562 C 107.121094 285.5 105.957031 285.085938 104.964844 284.242188 C 103.84375 283.289062 101.722656 280.210938 101.261719 283.761719 C 101.082031 285.152344 99.027344 285.417969 99.480469 286.675781 C 99.125 288.054688 99.699219 289.644531 99.535156 291.175781 C 99.160156 294.558594 99.382812 294.070312 99.503906 295.175781 C 99.570312 295.742188 99.042969 297.003906 99.59375 298.898438 C 101.542969 305.609375 102.84375 312.367188 102.792969 320.621094 C 100.996094 310.308594 96.800781 302.40625 92.328125 294.898438 C 93.40625 292.8125 93.371094 291.351562 92.769531 289.023438 C 92.898438 292.390625 91.621094 293.800781 90.441406 294.585938 C 88.167969 296.089844 85.644531 297.386719 83.769531 299.125 C 82.457031 300.285156 81.609375 301.28125 80.945312 302.921875 C 80.0625 305.117188 80.167969 306.976562 80.714844 309.25 C 79.28125 307.039062 78.488281 305.242188 78.253906 302.597656 C 78.214844 300.199219 78.691406 298.480469 79.671875 296.320312 C 81.378906 292.894531 83.914062 290.089844 85.355469 286.980469 C 85.730469 286.242188 86.078125 285.550781 86.300781 284.789062 C 88 280.863281 88.652344 276.546875 88.101562 273.132812 C 88.007812 275.261719 87.769531 277.132812 86.777344 279.042969 C 86.246094 280.175781 86.222656 281.449219 84.890625 282.511719 C 84.265625 280.808594 83.066406 278.28125 82.289062 276.351562 C 79.34375 269.007812 81.574219 263.398438 76.34375 257.261719 C 77.90625 261.203125 78.414062 263.460938 78.3125 265.140625 C 77.980469 270.890625 79.246094 270.289062 79.453125 276.09375 C 79.480469 276.890625 79.664062 277.800781 79.699219 278.910156 C 80.085938 281.898438 80.125 284.273438 79.402344 287.207031 C 78.859375 289.4375 78.148438 290.976562 76.84375 292.855469 C 74.5625 295.984375 71.917969 298.214844 69.691406 301.488281 C 70.960938 298.023438 73.054688 295.035156 74.417969 291.59375 C 75.023438 289.867188 75.269531 288.570312 75.28125 286.734375 C 75.160156 284.714844 75.074219 284.292969 75.292969 282.222656 C 75.707031 279.089844 75.898438 278.597656 75.570312 275.273438 C 75.265625 279.765625 73.210938 282.140625 69.589844 284.730469 C 65.6875 287.386719 62.300781 289.03125 59.40625 292.941406 C 61.597656 288.476562 64.597656 286.28125 67.988281 282.867188 C 68.828125 281.992188 69.554688 281.191406 70.1875 280.296875 C 72.496094 277.011719 70.824219 272.710938 69.777344 269.261719 C 69.191406 267.140625 68.820312 265.328125 68.671875 263.125 C 68.558594 259.761719 68.167969 257.851562 67.234375 256.46875 C 65.304688 253.605469 59.632812 251.175781 64.082031 245.820312 C 63.011719 246.191406 62.246094 246.609375 61.390625 247.367188 C 60.570312 248.175781 60.109375 248.90625 59.707031 249.984375 C 59.304688 251.183594 59.21875 252.140625 59.308594 253.398438 C 59.339844 253.832031 59.390625 254.230469 59.464844 254.617188 C 59.476562 255.722656 60.019531 257.085938 60.589844 258.261719 C 61.011719 259.121094 61.425781 259.996094 61.800781 260.90625 C 62.792969 263.453125 63.246094 265.398438 63.078125 268.148438 C 62.871094 270.355469 62.417969 271.949219 61.21875 273.828125 C 60.199219 275.355469 59.203125 276.292969 57.742188 277.382812 C 54.902344 279.375 52.234375 280.625 49.546875 282.953125 C 51.460938 280.167969 53.992188 278.179688 56.023438 275.59375 C 56.910156 274.488281 57.496094 273.585938 57.953125 272.234375 C 58.34375 270.820312 58.339844 269.722656 58.144531 268.277344 C 57.792969 266.558594 57.125 265.4375 56.101562 264.042969 C 55.808594 263.375 52.945312 260.351562 52.28125 259.507812 C 50.257812 257.03125 48.4375 254.09375 48.261719 250.910156 C 48.019531 246.523438 49.394531 243.203125 50.269531 238.738281 C 51.089844 234.539062 52.410156 232.550781 53.308594 228.910156 C 53.71875 226.886719 53.726562 225.394531 53.34375 223.363281 C 53.300781 224.808594 52.804688 227.238281 51.972656 228.441406 C 51.636719 229.0625 51.289062 229.617188 50.914062 230.140625 C 50.644531 224.226562 48.988281 218.882812 48.542969 212.660156 C 48.1875 207.601562 47.046875 203.292969 44.34375 198.300781 C 41.582031 194.035156 38.726562 191.125 35.082031 188.300781 C 34.753906 188.417969 34.4375 188.542969 34.132812 188.664062 C 29.839844 190.257812 27.488281 190.957031 22.8125 190.113281 C 20.351562 189.445312 19.039062 188.027344 16.769531 187.058594 C 15.53125 186.582031 14.628906 186.488281 13.3125 186.726562 C 11.363281 187.09375 9.894531 188.03125 8.339844 189.222656 C 9.824219 187.804688 11.167969 186.703125 13.101562 185.957031 C 14.582031 185.5 15.648438 185.464844 17.15625 185.792969 C 19.214844 186.351562 21.253906 187.671875 23.15625 187.882812 C 26.835938 188.128906 28.746094 187.390625 31.589844 185.773438 C 27.082031 182.945312 22.476562 180.6875 17.972656 177.953125 C 16.292969 177.007812 14.707031 176.0625 13.34375 174.683594 C 12.84375 174.191406 12.457031 173.738281 12.148438 173.101562 C 11.917969 172.792969 11.800781 172.007812 11.828125 171.617188 C 11.972656 172.121094 12.179688 172.445312 12.53125 172.835938 C 12.667969 173.078125 13.671875 173.722656 13.945312 173.875 C 15.035156 174.496094 17.683594 175.402344 18.902344 175.683594 C 23.71875 176.859375 28.535156 177.953125 33.242188 179.507812 C 35.566406 180.277344 37.625 181.675781 39.742188 182.890625 C 41.371094 184.085938 42.820312 185.429688 44.425781 186.582031 C 48.796875 189.71875 56.148438 197.851562 59.269531 202.613281 C 61.027344 205.160156 63.710938 209.277344 66.414062 211.890625 C 68.355469 213.765625 69.605469 214.78125 71.503906 216.960938 C 70.113281 214.53125 68.640625 212.476562 67.238281 210.152344 C 65.425781 207.15625 63.535156 203.144531 62.457031 200.738281 C 61.917969 199.542969 60.605469 198.363281 59.960938 197.304688 C 58.84375 195.289062 56.996094 194.132812 55.796875 192.285156 C 52.945312 187.761719 50.582031 185.277344 48.011719 180.558594 C 46.363281 177.53125 46.304688 172.40625 44.917969 170.625 C 43.609375 168.9375 41.933594 167.625 40.019531 166.234375 C 36.324219 163.679688 32.683594 161.691406 29.347656 158.613281 C 27.265625 156.628906 26.082031 154.941406 25.066406 152.25 C 24.609375 151.566406 23.78125 147.324219 23.5625 146.253906 C 22.695312 142.039062 21.816406 139.074219 19.445312 136.382812 C 22.53125 138.796875 24.542969 140.925781 26.609375 145.234375 C 27.375 146.996094 28.03125 148.636719 29.058594 150.273438 C 30.203125 151.949219 31.234375 152.886719 32.9375 153.988281 C 35.730469 155.5625 39 156.722656 42.089844 157.949219 C 42.953125 159.101562 44.117188 160.515625 45.78125 162.4375 C 48.851562 166.089844 49.089844 169.8125 51.554688 173.335938 C 49.679688 168.949219 50.058594 165.476562 47.34375 161.164062 C 42.269531 154.125 43.234375 153.65625 42.3125 149.398438 C 42.273438 148.566406 42.25 147.726562 42.234375 146.871094 C 42.363281 139.390625 43.339844 133.734375 46.105469 126.753906 C 48.988281 120.160156 52.175781 115.613281 57.105469 110.863281 C 56.902344 110.40625 56.617188 110.027344 56.203125 109.585938 C 55.933594 109.074219 53.871094 107.84375 53.351562 107.414062 C 52.140625 106.597656 51.125 105.898438 50.078125 104.863281 C 49.148438 104.078125 48.253906 102.296875 47.933594 101.136719 C 48.746094 102.402344 49.539062 103.105469 50.859375 103.808594 C 52.046875 104.410156 53.136719 104.730469 54.402344 105.101562 C 55.785156 105.507812 56.980469 105.859375 58.289062 106.5 C 59.007812 106.789062 59.765625 107.359375 60.425781 108.019531 C 68.15625 102.308594 75.921875 100.542969 85.585938 99.191406 L 85.8125 99.164062 C 95.597656 83.675781 93.988281 86.640625 109.5 77.019531 C 95.613281 87.0625 97.960938 86.296875 91.582031 98.636719 C 100.945312 97.914062 110.335938 97.800781 119.730469 97.460938 C 121.390625 97.398438 123.023438 97.332031 124.636719 97.261719 C 128.914062 88.578125 134.367188 74.34375 138.78125 68.082031 C 141.460938 64.554688 143.910156 63.054688 148.070312 61.617188 C 154.039062 59.921875 160.386719 59.503906 166.554688 59.109375 C 166.566406 59.105469 166.683594 59.089844 166.6875 59.089844 C 166.824219 59.085938 167.4375 58.921875 167.621094 58.882812 C 167.316406 58.972656 167.011719 59.070312 166.710938 59.160156 C 166.691406 59.164062 166.5625 59.183594 166.5625 59.1875 C 160.492188 59.929688 154.289062 60.726562 148.578125 63.007812 C 144.914062 64.546875 142.855469 66.015625 140.695312 69.371094 C 138.992188 72.53125 137.324219 76.808594 135.644531 81.421875 C 138.851562 79.691406 142.09375 78.40625 146.027344 77.59375 C 150.152344 76.796875 153 76.84375 157.113281 77.484375 C 160.179688 77.976562 163.035156 78.660156 166.15625 78.859375 C 169.445312 79.199219 173.238281 78.152344 176.148438 76.675781 C 172.71875 78.730469 170.144531 79.636719 166.167969 79.953125 C 162.980469 80.085938 160.066406 79.714844 156.914062 79.53125 C 153.109375 79.386719 150.511719 79.601562 146.828125 80.675781 C 141.640625 82.492188 137.34375 85.386719 133.023438 88.742188 C 132.007812 91.574219 130.980469 94.378906 129.925781 96.996094 C 155.1875 95.558594 174.582031 91.792969 198.148438 77.394531 C 198.9375 76.894531 199.183594 77.054688 200.113281 76.359375 C 199.332031 77 198.957031 77.023438 198.25 77.539062 C 182.285156 88.894531 168.027344 94.902344 152.210938 98.71875 C 154.492188 98.953125 156.8125 99.285156 159.191406 99.75 C 167.894531 101.757812 176.476562 103.933594 185.324219 105.226562 C 205.371094 107.417969 222.007812 100.4375 243.359375 98.191406 C 221.601562 100.992188 205.152344 108.996094 185.0625 107.535156 C 176.042969 106.621094 167.375 104.792969 158.496094 103.050781 C 146.597656 101.390625 136.25 102.511719 124.796875 103.480469 C 123.300781 103.675781 121.78125 103.867188 120.238281 104.054688 C 109.171875 105.257812 98.035156 106.152344 87.101562 108.328125 C 79.378906 109.960938 72.332031 111.882812 66.539062 117.523438 C 65.890625 118.203125 65.285156 118.867188 64.71875 119.527344 C 72.613281 118.039062 74.804688 120.253906 84.828125 120.523438 C 95.578125 120.175781 101.644531 116.742188 115.90625 116.851562 C 99.765625 117.574219 96.972656 121.578125 84.972656 123.164062 C 73.554688 123.871094 72.21875 121.257812 60.546875 125.515625 C 59.617188 127.234375 58.828125 129.09375 58.101562 131.234375 C 56.453125 136.578125 56.101562 140.851562 56.441406 146.414062 C 57.503906 157.261719 60.707031 165.910156 65.648438 175.140625 C 65.765625 174.761719 65.890625 174.382812 66.019531 173.996094 C 67.179688 170.847656 68.394531 168.511719 70.476562 165.863281 C 72.667969 163.230469 74.683594 161.589844 77.734375 160.027344 C 83.191406 157.21875 89.179688 152.734375 94.796875 150.214844 C 98.800781 146.890625 99.40625 143.917969 101.847656 139.542969 C 103.414062 136.960938 104.789062 135.390625 107.203125 133.554688 C 110.726562 131.230469 114.097656 130.023438 118.136719 128.863281 C 114.394531 130.425781 111.242188 132.019531 108.316406 134.878906 C 106.390625 136.769531 105.410156 138.292969 104.410156 140.78125 C 103.230469 143.9375 102.746094 146.195312 101.761719 148.414062 C 105.011719 148.175781 108.042969 148.597656 111.519531 149.226562 C 115.550781 150.105469 119.566406 151.203125 123.546875 152.410156 C 128.367188 151.917969 131.09375 151.238281 135.214844 148.625 C 139.617188 145.746094 142.734375 143.277344 147.550781 140.679688 C 142.796875 144.128906 140.769531 146.578125 136.832031 150.589844 C 135 152.355469 133.382812 153.613281 131.65625 154.578125 C 132.640625 155.078125 133.617188 155.53125 134.582031 155.945312 C 143.933594 158.894531 156.867188 157.105469 166.148438 154.847656 C 173.609375 152.984375 180.074219 152.023438 187.765625 151.703125 C 193.492188 151.539062 198.066406 152.554688 203.265625 152.570312 " fill-opacity="1" fill-rule="nonzero"/></g><path fill="#fcd116" d="M 180.707031 59.179688 C 180.597656 62.867188 179.136719 66.515625 176.328125 69.328125 C 173.511719 72.140625 169.867188 73.597656 166.179688 73.707031 C 166.289062 70.023438 167.75 66.375 170.558594 63.558594 C 173.375 60.75 177.023438 59.289062 180.707031 59.179688 " fill-opacity="1" fill-rule="evenodd"/><path fill="#fcd116" d="M 196.363281 83.730469 C 199.019531 86.285156 202.617188 87.871094 206.59375 87.910156 C 210.566406 87.949219 214.195312 86.433594 216.902344 83.933594 C 214.246094 81.378906 210.648438 79.792969 206.675781 79.753906 C 202.699219 79.714844 199.070312 81.230469 196.363281 83.730469 " fill-opacity="1" fill-rule="evenodd"/><path fill="#fcd116" d="M 195.21875 54.261719 C 197.777344 56.921875 199.359375 60.519531 199.402344 64.496094 C 199.441406 68.46875 197.929688 72.097656 195.425781 74.804688 C 192.871094 72.148438 191.285156 68.550781 191.242188 64.574219 C 191.203125 60.597656 192.71875 56.972656 195.21875 54.261719 " fill-opacity="1" fill-rule="evenodd"/><path fill="#fcd116" d="M 219.238281 62.492188 C 215.585938 62.003906 211.75 62.851562 208.519531 65.171875 C 205.289062 67.492188 203.261719 70.859375 202.558594 74.476562 C 206.210938 74.964844 210.050781 74.117188 213.28125 71.800781 C 216.507812 69.476562 218.539062 66.109375 219.238281 62.492188 " fill-opacity="1" fill-rule="evenodd"/><path fill="#fcd116" d="M 124.878906 49.0625 C 124.988281 52.75 126.445312 56.398438 129.257812 59.210938 C 132.070312 62.019531 135.722656 63.480469 139.402344 63.589844 C 139.296875 59.90625 137.835938 56.253906 135.023438 53.441406 C 132.214844 50.632812 128.5625 49.171875 124.878906 49.0625 " fill-opacity="1" fill-rule="evenodd"/><path fill="#fcd116" d="M 158.515625 46.027344 C 158.414062 49.707031 156.953125 53.359375 154.140625 56.167969 C 151.328125 58.984375 147.675781 60.441406 143.996094 60.550781 C 144.105469 56.867188 145.5625 53.214844 148.375 50.40625 C 151.183594 47.59375 154.835938 46.136719 158.515625 46.027344 " fill-opacity="1" fill-rule="evenodd"/><path fill="#fcd116" d="M 181.367188 50.113281 C 180.152344 53.59375 177.660156 56.632812 174.125 58.460938 C 170.597656 60.292969 166.675781 60.582031 163.132812 59.570312 C 164.351562 56.09375 166.84375 53.050781 170.371094 51.222656 C 173.902344 49.390625 177.824219 49.105469 181.367188 50.113281 " fill-opacity="1" fill-rule="evenodd"/><path fill="#fcd116" d="M 162.460938 61.734375 C 162.351562 65.421875 160.890625 69.070312 158.082031 71.882812 C 155.273438 74.695312 151.621094 76.152344 147.9375 76.261719 C 148.042969 72.578125 149.5 68.925781 152.316406 66.113281 C 155.125 63.304688 158.777344 61.847656 162.460938 61.734375 " fill-opacity="1" fill-rule="evenodd"/><path fill="#fcd116" d="M 198.503906 155.917969 C 199.632812 159.425781 202.046875 162.527344 205.53125 164.449219 C 209.011719 166.367188 212.925781 166.753906 216.492188 165.832031 C 215.363281 162.324219 212.949219 159.222656 209.46875 157.304688 C 205.988281 155.386719 202.074219 155 198.503906 155.917969 " fill-opacity="1" fill-rule="evenodd"/><path fill="#fcd116" d="M 197.21875 149.359375 C 196.128906 145.835938 196.328125 141.910156 198.078125 138.34375 C 199.824219 134.773438 202.808594 132.207031 206.257812 130.914062 C 207.347656 134.429688 207.148438 138.359375 205.402344 141.929688 C 203.652344 145.5 200.671875 148.0625 197.21875 149.359375 " fill-opacity="1" fill-rule="evenodd"/><path fill="#fcd116" d="M 204.300781 151.359375 C 206.578125 148.464844 209.921875 146.394531 213.851562 145.804688 C 217.78125 145.214844 221.585938 146.210938 224.613281 148.3125 C 222.339844 151.207031 218.996094 153.28125 215.0625 153.871094 C 211.132812 154.460938 207.328125 153.464844 204.300781 151.359375 " fill-opacity="1" fill-rule="evenodd"/><g clip-path="url(#aeaa2340e4)"><path fill="#fcd116" d="M 243.742188 99.265625 C 245.773438 102.335938 248.9375 104.667969 252.808594 105.578125 C 256.679688 106.488281 260.550781 105.800781 263.738281 103.949219 C 261.707031 100.878906 258.539062 98.542969 254.671875 97.636719 C 250.800781 96.730469 246.929688 97.414062 243.742188 99.265625 " fill-opacity="1" fill-rule="evenodd"/></g><path fill="#fcd116" d="M 248.660156 114.746094 C 248.054688 111.113281 246.113281 107.691406 242.945312 105.292969 C 239.78125 102.886719 235.960938 101.933594 232.300781 102.332031 C 232.90625 105.964844 234.847656 109.382812 238.015625 111.789062 C 241.183594 114.191406 244.996094 115.140625 248.660156 114.746094 " fill-opacity="1" fill-rule="evenodd"/><path fill="#fcd116" d="M 231.882812 97.292969 C 231.9375 93.609375 233.34375 89.9375 236.113281 87.085938 C 238.886719 84.238281 242.515625 82.726562 246.199219 82.5625 C 246.140625 86.25 244.734375 89.921875 241.964844 92.769531 C 239.191406 95.625 235.558594 97.132812 231.882812 97.292969 " fill-opacity="1" fill-rule="evenodd"/><path fill="#fcd116" d="M 140.355469 142.789062 C 137.507812 140.449219 135.515625 137.0625 135.007812 133.117188 C 134.503906 129.175781 135.585938 125.394531 137.753906 122.414062 C 140.605469 124.753906 142.601562 128.140625 143.101562 132.085938 C 143.605469 136.027344 142.523438 139.804688 140.355469 142.789062 " fill-opacity="1" fill-rule="evenodd"/><path fill="#fcd116" d="M 145.613281 146.414062 C 148.28125 148.953125 151.890625 150.515625 155.867188 150.527344 C 159.839844 150.542969 163.460938 149.007812 166.152344 146.488281 C 163.480469 143.953125 159.871094 142.386719 155.894531 142.371094 C 151.917969 142.359375 148.300781 143.898438 145.613281 146.414062 " fill-opacity="1" fill-rule="evenodd"/><path fill="#fcd116" d="M 149.171875 138.800781 C 149.707031 135.15625 151.574219 131.691406 154.6875 129.226562 C 157.804688 126.753906 161.597656 125.722656 165.269531 126.039062 C 164.742188 129.6875 162.871094 133.148438 159.753906 135.613281 C 156.640625 138.082031 152.847656 139.117188 149.171875 138.800781 " fill-opacity="1" fill-rule="evenodd"/><path fill="#fcd116" d="M 105.554688 55.527344 C 102.636719 57.769531 100.527344 61.09375 99.894531 65.015625 C 99.265625 68.941406 100.21875 72.757812 102.285156 75.808594 C 105.210938 73.558594 107.316406 70.238281 107.949219 66.316406 C 108.578125 62.390625 107.625 58.578125 105.554688 55.527344 " fill-opacity="1" fill-rule="evenodd"/><path fill="#fcd116" d="M 107.230469 82.5625 C 110.128906 80.285156 113.863281 79.066406 117.824219 79.425781 C 121.785156 79.78125 125.246094 81.652344 127.6875 84.414062 C 124.789062 86.6875 121.050781 87.90625 117.089844 87.550781 C 113.132812 87.191406 109.671875 85.324219 107.230469 82.5625 " fill-opacity="1" fill-rule="evenodd"/><path fill="#fcd116" d="M 111.679688 75.320312 C 112.941406 71.859375 115.476562 68.847656 119.027344 67.0625 C 122.578125 65.28125 126.503906 65.039062 130.03125 66.09375 C 128.773438 69.558594 126.246094 72.566406 122.691406 74.351562 C 119.136719 76.136719 115.214844 76.375 111.679688 75.320312 " fill-opacity="1" fill-rule="evenodd"/><path fill="#fcd116" d="M 163.5 165.75 C 163.21875 169.425781 164.292969 173.210938 166.792969 176.300781 C 169.292969 179.386719 172.773438 181.21875 176.425781 181.714844 C 176.703125 178.042969 175.632812 174.257812 173.132812 171.164062 C 170.632812 168.074219 167.152344 166.242188 163.5 165.75 " fill-opacity="1" fill-rule="evenodd"/><path fill="#fcd116" d="M 172.097656 162.695312 C 175.226562 164.644531 179.074219 165.460938 182.972656 164.683594 C 186.867188 163.902344 190.109375 161.675781 192.246094 158.671875 C 189.117188 156.714844 185.269531 155.902344 181.371094 156.683594 C 177.476562 157.460938 174.238281 159.6875 172.097656 162.695312 " fill-opacity="1" fill-rule="evenodd"/><path fill="#fcd116" d="M 177.601562 168.839844 C 178.601562 172.390625 180.90625 175.574219 184.320312 177.613281 C 187.734375 179.65625 191.628906 180.179688 195.226562 179.386719 C 194.222656 175.839844 191.917969 172.65625 188.507812 170.617188 C 185.09375 168.570312 181.199219 168.050781 177.601562 168.839844 " fill-opacity="1" fill-rule="evenodd"/><path fill="#fcd116" d="M 79.597656 125.53125 C 83.113281 124.425781 87.042969 124.613281 90.617188 126.351562 C 94.195312 128.089844 96.765625 131.058594 98.074219 134.503906 C 94.558594 135.609375 90.628906 135.421875 87.050781 133.6875 C 83.476562 131.949219 80.902344 128.976562 79.597656 125.53125 " fill-opacity="1" fill-rule="evenodd"/><path fill="#fcd116" d="M 91.261719 116.835938 C 94.777344 117.933594 98.707031 117.75 102.277344 116.011719 C 105.855469 114.277344 108.429688 111.304688 109.738281 107.859375 C 106.222656 106.757812 102.292969 106.941406 98.71875 108.675781 C 95.140625 110.410156 92.566406 113.386719 91.261719 116.835938 " fill-opacity="1" fill-rule="evenodd"/><path fill="#fcd116" d="M 112.75 118.460938 C 116.265625 117.359375 120.191406 117.542969 123.769531 119.28125 C 127.34375 121.019531 129.917969 123.988281 131.222656 127.4375 C 127.707031 128.539062 123.785156 128.355469 120.203125 126.617188 C 116.628906 124.878906 114.058594 121.90625 112.75 118.460938 " fill-opacity="1" fill-rule="evenodd"/><path fill="#fcd116" d="M 115.671875 114.855469 C 117.382812 111.589844 120.289062 108.945312 124.046875 107.644531 C 127.800781 106.34375 131.722656 106.625 135.085938 108.136719 C 133.378906 111.40625 130.472656 114.054688 126.714844 115.351562 C 122.957031 116.652344 119.035156 116.367188 115.671875 114.855469 " fill-opacity="1" fill-rule="evenodd"/><path fill="#fcd116" d="M 33.449219 126.375 C 30.527344 128.617188 28.417969 131.9375 27.785156 135.863281 C 27.152344 139.789062 28.109375 143.601562 30.175781 146.652344 C 33.101562 144.410156 35.203125 141.085938 35.835938 137.160156 C 36.472656 133.238281 35.515625 129.421875 33.449219 126.375 " fill-opacity="1" fill-rule="evenodd"/><path fill="#fcd116" d="M 11.226562 159.882812 C 14.453125 158.105469 18.34375 157.507812 22.191406 158.5 C 26.042969 159.496094 29.152344 161.902344 31.117188 165.019531 C 27.886719 166.796875 24 167.394531 20.152344 166.398438 C 16.304688 165.40625 13.191406 163.003906 11.226562 159.882812 " fill-opacity="1" fill-rule="evenodd"/><path fill="#fcd116" d="M 102.402344 165.976562 C 104.109375 162.714844 107.015625 160.066406 110.773438 158.765625 C 114.53125 157.464844 118.453125 157.75 121.8125 159.265625 C 120.105469 162.527344 117.199219 165.175781 113.441406 166.472656 C 109.683594 167.777344 105.761719 167.492188 102.402344 165.976562 " fill-opacity="1" fill-rule="evenodd"/><path fill="#fcd116" d="M 101.339844 170.699219 C 100.714844 174.328125 101.417969 178.199219 103.617188 181.507812 C 105.816406 184.824219 109.105469 186.980469 112.695312 187.8125 C 113.316406 184.183594 112.613281 180.316406 110.414062 176.996094 C 108.21875 173.6875 104.925781 171.53125 101.339844 170.699219 " fill-opacity="1" fill-rule="evenodd"/><path fill="#fcd116" d="M 115.183594 171.421875 C 117.3125 174.433594 120.546875 176.671875 124.441406 177.453125 C 128.339844 178.242188 132.1875 177.441406 135.316406 175.492188 C 133.191406 172.484375 129.957031 170.25 126.0625 169.460938 C 122.164062 168.671875 118.316406 169.476562 115.183594 171.421875 " fill-opacity="1" fill-rule="evenodd"/><path fill="#fcd116" d="M 110.929688 136.378906 C 113.792969 138.695312 117.511719 139.96875 121.480469 139.667969 C 125.441406 139.367188 128.929688 137.546875 131.410156 134.824219 C 128.546875 132.507812 124.828125 131.234375 120.863281 131.53125 C 116.898438 131.832031 113.410156 133.652344 110.929688 136.378906 " fill-opacity="1" fill-rule="evenodd"/><path fill="#fcd116" d="M 146.347656 84.9375 C 148.589844 87.863281 151.910156 89.972656 155.832031 90.605469 C 159.757812 91.242188 163.574219 90.292969 166.625 88.222656 C 164.382812 85.300781 161.0625 83.195312 157.136719 82.554688 C 153.214844 81.921875 149.398438 82.875 146.347656 84.9375 " fill-opacity="1" fill-rule="evenodd"/><path fill="#fcd116" d="M 9.175781 203.515625 C 10.203125 199.972656 12.527344 196.804688 15.953125 194.785156 C 19.375 192.765625 23.277344 192.265625 26.871094 193.085938 C 25.84375 196.625 23.515625 199.792969 20.09375 201.8125 C 16.671875 203.828125 12.765625 204.328125 9.175781 203.515625 " fill-opacity="1" fill-rule="evenodd"/><path fill="#fcd116" d="M 82.027344 183.042969 C 82.585938 186.6875 84.476562 190.128906 87.613281 192.578125 C 90.746094 195.023438 94.546875 196.027344 98.21875 195.683594 C 97.660156 192.039062 95.765625 188.59375 92.632812 186.148438 C 89.5 183.699219 85.691406 182.699219 82.027344 183.042969 " fill-opacity="1" fill-rule="evenodd"/><path fill="#fcd116" d="M 59.484375 83.324219 C 56.5625 85.566406 54.460938 88.890625 53.824219 92.8125 C 53.191406 96.734375 54.144531 100.554688 56.214844 103.601562 C 59.140625 101.355469 61.246094 98.035156 61.878906 94.113281 C 62.511719 90.1875 61.554688 86.375 59.484375 83.324219 " fill-opacity="1" fill-rule="evenodd"/><path fill="#fcd116" d="M 31.574219 116.722656 C 35.226562 117.199219 39.058594 116.34375 42.285156 114.015625 C 45.507812 111.683594 47.53125 108.316406 48.21875 104.695312 C 44.570312 104.214844 40.734375 105.074219 37.507812 107.402344 C 34.285156 109.730469 32.265625 113.101562 31.574219 116.722656 " fill-opacity="1" fill-rule="evenodd"/><g clip-path="url(#be6fedff2a)"><g transform="matrix(1, 0, 0, 1, 111, 45)"><g clip-path="url(#b00c36df08)"><g clip-path="url(#398e5a4f2d)"><path fill="#ce1126" d="M 60.730469 107.570312 C 65.820312 108.316406 71.023438 107.921875 76.132812 108.308594 C 83.632812 109.03125 89.875 110.296875 97.074219 112.507812 C 101.484375 113.777344 106.304688 114.890625 111.203125 115.566406 C 104.105469 116.789062 96.632812 118.242188 87.53125 123.105469 C 104.589844 115.714844 114.832031 119.3125 128.738281 115.636719 C 129.476562 115.519531 130.207031 115.378906 130.929688 115.214844 C 138.292969 113.105469 145.839844 110.996094 153.4375 109.925781 C 157.074219 109.417969 160.433594 109.078125 164.011719 110.109375 C 166.671875 111.058594 170.917969 113.964844 175.042969 116.789062 C 173.117188 117.109375 171.3125 117.730469 169.449219 118.847656 C 164.894531 121.742188 155.582031 125.121094 150.234375 125.929688 C 155.855469 126.082031 165.457031 123.332031 170.707031 121.140625 C 173.347656 120.015625 175.777344 119.90625 178.597656 120.238281 C 179.402344 120.367188 180.171875 120.519531 180.914062 120.714844 C 181.554688 121.113281 182.160156 121.476562 182.726562 121.796875 C 184.621094 122.902344 185.832031 124.011719 187.136719 125.769531 C 188.484375 127.699219 189.234375 129.414062 189.929688 131.652344 C 190.65625 134.300781 191.039062 136.800781 191.1875 139.3125 C 190.796875 138.921875 190.367188 138.527344 189.882812 138.128906 C 185.878906 135.234375 180.886719 133.761719 176.277344 132.089844 C 180.367188 134.253906 185.011719 136.46875 188.128906 139.960938 C 189.390625 141.441406 190.007812 142.65625 190.53125 144.527344 C 190.769531 145.625 190.898438 146.667969 190.949219 147.710938 L 190.945312 147.761719 C 190.242188 153.441406 192.671875 160.851562 190.59375 166.476562 C 187.582031 171.589844 188.597656 176.851562 186.433594 180.722656 C 186.09375 181.328125 184.140625 184.546875 183.824219 185.148438 C 186.546875 184.257812 188.59375 181.957031 190.628906 179.875 C 193.578125 176.851562 196.242188 176.40625 198.601562 173.855469 C 199.867188 172.421875 200.789062 170.945312 201.753906 169.304688 C 204.289062 165.0625 205.949219 161.925781 209.632812 158.449219 C 206.523438 162.359375 205.367188 165.679688 203.589844 170.222656 C 202.800781 172.15625 202.066406 173.871094 200.953125 175.652344 C 199.699219 177.53125 198.558594 178.726562 196.601562 179.882812 C 191.863281 183.082031 189.355469 186.472656 186.226562 189.953125 C 181.707031 194.980469 174.066406 199.03125 170.941406 203.671875 C 168.734375 206.960938 165.308594 207.949219 162.574219 210.746094 C 161.144531 212.207031 159.75 213.96875 158.171875 215.910156 C 157.585938 216.625 156.984375 217.363281 156.339844 218.117188 C 156.671875 218.046875 157.003906 217.976562 157.339844 217.914062 C 159.957031 217.28125 161.734375 216.183594 164.191406 215.226562 C 166.261719 214.417969 168.527344 214.402344 170.707031 213.472656 C 173.167969 212.398438 175.480469 210.617188 178.136719 209.375 C 181.4375 208.113281 183.179688 207.015625 185.296875 204.042969 C 186.9375 201.761719 189.746094 200.730469 191.71875 198.355469 C 191.8125 198.242188 191.90625 198.128906 191.992188 198.007812 C 191.914062 198.121094 191.835938 198.226562 191.757812 198.335938 C 190.671875 199.792969 189.429688 200.820312 188.304688 201.824219 C 189.558594 200.851562 190.972656 199.808594 192.15625 198.125 C 190.972656 199.808594 189.558594 200.851562 188.304688 201.824219 C 187.402344 202.636719 186.574219 203.4375 185.949219 204.449219 C 183.714844 208.019531 182.238281 208.796875 178.824219 210.800781 C 176.183594 212.273438 174.179688 214.144531 171.6875 215.5625 C 169.351562 216.703125 167.4375 216.953125 165.269531 217.910156 C 162.601562 219.21875 161.117188 220.515625 158.085938 221.382812 C 155.539062 222.222656 152.769531 225.117188 149.859375 226.640625 C 142.941406 230.261719 135.5625 233.691406 130.984375 237.804688 C 127.535156 241.023438 125.449219 243.753906 121.394531 246.242188 C 123.628906 245.988281 125.21875 245.082031 127.414062 245.285156 C 123.859375 246.34375 123.320312 248.546875 118.128906 248.863281 C 115.039062 249.011719 111.695312 247.257812 108.417969 246.703125 C 104.792969 246.085938 101.472656 246.226562 96.707031 246.390625 C 91.667969 246.800781 85.316406 247.15625 80.476562 245.640625 C 85.171875 247.914062 91.535156 248.078125 96.707031 248.441406 C 104.566406 248.773438 106.640625 249.351562 109.691406 250.738281 C 107.425781 251.292969 105.140625 251.6875 102.882812 251.914062 C 96.976562 252.296875 90.824219 252.253906 84.90625 252.210938 C 44.769531 252.664062 63.855469 268.574219 24.953125 261.550781 C 62.398438 270.246094 48.199219 256.078125 84.652344 257.5 C 91.867188 258.078125 98.230469 258.5 105.476562 257.574219 C 108.34375 257.207031 111.859375 257.085938 114.242188 255 C 112.941406 257.410156 108.257812 258.492188 105.707031 259.101562 C 95.769531 261.296875 96.449219 264.289062 89.4375 269.535156 C 87.675781 270.78125 86.191406 271.601562 84.121094 272.25 C 81.640625 272.953125 79.769531 272.972656 77.257812 272.351562 C 79.753906 273.285156 81.695312 273.484375 84.324219 273.105469 C 86.601562 272.683594 88.273438 272 90.3125 270.929688 C 91.449219 270.269531 92.410156 269.601562 93.292969 268.957031 C 92.328125 270.851562 91.574219 272.84375 90.832031 275.054688 C 90.53125 276.007812 90.226562 276.816406 89.722656 277.683594 C 89.25 278.433594 88.828125 278.894531 88.101562 279.40625 C 86.207031 280.652344 83.953125 280.855469 81.742188 281.011719 C 84.066406 281.039062 86.332031 281.042969 88.472656 280.035156 C 89.367188 279.546875 89.914062 279.0625 90.546875 278.261719 C 91.230469 277.371094 91.644531 276.550781 92.085938 275.523438 C 93.730469 271.734375 95.4375 268.542969 98.582031 265.792969 C 100.621094 264.066406 102.269531 263.269531 104.871094 262.722656 C 106.480469 262.410156 107.996094 262.308594 109.554688 262.191406 C 114.042969 261.839844 114.640625 259.492188 118.355469 258.621094 C 116.476562 259.492188 115.472656 260.699219 114.097656 261.976562 C 112.722656 263.253906 111.820312 263.574219 110.640625 265.109375 C 108.949219 267.316406 106.976562 269.488281 105.390625 271.84375 C 102.480469 276.148438 102.117188 279.042969 102.105469 284 C 104.171875 276.632812 107.917969 272.828125 113.921875 268.195312 C 117.640625 265.328125 121.289062 262.871094 124.847656 257.992188 C 128.535156 252.933594 130.210938 251.570312 133.371094 248.464844 C 138.871094 243.066406 143.777344 242.328125 149.753906 238.089844 C 146.054688 242.550781 143.617188 242.863281 140.925781 247.800781 C 140.316406 248.914062 139.28125 250.136719 138.464844 251.410156 C 137.921875 252.246094 137.488281 254.066406 136.46875 255.785156 C 135.140625 258.023438 133.210938 260.210938 132.789062 261.097656 C 130.988281 264.765625 129.867188 267.613281 129.699219 271.753906 C 129.863281 276.554688 131.386719 279.871094 133.859375 283.917969 C 132.3125 279.847656 131.511719 276.433594 132.609375 272.140625 C 133.554688 268.800781 135.113281 266.671875 137.253906 264.007812 C 140.929688 259.800781 144.613281 256.390625 146.941406 252.960938 C 146.421875 250.835938 146.296875 249.300781 146.707031 247.269531 C 146.710938 248.613281 147.070312 250.1875 147.953125 252.324219 C 149.746094 256.683594 151.839844 259.097656 152.882812 264.398438 C 154.351562 257.5625 153.382812 257.972656 151.796875 251.183594 C 151.390625 248.914062 153.214844 247.082031 153.464844 244.773438 C 153.53125 243.515625 155.101562 243.453125 155.6875 242.351562 C 156.871094 240.5 158.039062 240.085938 159.027344 239.242188 C 160.148438 238.289062 162.273438 235.210938 162.734375 238.761719 C 162.914062 240.152344 164.96875 240.417969 164.515625 241.675781 C 164.871094 243.054688 164.292969 244.644531 164.460938 246.175781 C 164.832031 249.558594 164.609375 249.070312 164.488281 250.175781 C 164.421875 250.742188 164.949219 252.003906 164.398438 253.898438 C 162.449219 260.609375 161.148438 267.367188 161.199219 275.621094 C 163 265.308594 167.195312 257.40625 171.667969 249.898438 C 170.585938 247.8125 170.621094 246.351562 171.222656 244.023438 C 171.09375 247.390625 172.371094 248.800781 173.550781 249.585938 C 175.824219 251.089844 178.347656 252.386719 180.226562 254.125 C 181.535156 255.285156 182.382812 256.28125 183.046875 257.921875 C 183.929688 260.117188 183.824219 261.976562 183.277344 264.25 C 184.710938 262.039062 185.503906 260.242188 185.738281 257.597656 C 185.777344 255.199219 185.300781 253.480469 184.320312 251.320312 C 182.613281 247.894531 180.078125 245.089844 178.640625 241.980469 C 178.265625 241.242188 177.914062 240.550781 177.691406 239.789062 C 175.996094 235.863281 175.339844 231.546875 175.890625 228.132812 C 175.984375 230.261719 176.226562 232.132812 177.21875 234.042969 C 177.746094 235.175781 177.773438 236.449219 179.101562 237.511719 C 179.730469 235.808594 180.925781 233.28125 181.703125 231.351562 C 184.652344 224.007812 182.421875 218.398438 187.648438 212.261719 C 186.085938 216.203125 185.578125 218.460938 185.679688 220.140625 C 186.015625 225.890625 184.75 225.289062 184.539062 231.09375 C 184.515625 231.890625 184.332031 232.800781 184.296875 233.910156 C 183.90625 236.898438 183.867188 239.273438 184.589844 242.207031 C 185.132812 244.4375 185.84375 245.976562 187.148438 247.855469 C 189.433594 250.984375 192.074219 253.214844 194.300781 256.488281 C 193.035156 253.023438 190.941406 250.035156 189.578125 246.59375 C 188.96875 244.867188 188.722656 243.570312 188.714844 241.734375 C 188.832031 239.714844 188.917969 239.292969 188.699219 237.222656 C 188.285156 234.089844 188.09375 233.597656 188.421875 230.273438 C 188.726562 234.765625 190.78125 237.140625 194.40625 239.730469 C 198.304688 242.386719 201.695312 244.03125 204.585938 247.941406 C 202.394531 243.476562 199.394531 241.28125 196.007812 237.867188 C 195.164062 236.992188 194.4375 236.191406 193.808594 235.296875 C 191.496094 232.011719 193.171875 227.710938 194.214844 224.261719 C 194.800781 222.140625 195.175781 220.328125 195.324219 218.125 C 195.433594 214.761719 195.828125 212.851562 196.757812 211.46875 C 198.691406 208.605469 204.359375 206.175781 199.910156 200.820312 C 200.980469 201.191406 201.75 201.609375 202.605469 202.367188 C 203.425781 203.175781 203.886719 203.90625 204.285156 204.984375 C 204.6875 206.183594 204.773438 207.140625 204.683594 208.398438 C 204.652344 208.832031 204.601562 209.230469 204.53125 209.617188 C 204.515625 210.722656 203.976562 212.085938 203.402344 213.261719 C 202.980469 214.121094 202.570312 214.996094 202.195312 215.90625 C 201.203125 218.453125 200.75 220.398438 200.917969 223.148438 C 201.121094 225.355469 201.574219 226.949219 202.773438 228.828125 C 203.796875 230.355469 204.792969 231.292969 206.25 232.382812 C 209.089844 234.375 211.757812 235.625 214.445312 237.953125 C 212.53125 235.167969 210 233.179688 207.96875 230.59375 C 207.085938 229.488281 206.496094 228.585938 206.039062 227.234375 C 205.648438 225.820312 205.652344 224.722656 205.851562 223.277344 C 206.199219 221.558594 206.867188 220.4375 207.890625 219.042969 C 208.183594 218.375 211.050781 215.351562 211.710938 214.507812 C 213.738281 212.03125 215.558594 209.09375 215.734375 205.910156 C 215.972656 201.523438 214.601562 198.203125 213.722656 193.738281 C 212.902344 189.539062 211.585938 187.550781 210.683594 183.910156 C 210.273438 181.886719 210.269531 180.394531 210.648438 178.363281 C 210.691406 179.808594 211.1875 182.238281 212.019531 183.441406 C 212.359375 184.0625 212.703125 184.617188 213.078125 185.140625 C 213.347656 179.226562 215.007812 173.882812 215.449219 167.660156 C 215.804688 162.601562 216.945312 158.292969 219.652344 153.300781 C 222.410156 149.035156 225.269531 146.125 228.914062 143.300781 C 229.238281 143.417969 229.554688 143.542969 229.859375 143.664062 C 234.15625 145.257812 236.503906 145.957031 241.179688 145.113281 C 243.640625 144.445312 244.957031 143.027344 247.222656 142.058594 C 248.464844 141.582031 249.367188 141.488281 250.679688 141.726562 C 252.628906 142.09375 254.097656 143.03125 255.652344 144.222656 C 254.167969 142.804688 252.824219 141.703125 250.890625 140.957031 C 249.414062 140.5 248.34375 140.464844 246.835938 140.792969 C 244.777344 141.351562 242.738281 142.671875 240.835938 142.882812 C 237.160156 143.128906 235.25 142.390625 232.402344 140.773438 C 236.910156 137.945312 241.515625 135.6875 246.019531 132.953125 C 247.699219 132.007812 249.289062 131.0625 250.652344 129.683594 C 251.152344 129.191406 251.535156 128.738281 251.84375 128.101562 C 252.074219 127.792969 252.191406 127.007812 252.164062 126.617188 C 252.023438 127.121094 251.8125 127.445312 251.464844 127.835938 C 251.324219 128.078125 250.320312 128.722656 250.050781 128.875 C 248.960938 129.496094 246.308594 130.402344 245.09375 130.683594 C 240.273438 131.859375 235.457031 132.953125 230.75 134.507812 C 228.425781 135.277344 226.367188 136.675781 224.25 137.890625 C 222.625 139.085938 221.171875 140.429688 219.570312 141.582031 C 215.195312 144.71875 207.84375 152.851562 204.722656 157.613281 C 202.964844 160.160156 200.285156 164.277344 197.578125 166.890625 C 195.640625 168.765625 194.386719 169.78125 192.492188 171.960938 C 193.878906 169.53125 195.351562 167.476562 196.753906 165.152344 C 198.566406 162.15625 200.457031 158.144531 201.535156 155.738281 C 202.074219 154.542969 203.390625 153.363281 204.03125 152.304688 C 205.148438 150.289062 206.996094 149.132812 208.195312 147.285156 C 211.050781 142.761719 213.414062 140.277344 215.980469 135.558594 C 217.628906 132.53125 217.6875 127.40625 219.074219 125.625 C 220.386719 123.9375 222.058594 122.625 223.972656 121.234375 C 227.667969 118.679688 231.308594 116.691406 234.644531 113.613281 C 236.726562 111.628906 237.910156 109.941406 238.929688 107.25 C 239.386719 106.566406 240.214844 102.324219 240.433594 101.253906 C 241.300781 97.039062 242.179688 94.074219 244.550781 91.382812 C 241.460938 93.796875 239.449219 95.925781 237.386719 100.234375 C 236.617188 101.996094 235.960938 103.636719 234.933594 105.273438 C 233.792969 106.949219 232.757812 107.886719 231.058594 108.988281 C 228.261719 110.5625 224.996094 111.722656 221.902344 112.949219 C 221.039062 114.101562 219.878906 115.515625 218.210938 117.4375 C 215.144531 121.089844 214.902344 124.8125 212.4375 128.335938 C 214.3125 123.949219 213.933594 120.476562 216.652344 116.164062 C 221.722656 109.125 220.757812 108.65625 221.679688 104.398438 C 221.71875 103.566406 221.742188 102.726562 221.761719 101.871094 C 221.628906 94.390625 220.65625 88.734375 217.886719 81.753906 C 215.007812 75.160156 211.820312 70.613281 206.886719 65.863281 C 207.089844 65.40625 207.375 65.027344 207.789062 64.585938 C 208.058594 64.074219 210.125 62.84375 210.640625 62.414062 C 211.851562 61.597656 212.871094 60.898438 213.917969 59.863281 C 214.84375 59.078125 215.742188 57.296875 216.0625 56.136719 C 215.246094 57.402344 214.457031 58.105469 213.136719 58.808594 C 211.949219 59.410156 210.859375 59.730469 209.589844 60.101562 C 208.207031 60.507812 207.011719 60.859375 205.703125 61.5 C 204.988281 61.789062 204.226562 62.359375 203.570312 63.019531 C 195.835938 57.308594 188.074219 55.542969 178.410156 54.191406 L 178.183594 54.164062 C 168.394531 38.675781 170.003906 41.640625 154.492188 32.019531 C 168.382812 42.0625 166.03125 41.296875 172.410156 53.636719 C 163.050781 52.914062 153.660156 52.800781 144.265625 52.460938 C 142.601562 52.398438 140.96875 52.332031 139.355469 52.261719 C 135.078125 43.578125 129.625 29.34375 125.214844 23.082031 C 122.535156 19.554688 120.082031 18.054688 115.925781 16.617188 C 109.957031 14.921875 103.605469 14.503906 97.4375 14.109375 C 97.425781 14.105469 97.308594 14.089844 97.304688 14.089844 C 97.167969 14.085938 96.558594 13.921875 96.375 13.882812 C 96.675781 13.972656 96.980469 14.070312 97.285156 14.160156 C 97.300781 14.164062 97.429688 14.183594 97.429688 14.1875 C 103.5 14.929688 109.703125 15.726562 115.417969 18.007812 C 119.078125 19.546875 121.136719 21.015625 123.296875 24.371094 C 125 27.53125 126.667969 31.808594 128.347656 36.421875 C 125.140625 34.691406 121.898438 33.40625 117.96875 32.59375 C 113.839844 31.796875 110.996094 31.84375 106.878906 32.484375 C 103.8125 32.976562 100.957031 33.660156 97.835938 33.859375 C 94.550781 34.199219 90.753906 33.152344 87.847656 31.675781 C 91.273438 33.730469 93.847656 34.636719 97.828125 34.953125 C 101.015625 35.085938 103.925781 34.714844 107.082031 34.53125 C 110.882812 34.386719 113.480469 34.601562 117.164062 35.675781 C 122.355469 37.492188 126.648438 40.386719 130.96875 43.742188 C 131.984375 46.574219 133.015625 49.378906 134.066406 51.996094 C 108.808594 50.558594 89.410156 46.792969 65.84375 32.394531 C 65.058594 31.894531 64.808594 32.054688 63.878906 31.359375 C 64.660156 32 65.035156 32.023438 65.746094 32.539062 C 81.707031 43.894531 95.964844 49.902344 111.78125 53.71875 C 109.5 53.953125 107.179688 54.285156 104.804688 54.75 C 96.101562 56.757812 87.515625 58.933594 78.667969 60.226562 C 58.625 62.417969 41.988281 55.4375 20.632812 53.191406 C 42.390625 55.992188 58.839844 63.996094 78.929688 62.535156 C 87.949219 61.621094 96.617188 59.792969 105.496094 58.050781 C 117.394531 56.390625 127.742188 57.511719 139.195312 58.480469 C 140.691406 58.675781 142.210938 58.867188 143.753906 59.054688 C 154.820312 60.257812 165.957031 61.152344 176.890625 63.328125 C 184.613281 64.960938 191.660156 66.882812 197.457031 72.523438 C 198.105469 73.203125 198.707031 73.867188 199.273438 74.527344 C 191.378906 73.039062 189.1875 75.253906 179.164062 75.523438 C 168.414062 75.175781 162.347656 71.742188 148.085938 71.851562 C 164.230469 72.574219 167.019531 76.578125 179.019531 78.164062 C 190.441406 78.871094 191.773438 76.257812 203.445312 80.515625 C 204.375 82.234375 205.167969 84.09375 205.894531 86.234375 C 207.539062 91.578125 207.890625 95.851562 207.550781 101.414062 C 206.492188 112.261719 203.289062 120.910156 198.34375 130.140625 C 198.226562 129.761719 198.105469 129.382812 197.972656 128.996094 C 196.816406 125.847656 195.597656 123.511719 193.515625 120.863281 C 191.324219 118.230469 189.308594 116.589844 186.257812 115.027344 C 180.800781 112.21875 174.816406 107.734375 169.199219 105.214844 C 165.195312 101.890625 164.585938 98.917969 162.144531 94.542969 C 160.582031 91.960938 159.203125 90.390625 156.789062 88.554688 C 153.265625 86.230469 149.894531 85.023438 145.859375 83.863281 C 149.601562 85.425781 152.753906 87.019531 155.675781 89.878906 C 157.601562 91.769531 158.585938 93.292969 159.585938 95.78125 C 160.765625 98.9375 161.246094 101.195312 162.234375 103.414062 C 158.980469 103.175781 155.949219 103.597656 152.476562 104.226562 C 148.441406 105.105469 144.425781 106.203125 140.449219 107.410156 C 135.625 106.917969 132.898438 106.238281 128.78125 103.625 C 124.375 100.746094 121.261719 98.277344 116.441406 95.679688 C 121.195312 99.128906 123.222656 101.578125 127.160156 105.589844 C 128.992188 107.355469 130.609375 108.613281 132.335938 109.578125 C 131.351562 110.078125 130.375 110.53125 129.414062 110.945312 C 120.058594 113.894531 107.128906 112.105469 97.84375 109.847656 C 90.382812 107.984375 83.917969 107.023438 76.230469 106.699219 C 70.5 106.539062 65.929688 107.554688 60.730469 107.570312 " fill-opacity="1" fill-rule="nonzero"/></g><path fill="#fcd116" d="M 83.289062 14.179688 C 83.394531 17.867188 84.855469 21.515625 87.667969 24.328125 C 90.480469 27.140625 94.128906 28.597656 97.8125 28.707031 C 97.703125 25.023438 96.242188 21.375 93.433594 18.558594 C 90.621094 15.75 86.972656 14.289062 83.289062 14.179688 " fill-opacity="1" fill-rule="evenodd"/><path fill="#fcd116" d="M 67.628906 38.730469 C 64.972656 41.285156 61.375 42.871094 57.402344 42.910156 C 53.425781 42.949219 49.796875 41.433594 47.089844 38.933594 C 49.75 36.378906 53.347656 34.792969 57.316406 34.753906 C 61.292969 34.714844 64.925781 36.230469 67.628906 38.730469 " fill-opacity="1" fill-rule="evenodd"/><path fill="#fcd116" d="M 68.773438 9.261719 C 66.214844 11.921875 64.632812 15.519531 64.59375 19.496094 C 64.554688 23.46875 66.066406 27.097656 68.570312 29.804688 C 71.125 27.148438 72.710938 23.550781 72.75 19.574219 C 72.789062 15.597656 71.273438 11.972656 68.773438 9.261719 " fill-opacity="1" fill-rule="evenodd"/><path fill="#fcd116" d="M 44.753906 17.492188 C 48.40625 17.003906 52.246094 17.851562 55.472656 20.171875 C 58.703125 22.492188 60.734375 25.859375 61.433594 29.476562 C 57.78125 29.964844 53.941406 29.117188 50.710938 26.800781 C 47.484375 24.476562 45.457031 21.109375 44.753906 17.492188 " fill-opacity="1" fill-rule="evenodd"/><path fill="#fcd116" d="M 139.117188 4.0625 C 139.003906 7.75 137.546875 11.398438 134.734375 14.210938 C 131.925781 17.019531 128.273438 18.480469 124.589844 18.589844 C 124.695312 14.90625 126.15625 11.253906 128.96875 8.441406 C 131.78125 5.632812 135.433594 4.171875 139.117188 4.0625 " fill-opacity="1" fill-rule="evenodd"/><path fill="#fcd116" d="M 105.476562 1.027344 C 105.582031 4.707031 107.039062 8.359375 109.851562 11.167969 C 112.664062 13.984375 116.316406 15.441406 119.996094 15.550781 C 119.890625 11.867188 118.433594 8.214844 115.617188 5.40625 C 112.808594 2.59375 109.15625 1.136719 105.476562 1.027344 " fill-opacity="1" fill-rule="evenodd"/><path fill="#fcd116" d="M 82.625 5.113281 C 83.839844 8.59375 86.335938 11.632812 89.867188 13.460938 C 93.394531 15.292969 97.316406 15.582031 100.859375 14.570312 C 99.644531 11.09375 97.148438 8.050781 93.621094 6.222656 C 90.089844 4.390625 86.167969 4.105469 82.625 5.113281 " fill-opacity="1" fill-rule="evenodd"/><path fill="#fcd116" d="M 101.53125 16.734375 C 101.640625 20.421875 103.101562 24.070312 105.910156 26.882812 C 108.722656 29.695312 112.371094 31.152344 116.058594 31.261719 C 115.949219 27.578125 114.492188 23.925781 111.679688 21.113281 C 108.867188 18.304688 105.21875 16.847656 101.53125 16.734375 " fill-opacity="1" fill-rule="evenodd"/><path fill="#fcd116" d="M 65.488281 110.917969 C 64.359375 114.425781 61.945312 117.527344 58.460938 119.449219 C 54.984375 121.367188 51.070312 121.753906 47.5 120.832031 C 48.628906 117.324219 51.042969 114.222656 54.527344 112.304688 C 58.003906 110.386719 61.917969 110 65.488281 110.917969 " fill-opacity="1" fill-rule="evenodd"/><path fill="#fcd116" d="M 66.773438 104.359375 C 67.863281 100.835938 67.664062 96.910156 65.917969 93.34375 C 64.167969 89.773438 61.1875 87.207031 57.734375 85.914062 C 56.644531 89.429688 56.84375 93.359375 58.589844 96.929688 C 60.339844 100.5 63.324219 103.0625 66.773438 104.359375 " fill-opacity="1" fill-rule="evenodd"/><path fill="#fcd116" d="M 59.691406 106.359375 C 57.414062 103.464844 54.074219 101.394531 50.140625 100.804688 C 46.210938 100.214844 42.410156 101.210938 39.378906 103.3125 C 41.652344 106.207031 45 108.28125 48.929688 108.871094 C 52.859375 109.460938 56.667969 108.464844 59.691406 106.359375 " fill-opacity="1" fill-rule="evenodd"/><g clip-path="url(#5769c75432)"><path fill="#fcd116" d="M 20.253906 54.265625 C 18.21875 57.335938 15.058594 59.667969 11.1875 60.578125 C 7.316406 61.488281 3.441406 60.800781 0.253906 58.949219 C 2.289062 55.878906 5.453125 53.542969 9.320312 52.636719 C 13.195312 51.730469 17.066406 52.414062 20.253906 54.265625 " fill-opacity="1" fill-rule="evenodd"/></g><path fill="#fcd116" d="M 15.335938 69.746094 C 15.9375 66.113281 17.882812 62.691406 21.046875 60.292969 C 24.214844 57.886719 28.03125 56.933594 31.695312 57.332031 C 31.085938 60.964844 29.148438 64.382812 25.976562 66.789062 C 22.8125 69.191406 18.996094 70.140625 15.335938 69.746094 " fill-opacity="1" fill-rule="evenodd"/><path fill="#fcd116" d="M 32.109375 52.292969 C 32.058594 48.609375 30.652344 44.9375 27.878906 42.085938 C 25.105469 39.238281 21.480469 37.726562 17.796875 37.5625 C 17.851562 41.25 19.257812 44.921875 22.03125 47.769531 C 24.800781 50.625 28.433594 52.132812 32.109375 52.292969 " fill-opacity="1" fill-rule="evenodd"/><path fill="#fcd116" d="M 123.636719 97.789062 C 126.484375 95.449219 128.476562 92.0625 128.984375 88.117188 C 129.488281 84.175781 128.410156 80.394531 126.238281 77.414062 C 123.390625 79.753906 121.394531 83.140625 120.894531 87.085938 C 120.390625 91.027344 121.46875 94.804688 123.636719 97.789062 " fill-opacity="1" fill-rule="evenodd"/><path fill="#fcd116" d="M 118.382812 101.414062 C 115.710938 103.953125 112.101562 105.515625 108.128906 105.527344 C 104.152344 105.542969 100.53125 104.007812 97.839844 101.488281 C 100.515625 98.953125 104.125 97.386719 108.097656 97.371094 C 112.074219 97.359375 115.695312 98.898438 118.382812 101.414062 " fill-opacity="1" fill-rule="evenodd"/><path fill="#fcd116" d="M 114.820312 93.800781 C 114.289062 90.15625 112.417969 86.691406 109.304688 84.226562 C 106.1875 81.753906 102.394531 80.722656 98.722656 81.039062 C 99.25 84.6875 101.121094 88.148438 104.238281 90.613281 C 107.355469 93.082031 111.144531 94.117188 114.820312 93.800781 " fill-opacity="1" fill-rule="evenodd"/><path fill="#fcd116" d="M 158.4375 10.527344 C 161.359375 12.769531 163.464844 16.09375 164.101562 20.015625 C 164.730469 23.941406 163.777344 27.757812 161.707031 30.808594 C 158.78125 28.558594 156.675781 25.238281 156.042969 21.316406 C 155.414062 17.390625 156.367188 13.578125 158.4375 10.527344 " fill-opacity="1" fill-rule="evenodd"/><path fill="#fcd116" d="M 156.765625 37.5625 C 153.863281 35.285156 150.128906 34.066406 146.167969 34.425781 C 142.207031 34.78125 138.75 36.652344 136.304688 39.414062 C 139.203125 41.6875 142.941406 42.90625 146.902344 42.550781 C 150.859375 42.191406 154.320312 40.324219 156.765625 37.5625 " fill-opacity="1" fill-rule="evenodd"/><path fill="#fcd116" d="M 152.3125 30.320312 C 151.050781 26.859375 148.515625 23.847656 144.964844 22.0625 C 141.414062 20.28125 137.488281 20.039062 133.960938 21.09375 C 135.21875 24.558594 137.75 27.566406 141.304688 29.351562 C 144.855469 31.136719 148.78125 31.375 152.3125 30.320312 " fill-opacity="1" fill-rule="evenodd"/><path fill="#fcd116" d="M 100.492188 120.75 C 100.773438 124.425781 99.703125 128.210938 97.199219 131.300781 C 94.699219 134.386719 91.222656 136.21875 87.570312 136.714844 C 87.292969 133.042969 88.359375 129.257812 90.859375 126.164062 C 93.363281 123.074219 96.839844 121.242188 100.492188 120.75 " fill-opacity="1" fill-rule="evenodd"/><path fill="#fcd116" d="M 91.894531 117.695312 C 88.765625 119.644531 84.921875 120.460938 81.019531 119.683594 C 77.125 118.902344 73.882812 116.675781 71.75 113.671875 C 74.875 111.714844 78.722656 110.902344 82.621094 111.683594 C 86.519531 112.460938 89.757812 114.6875 91.894531 117.695312 " fill-opacity="1" fill-rule="evenodd"/><path fill="#fcd116" d="M 86.394531 123.839844 C 85.390625 127.390625 83.085938 130.574219 79.671875 132.613281 C 76.261719 134.65625 72.363281 135.179688 68.765625 134.386719 C 69.769531 130.839844 72.078125 127.65625 75.488281 125.617188 C 78.898438 123.570312 82.792969 123.050781 86.394531 123.839844 " fill-opacity="1" fill-rule="evenodd"/><path fill="#fcd116" d="M 184.394531 80.53125 C 180.878906 79.425781 176.953125 79.613281 173.375 81.351562 C 169.800781 83.089844 167.226562 86.058594 165.921875 89.503906 C 169.4375 90.609375 173.363281 90.421875 176.941406 88.6875 C 180.515625 86.949219 183.089844 83.976562 184.394531 80.53125 " fill-opacity="1" fill-rule="evenodd"/><path fill="#fcd116" d="M 172.730469 71.832031 C 169.214844 72.933594 165.289062 72.75 161.714844 71.011719 C 158.136719 69.277344 155.5625 66.304688 154.257812 62.859375 C 157.769531 61.757812 161.699219 61.941406 165.277344 63.675781 C 168.851562 65.410156 171.425781 68.386719 172.730469 71.832031 " fill-opacity="1" fill-rule="evenodd"/><path fill="#fcd116" d="M 151.246094 73.460938 C 147.726562 72.359375 143.800781 72.542969 140.222656 74.28125 C 136.648438 76.019531 134.074219 78.988281 132.769531 82.4375 C 136.285156 83.539062 140.210938 83.355469 143.789062 81.617188 C 147.367188 79.878906 149.933594 76.90625 151.246094 73.460938 " fill-opacity="1" fill-rule="evenodd"/><path fill="#fcd116" d="M 148.320312 69.855469 C 146.609375 66.589844 143.703125 63.945312 139.949219 62.644531 C 136.191406 61.34375 132.269531 61.625 128.910156 63.136719 C 130.613281 66.40625 133.519531 69.054688 137.277344 70.351562 C 141.039062 71.652344 144.960938 71.367188 148.320312 69.855469 " fill-opacity="1" fill-rule="evenodd"/><path fill="#fcd116" d="M 230.546875 81.375 C 233.46875 83.617188 235.574219 86.9375 236.207031 90.863281 C 236.84375 94.789062 235.886719 98.601562 233.816406 101.652344 C 230.890625 99.410156 228.789062 96.085938 228.15625 92.160156 C 227.519531 88.238281 228.476562 84.421875 230.546875 81.375 " fill-opacity="1" fill-rule="evenodd"/><path fill="#fcd116" d="M 252.765625 114.882812 C 249.539062 113.105469 245.648438 112.507812 241.804688 113.5 C 237.949219 114.496094 234.839844 116.902344 232.878906 120.019531 C 236.109375 121.796875 239.992188 122.394531 243.839844 121.398438 C 247.691406 120.40625 250.800781 118.003906 252.765625 114.882812 " fill-opacity="1" fill-rule="evenodd"/><path fill="#fcd116" d="M 161.59375 120.976562 C 159.882812 117.714844 156.976562 115.066406 153.21875 113.765625 C 149.464844 112.464844 145.542969 112.75 142.179688 114.265625 C 143.886719 117.527344 146.792969 120.175781 150.554688 121.472656 C 154.308594 122.777344 158.230469 122.492188 161.59375 120.976562 " fill-opacity="1" fill-rule="evenodd"/><path fill="#fcd116" d="M 162.652344 125.699219 C 163.28125 129.328125 162.574219 133.199219 160.375 136.507812 C 158.179688 139.824219 154.890625 141.980469 151.296875 142.8125 C 150.675781 139.183594 151.382812 135.316406 153.578125 131.996094 C 155.773438 128.6875 159.066406 126.53125 162.652344 125.699219 " fill-opacity="1" fill-rule="evenodd"/><path fill="#fcd116" d="M 148.808594 126.421875 C 146.683594 129.433594 143.449219 131.671875 139.550781 132.453125 C 135.65625 133.242188 131.804688 132.441406 128.675781 130.492188 C 130.800781 127.484375 134.035156 125.25 137.933594 124.460938 C 141.828125 123.671875 145.679688 124.476562 148.808594 126.421875 " fill-opacity="1" fill-rule="evenodd"/><path fill="#fcd116" d="M 153.066406 91.378906 C 150.203125 93.695312 146.480469 94.96875 142.511719 94.667969 C 138.550781 94.367188 135.066406 92.546875 132.582031 89.824219 C 135.445312 87.507812 139.167969 86.234375 143.132812 86.53125 C 147.097656 86.832031 150.582031 88.652344 153.066406 91.378906 " fill-opacity="1" fill-rule="evenodd"/><path fill="#fcd116" d="M 117.648438 39.9375 C 115.402344 42.863281 112.085938 44.972656 108.160156 45.605469 C 104.234375 46.242188 100.421875 45.292969 97.371094 43.222656 C 99.609375 40.300781 102.933594 38.195312 106.859375 37.554688 C 110.777344 36.921875 114.597656 37.875 117.648438 39.9375 " fill-opacity="1" fill-rule="evenodd"/><path fill="#fcd116" d="M 254.816406 158.515625 C 253.792969 154.972656 251.46875 151.804688 248.039062 149.785156 C 244.617188 147.765625 240.71875 147.265625 237.121094 148.085938 C 238.148438 151.625 240.476562 154.792969 243.902344 156.8125 C 247.324219 158.828125 251.226562 159.328125 254.816406 158.515625 " fill-opacity="1" fill-rule="evenodd"/><path fill="#fcd116" d="M 181.96875 138.042969 C 181.410156 141.6875 179.515625 145.128906 176.378906 147.578125 C 173.246094 150.023438 169.445312 151.027344 165.777344 150.683594 C 166.335938 147.039062 168.226562 143.59375 171.359375 141.148438 C 174.496094 138.699219 178.300781 137.699219 181.96875 138.042969 " fill-opacity="1" fill-rule="evenodd"/><path fill="#fcd116" d="M 204.507812 38.324219 C 207.429688 40.566406 209.535156 43.890625 210.167969 47.8125 C 210.800781 51.734375 209.847656 55.554688 207.777344 58.601562 C 204.851562 56.355469 202.75 53.035156 202.117188 49.113281 C 201.480469 45.1875 202.4375 41.375 204.507812 38.324219 " fill-opacity="1" fill-rule="evenodd"/><path fill="#fcd116" d="M 232.421875 71.722656 C 228.769531 72.199219 224.933594 71.34375 221.710938 69.015625 C 218.484375 66.683594 216.464844 63.316406 215.773438 59.695312 C 219.425781 59.214844 223.261719 60.074219 226.484375 62.402344 C 229.707031 64.730469 231.730469 68.101562 232.421875 71.722656 " fill-opacity="1" fill-rule="evenodd"/></g></g></g><path fill="#d71920" d="M 206.789062 271.679688 C 205.820312 271.679688 205.035156 270.894531 205.035156 269.925781 L 205.035156 262.910156 L 169.960938 262.910156 L 169.960938 269.925781 C 169.960938 270.894531 169.175781 271.679688 168.210938 271.679688 C 167.242188 271.679688 166.457031 270.894531 166.457031 269.925781 L 166.457031 261.15625 C 166.457031 260.1875 167.242188 259.402344 168.210938 259.402344 L 206.789062 259.402344 C 207.761719 259.402344 208.542969 260.1875 208.542969 261.15625 L 208.542969 269.925781 C 208.542969 270.894531 207.761719 271.679688 206.789062 271.679688 Z M 206.789062 271.679688 " fill-opacity="1" fill-rule="nonzero"/><path fill="#d71920" d="M 147.164062 231.34375 C 146.195312 231.34375 145.410156 230.558594 145.410156 229.589844 L 145.410156 220.824219 C 145.410156 219.855469 146.195312 219.070312 147.164062 219.070312 L 182.238281 219.070312 L 182.238281 215.5625 C 182.238281 214.59375 183.023438 213.808594 183.992188 213.808594 C 184.960938 213.808594 185.746094 214.59375 185.746094 215.5625 L 185.746094 220.824219 C 185.746094 221.789062 184.960938 222.574219 183.992188 222.574219 L 148.917969 222.574219 L 148.917969 229.589844 C 148.917969 230.558594 148.132812 231.34375 147.164062 231.34375 Z M 147.164062 231.34375 " fill-opacity="1" fill-rule="nonzero"/><path fill="#d71920" d="M 183.992188 231.34375 C 183.023438 231.34375 182.238281 230.558594 182.238281 229.589844 L 182.238281 220.824219 C 182.238281 219.855469 183.023438 219.070312 183.992188 219.070312 C 184.960938 219.070312 185.746094 219.855469 185.746094 220.824219 L 185.746094 229.589844 C 185.746094 230.558594 184.960938 231.34375 183.992188 231.34375 Z M 183.992188 231.34375 " fill-opacity="1" fill-rule="nonzero"/><path fill="#d71920" d="M 201.527344 215.5625 L 166.457031 215.5625 C 165.488281 215.5625 164.703125 214.777344 164.703125 213.808594 L 164.703125 206.792969 C 164.703125 205.824219 165.488281 205.039062 166.457031 205.039062 C 167.421875 205.039062 168.210938 205.824219 168.210938 206.792969 L 168.210938 212.054688 L 199.777344 212.054688 L 199.777344 206.792969 C 199.777344 205.824219 200.558594 205.039062 201.527344 205.039062 C 202.5 205.039062 203.28125 205.824219 203.28125 206.792969 L 203.28125 213.808594 C 203.28125 214.777344 202.5 215.5625 201.527344 215.5625 Z M 201.527344 215.5625 " fill-opacity="1" fill-rule="nonzero"/><path fill="#d71920" d="M 220.820312 255.894531 L 185.746094 255.894531 C 184.777344 255.894531 183.992188 255.109375 183.992188 254.140625 L 183.992188 247.128906 C 183.992188 246.160156 184.777344 245.375 185.746094 245.375 C 186.714844 245.375 187.5 246.160156 187.5 247.128906 L 187.5 252.390625 L 219.066406 252.390625 L 219.066406 247.128906 C 219.066406 246.160156 219.851562 245.375 220.820312 245.375 C 221.789062 245.375 222.574219 246.160156 222.574219 247.128906 L 222.574219 254.140625 C 222.574219 255.109375 221.789062 255.894531 220.820312 255.894531 Z M 220.820312 255.894531 " fill-opacity="1" fill-rule="nonzero"/><path fill="#d71920" d="M 203.28125 262.910156 C 202.3125 262.910156 201.527344 262.125 201.527344 261.15625 L 201.527344 254.140625 C 201.527344 253.175781 202.3125 252.390625 203.28125 252.390625 C 204.253906 252.390625 205.035156 253.175781 205.035156 254.140625 L 205.035156 261.15625 C 205.035156 262.125 204.253906 262.910156 203.28125 262.910156 Z M 203.28125 262.910156 " fill-opacity="1" fill-rule="nonzero"/><path fill="#fcd116" d="M 183.992188 234.851562 L 183.804688 235.222656 C 182.84375 237.144531 180.882812 238.359375 178.730469 238.359375 L 178.730469 241.867188 C 178.730469 245.742188 181.871094 248.882812 185.746094 248.882812 C 189.621094 248.882812 192.761719 245.742188 192.761719 241.867188 L 192.761719 238.359375 L 192.460938 238.359375 C 189.28125 238.359375 186.238281 237.097656 183.992188 234.851562 Z M 183.992188 234.851562 " fill-opacity="1" fill-rule="nonzero"/><path fill="#000f74" d="M 161.195312 239.234375 C 161.195312 239.523438 161.167969 239.808594 161.109375 240.089844 C 161.054688 240.375 160.96875 240.648438 160.859375 240.914062 C 160.75 241.179688 160.617188 241.433594 160.457031 241.671875 C 160.296875 241.910156 160.113281 242.132812 159.910156 242.335938 C 159.707031 242.539062 159.484375 242.722656 159.246094 242.882812 C 159.007812 243.042969 158.753906 243.175781 158.488281 243.285156 C 158.222656 243.398438 157.949219 243.480469 157.664062 243.535156 C 157.382812 243.59375 157.097656 243.621094 156.808594 243.621094 C 156.523438 243.621094 156.238281 243.59375 155.953125 243.535156 C 155.671875 243.480469 155.398438 243.398438 155.132812 243.285156 C 154.867188 243.175781 154.613281 243.042969 154.375 242.882812 C 154.136719 242.722656 153.914062 242.539062 153.710938 242.335938 C 153.507812 242.132812 153.324219 241.910156 153.164062 241.671875 C 153.003906 241.433594 152.871094 241.179688 152.757812 240.914062 C 152.648438 240.648438 152.566406 240.375 152.511719 240.089844 C 152.453125 239.808594 152.425781 239.523438 152.425781 239.234375 C 152.425781 238.949219 152.453125 238.664062 152.511719 238.382812 C 152.566406 238.097656 152.648438 237.824219 152.757812 237.558594 C 152.871094 237.292969 153.003906 237.039062 153.164062 236.800781 C 153.324219 236.5625 153.507812 236.339844 153.710938 236.136719 C 153.914062 235.933594 154.136719 235.75 154.375 235.589844 C 154.613281 235.429688 154.867188 235.296875 155.132812 235.1875 C 155.398438 235.074219 155.671875 234.992188 155.953125 234.9375 C 156.238281 234.878906 156.523438 234.851562 156.808594 234.851562 C 157.097656 234.851562 157.382812 234.878906 157.664062 234.9375 C 157.949219 234.992188 158.222656 235.074219 158.488281 235.1875 C 158.753906 235.296875 159.007812 235.429688 159.246094 235.589844 C 159.484375 235.75 159.707031 235.933594 159.910156 236.136719 C 160.113281 236.339844 160.296875 236.5625 160.457031 236.800781 C 160.617188 237.039062 160.75 237.292969 160.859375 237.558594 C 160.96875 237.824219 161.054688 238.097656 161.109375 238.382812 C 161.167969 238.664062 161.195312 238.949219 161.195312 239.234375 Z M 161.195312 239.234375 " fill-opacity="1" fill-rule="nonzero"/><g clip-path="url(#c17f8dd284)"><path fill="#fcd116" d="M 147.164062 248.882812 C 143.289062 248.882812 140.148438 245.742188 140.148438 241.867188 L 140.148438 238.359375 C 142.300781 238.359375 144.265625 237.144531 145.226562 235.222656 L 145.410156 234.851562 C 147.65625 237.097656 150.703125 238.359375 153.878906 238.359375 L 154.179688 238.359375 L 154.179688 241.867188 C 154.179688 245.742188 151.039062 248.882812 147.164062 248.882812 Z M 147.164062 248.882812 " fill-opacity="1" fill-rule="nonzero"/></g><path fill="#000f74" d="M 215.558594 198.902344 C 215.558594 199.1875 215.53125 199.472656 215.472656 199.757812 C 215.417969 200.039062 215.335938 200.3125 215.226562 200.578125 C 215.113281 200.84375 214.980469 201.097656 214.820312 201.335938 C 214.660156 201.578125 214.476562 201.796875 214.273438 202 C 214.070312 202.203125 213.847656 202.386719 213.609375 202.546875 C 213.371094 202.707031 213.117188 202.839844 212.851562 202.953125 C 212.585938 203.0625 212.3125 203.144531 212.03125 203.203125 C 211.746094 203.257812 211.460938 203.285156 211.175781 203.285156 C 210.886719 203.285156 210.601562 203.257812 210.320312 203.203125 C 210.035156 203.144531 209.761719 203.0625 209.496094 202.953125 C 209.230469 202.839844 208.976562 202.707031 208.738281 202.546875 C 208.5 202.386719 208.277344 202.203125 208.074219 202 C 207.871094 201.796875 207.6875 201.578125 207.527344 201.335938 C 207.367188 201.097656 207.234375 200.84375 207.125 200.578125 C 207.015625 200.3125 206.929688 200.039062 206.875 199.757812 C 206.816406 199.472656 206.789062 199.1875 206.789062 198.902344 C 206.789062 198.613281 206.816406 198.328125 206.875 198.046875 C 206.929688 197.765625 207.015625 197.488281 207.125 197.222656 C 207.234375 196.957031 207.367188 196.703125 207.527344 196.464844 C 207.6875 196.226562 207.871094 196.003906 208.074219 195.800781 C 208.277344 195.597656 208.5 195.414062 208.738281 195.257812 C 208.976562 195.097656 209.230469 194.960938 209.496094 194.851562 C 209.761719 194.742188 210.035156 194.65625 210.320312 194.601562 C 210.601562 194.546875 210.886719 194.515625 211.175781 194.515625 C 211.460938 194.515625 211.746094 194.546875 212.03125 194.601562 C 212.3125 194.65625 212.585938 194.742188 212.851562 194.851562 C 213.117188 194.960938 213.371094 195.097656 213.609375 195.257812 C 213.847656 195.414062 214.070312 195.597656 214.273438 195.800781 C 214.476562 196.003906 214.660156 196.226562 214.820312 196.464844 C 214.980469 196.703125 215.113281 196.957031 215.226562 197.222656 C 215.335938 197.488281 215.417969 197.765625 215.472656 198.046875 C 215.53125 198.328125 215.558594 198.613281 215.558594 198.902344 Z M 215.558594 198.902344 " fill-opacity="1" fill-rule="nonzero"/><g clip-path="url(#e9f73f1cd0)"><path fill="#000f74" d="M 201.527344 187.503906 C 197.65625 187.503906 194.515625 190.644531 194.515625 194.515625 L 194.515625 198.023438 L 208.542969 198.023438 L 208.542969 194.515625 C 208.542969 190.644531 205.402344 187.503906 201.527344 187.503906 Z M 201.527344 187.503906 " fill-opacity="1" fill-rule="nonzero"/></g><g clip-path="url(#df5c476431)"><path fill="#000f74" d="M 227.835938 248.882812 C 231.707031 248.882812 234.847656 245.742188 234.847656 241.867188 C 231.941406 241.867188 229.589844 239.511719 229.589844 236.605469 L 229.589844 234.851562 C 229.589844 230.976562 226.449219 227.835938 222.574219 227.835938 L 219.066406 227.835938 C 215.191406 227.835938 212.050781 230.976562 212.050781 234.851562 L 212.050781 236.605469 C 212.050781 239.511719 209.695312 241.867188 206.789062 241.867188 C 206.789062 245.742188 209.929688 248.882812 213.804688 248.882812 Z M 227.835938 248.882812 " fill-opacity="1" fill-rule="nonzero"/></g><g clip-path="url(#2dcd405245)"><path fill="#fcd116" d="M 168.210938 289.214844 C 164.335938 289.214844 161.195312 286.074219 161.195312 282.203125 L 161.195312 278.695312 C 163.34375 278.695312 165.308594 277.480469 166.269531 275.558594 L 166.457031 275.1875 C 168.703125 277.433594 171.746094 278.695312 174.921875 278.695312 L 175.222656 278.695312 L 175.222656 282.203125 C 175.222656 286.074219 172.082031 289.214844 168.210938 289.214844 Z M 168.210938 289.214844 " fill-opacity="1" fill-rule="nonzero"/></g><g clip-path="url(#83f644f4f5)"><path fill="#000f74" d="M 166.457031 187.503906 C 162.582031 187.503906 159.441406 190.644531 159.441406 194.515625 L 159.441406 198.023438 L 173.46875 198.023438 L 173.46875 194.515625 C 173.46875 190.644531 170.328125 187.503906 166.457031 187.503906 Z M 166.457031 187.503906 " fill-opacity="1" fill-rule="nonzero"/></g><path fill="#000f74" d="M 185.746094 227.835938 L 178.730469 227.835938 L 178.730469 238.359375 L 192.761719 238.359375 L 192.761719 234.851562 C 192.761719 230.976562 189.621094 227.835938 185.746094 227.835938 Z M 185.746094 227.835938 " fill-opacity="1" fill-rule="nonzero"/><g clip-path="url(#45c8fddc7b)"><path fill="#000f74" d="M 147.164062 227.835938 C 143.289062 227.835938 140.148438 230.976562 140.148438 234.851562 L 140.148438 238.359375 L 154.179688 238.359375 L 154.179688 234.851562 C 154.179688 230.976562 151.039062 227.835938 147.164062 227.835938 Z M 147.164062 227.835938 " fill-opacity="1" fill-rule="nonzero"/></g><path fill="#fcd116" d="M 201.527344 208.546875 C 205.402344 208.546875 208.542969 205.40625 208.542969 201.53125 L 208.542969 198.023438 L 208.242188 198.023438 C 205.066406 198.023438 202.023438 196.761719 199.777344 194.515625 L 199.589844 194.886719 C 198.628906 196.808594 196.664062 198.023438 194.515625 198.023438 L 194.515625 201.53125 C 194.515625 205.40625 197.65625 208.546875 201.527344 208.546875 Z M 201.527344 208.546875 " fill-opacity="1" fill-rule="nonzero"/><path fill="#fcd116" d="M 219.066406 234.851562 L 218.878906 235.222656 C 217.917969 237.144531 215.953125 238.359375 213.804688 238.359375 L 213.804688 241.867188 C 213.804688 245.742188 216.945312 248.882812 220.820312 248.882812 C 224.695312 248.882812 227.835938 245.742188 227.835938 241.867188 L 227.835938 238.359375 L 227.53125 238.359375 C 224.355469 238.359375 221.3125 237.097656 219.066406 234.851562 Z M 219.066406 234.851562 " fill-opacity="1" fill-rule="nonzero"/><path fill="#000f74" d="M 168.210938 268.171875 C 164.335938 268.171875 161.195312 271.3125 161.195312 275.1875 L 161.195312 278.695312 L 175.222656 278.695312 L 175.222656 275.1875 C 175.222656 271.3125 172.082031 268.171875 168.210938 268.171875 Z M 168.210938 268.171875 " fill-opacity="1" fill-rule="nonzero"/><path fill="#fcd116" d="M 166.457031 208.546875 C 170.328125 208.546875 173.46875 205.40625 173.46875 201.53125 L 173.46875 198.023438 L 173.167969 198.023438 C 169.992188 198.023438 166.949219 196.761719 164.703125 194.515625 L 164.515625 194.886719 C 163.554688 196.808594 161.589844 198.023438 159.441406 198.023438 L 159.441406 201.53125 C 159.441406 205.40625 162.582031 208.546875 166.457031 208.546875 Z M 166.457031 208.546875 " fill-opacity="1" fill-rule="nonzero"/><path fill="#d71920" d="M 222.574219 250.457031 L 222.574219 248.632812 C 222.011719 248.78125 221.429688 248.882812 220.820312 248.882812 C 220.210938 248.882812 219.628906 248.78125 219.066406 248.632812 L 219.066406 250.457031 C 219.632812 250.574219 220.21875 250.636719 220.820312 250.636719 C 221.417969 250.636719 222.007812 250.574219 222.574219 250.457031 Z M 222.574219 250.457031 " fill-opacity="1" fill-rule="nonzero"/><path fill="#d71920" d="M 187.5 250.457031 L 187.5 248.632812 C 186.9375 248.78125 186.355469 248.882812 185.746094 248.882812 C 185.136719 248.882812 184.554688 248.78125 183.992188 248.632812 L 183.992188 250.457031 C 184.558594 250.574219 185.144531 250.636719 185.746094 250.636719 C 186.34375 250.636719 186.933594 250.574219 187.5 250.457031 Z M 187.5 250.457031 " fill-opacity="1" fill-rule="nonzero"/><path fill="#d71920" d="M 205.035156 266.417969 L 208.542969 266.417969 L 208.542969 268.171875 L 205.035156 268.171875 Z M 205.035156 266.417969 " fill-opacity="1" fill-rule="nonzero"/><path fill="#d71920" d="M 166.457031 266.59375 L 166.457031 268.417969 C 167.019531 268.273438 167.601562 268.171875 168.210938 268.171875 C 168.816406 268.171875 169.398438 268.273438 169.960938 268.417969 L 169.960938 266.59375 C 169.394531 266.480469 168.808594 266.417969 168.210938 266.417969 C 167.609375 266.417969 167.023438 266.480469 166.457031 266.59375 Z M 166.457031 266.59375 " fill-opacity="1" fill-rule="nonzero"/><path fill="#d71920" d="M 182.238281 226.082031 L 185.746094 226.082031 L 185.746094 227.835938 L 182.238281 227.835938 Z M 182.238281 226.082031 " fill-opacity="1" fill-rule="nonzero"/><path fill="#d71920" d="M 145.410156 226.261719 L 145.410156 228.085938 C 145.972656 227.9375 146.554688 227.835938 147.164062 227.835938 C 147.773438 227.835938 148.355469 227.9375 148.917969 228.085938 L 148.917969 226.261719 C 148.351562 226.144531 147.765625 226.082031 147.164062 226.082031 C 146.566406 226.082031 145.976562 226.144531 145.410156 226.261719 Z M 145.410156 226.261719 " fill-opacity="1" fill-rule="nonzero"/><path fill="#d71920" d="M 168.210938 210.125 L 168.210938 208.300781 C 167.644531 208.445312 167.0625 208.546875 166.457031 208.546875 C 165.847656 208.546875 165.265625 208.445312 164.703125 208.300781 L 164.703125 210.125 C 165.269531 210.238281 165.855469 210.300781 166.457031 210.300781 C 167.054688 210.300781 167.640625 210.238281 168.210938 210.125 Z M 168.210938 210.125 " fill-opacity="1" fill-rule="nonzero"/><path fill="#d71920" d="M 203.28125 210.125 L 203.28125 208.300781 C 202.71875 208.445312 202.136719 208.546875 201.527344 208.546875 C 200.921875 208.546875 200.339844 208.445312 199.777344 208.300781 L 199.777344 210.125 C 200.34375 210.238281 200.929688 210.300781 201.527344 210.300781 C 202.128906 210.300781 202.714844 210.238281 203.28125 210.125 Z M 203.28125 210.125 " fill-opacity="1" fill-rule="nonzero"/><g clip-path="url(#55b2db7c87)"><path fill="#000f74" d="M 215.558594 276.941406 L 215.558594 275.1875 C 215.558594 271.3125 212.417969 268.171875 208.542969 268.171875 L 205.035156 268.171875 C 201.164062 268.171875 198.023438 271.3125 198.023438 275.1875 L 198.023438 276.941406 C 198.023438 279.847656 195.667969 282.203125 192.761719 282.203125 C 192.761719 286.074219 195.902344 289.214844 199.777344 289.214844 L 213.804688 289.214844 C 217.679688 289.214844 220.820312 286.074219 220.820312 282.203125 C 217.914062 282.203125 215.558594 279.847656 215.558594 276.941406 Z M 215.558594 276.941406 " fill-opacity="1" fill-rule="nonzero"/></g><g clip-path="url(#62139a27d8)"><path fill="#fcd116" d="M 206.789062 289.214844 C 202.917969 289.214844 199.777344 286.074219 199.777344 282.203125 L 199.777344 278.695312 C 201.925781 278.695312 203.890625 277.480469 204.851562 275.558594 L 205.035156 275.1875 C 207.28125 277.433594 210.328125 278.695312 213.503906 278.695312 L 213.804688 278.695312 L 213.804688 282.203125 C 213.804688 286.074219 210.664062 289.214844 206.789062 289.214844 Z M 206.789062 289.214844 " fill-opacity="1" fill-rule="nonzero"/></g></svg>