<svg xmlns="http://www.w3.org/2000/svg" xmlns:xlink="http://www.w3.org/1999/xlink" width="440" zoomAndPan="magnify" viewBox="0 0 330 179.999997" height="240" preserveAspectRatio="xMidYMid meet" version="1.0"><defs><clipPath id="ce277564a8"><path d="M 30 79 L 149 79 L 149 172.945312 L 30 172.945312 Z M 30 79 " clip-rule="nonzero"/></clipPath><clipPath id="4c46e47c95"><path d="M 9.554688 7.195312 L 168.554688 7.195312 L 168.554688 101 L 9.554688 101 Z M 9.554688 7.195312 " clip-rule="nonzero"/></clipPath><clipPath id="ab56736cce"><path d="M 4.707031 4.046875 L 324.953125 4.046875 L 324.953125 175.796875 L 4.707031 175.796875 Z M 4.707031 4.046875 " clip-rule="nonzero"/></clipPath><clipPath id="a6bacd7fa9"><path d="M 325.285156 22.796875 L 325.285156 157.199219 C 325.285156 167.554688 316.890625 175.949219 306.535156 175.949219 L 23.457031 175.949219 C 13.101562 175.949219 4.707031 167.554688 4.707031 157.199219 L 4.707031 22.796875 C 4.707031 12.441406 13.101562 4.046875 23.457031 4.046875 L 306.535156 4.046875 C 316.890625 4.046875 325.285156 12.441406 325.285156 22.796875 Z M 325.285156 22.796875 " clip-rule="nonzero"/></clipPath></defs><g clip-path="url(#ce277564a8)"><path fill="#7c4d25" d="M 146.351562 89.066406 C 145.253906 88.984375 144.113281 88.949219 143.230469 89.089844 C 143.039062 89.117188 142.851562 89.160156 142.667969 89.203125 L 141.457031 89.472656 L 141.453125 90.539062 C 141.429688 95.976562 139.703125 101.433594 136.710938 105.507812 C 132.792969 110.855469 129.074219 113.835938 125.65625 114.367188 C 125.421875 114.402344 125.195312 114.421875 124.984375 114.421875 C 124.523438 114.421875 123.90625 114.332031 123.605469 113.894531 C 123.273438 113.421875 123.296875 112.578125 123.664062 111.574219 C 125.921875 105.414062 126.886719 98.785156 126.792969 90.089844 L 126.777344 88.644531 L 125.34375 88.777344 C 124.617188 88.847656 123.898438 88.9375 123.1875 89.039062 C 122.867188 89.082031 122.539062 89.132812 122.214844 89.1875 L 120.964844 89.390625 L 121.109375 90.652344 C 122.203125 100.074219 119.742188 108.394531 113.585938 116.078125 C 111.082031 119.203125 107.828125 122.355469 103.625 122.71875 C 100.457031 122.992188 96.4375 120.359375 95.5625 117.304688 C 94.757812 114.5 96.808594 110.855469 98.890625 109.042969 C 102.128906 106.21875 105.742188 103.949219 108.160156 100.285156 C 111.507812 95.195312 113.480469 89.675781 114.972656 84.949219 L 115.472656 83.351562 L 113.808594 83.222656 C 113.148438 83.167969 112.492188 83.101562 111.832031 83.035156 C 110.75 82.925781 109.632812 82.808594 108.515625 82.765625 L 107.351562 82.714844 L 107.152344 83.863281 C 107.550781 98.039062 94.78125 106.28125 82.691406 106.28125 C 82.191406 106.28125 81.6875 106.269531 81.175781 106.238281 C 69.257812 105.539062 64.414062 92.746094 64.671875 81.015625 L 64.488281 80.019531 L 63.476562 79.9375 C 62.058594 79.816406 60.808594 79.804688 59.519531 79.914062 L 58.136719 80.027344 L 58.3125 81.40625 C 58.433594 82.375 58.546875 83.355469 58.660156 84.335938 C 59.496094 91.625 60.359375 99.164062 65.851562 104.925781 C 67.589844 106.75 69.453125 108.449219 71.296875 110.167969 C 75.464844 114.050781 79.296875 118.375 75.007812 123.878906 C 71.929688 127.828125 66.242188 125.789062 62.53125 124.007812 C 59.699219 122.652344 57.046875 120.6875 55.40625 117.960938 C 49.292969 107.785156 50.15625 96.902344 51.808594 87.59375 L 52.140625 85.726562 L 50.269531 86.050781 C 48.789062 86.308594 46.597656 86.851562 44.546875 87.96875 L 44.003906 88.261719 L 43.878906 88.871094 C 43.246094 91.976562 42.535156 96.621094 43.65625 101.121094 C 43.929688 102.21875 44.320312 103.332031 44.695312 104.414062 C 45.316406 106.183594 45.953125 108.019531 46.042969 109.703125 C 46.136719 111.515625 45.8125 112.867188 45.105469 113.613281 C 44.609375 114.132812 43.894531 114.386719 42.921875 114.386719 L 42.773438 114.386719 C 40.15625 114.320312 37.570312 110.054688 37.109375 107.214844 C 36.421875 103.007812 36.863281 98.78125 37.417969 94.460938 L 37.71875 92.128906 L 35.566406 93.074219 C 33.976562 93.769531 32.628906 95.046875 31.640625 96.078125 C 31.558594 96.160156 31.484375 96.246094 31.332031 96.425781 L 30.953125 96.851562 L 31 97.417969 C 31.414062 102.648438 31.929688 109.160156 34.828125 113.882812 C 39.015625 120.722656 43.890625 124.015625 51.421875 127.691406 C 54.359375 129.125 57.363281 130.117188 60.273438 131.078125 C 66.339844 133.078125 72.070312 134.964844 76.148438 140.582031 C 79.664062 145.417969 79.347656 151.964844 78.847656 155.4375 C 78.335938 158.984375 77.417969 163.398438 74.820312 166.070312 C 74.101562 166.8125 73.132812 167.742188 72.035156 168.359375 L 72.710938 170.851562 L 73.167969 170.84375 L 74.070312 170.851562 C 75.207031 170.851562 76.433594 170.804688 77.8125 170.261719 C 78.910156 169.832031 80.355469 169.15625 81.777344 168.171875 C 81.832031 168.363281 81.882812 168.550781 81.933594 168.742188 L 82.167969 169.410156 C 82.546875 170.90625 83.070312 172.839844 84.644531 172.839844 L 84.71875 172.839844 C 85.945312 172.839844 86.683594 171.738281 87.527344 170.050781 L 87.671875 169.863281 C 87.8125 169.59375 87.96875 169.382812 88.125 169.121094 C 88.332031 168.777344 88.535156 168.457031 88.71875 168.101562 C 88.773438 167.992188 88.839844 167.890625 88.910156 167.777344 C 89.140625 168.039062 89.367188 168.289062 89.589844 168.46875 C 90.601562 169.28125 91.734375 169.878906 92.863281 170.195312 L 93.046875 170.25 C 93.925781 170.496094 95.398438 170.914062 96.699219 170.914062 C 97.644531 170.914062 98.40625 170.695312 98.972656 170.261719 L 100.28125 169.261719 L 99.03125 168.191406 C 97.226562 166.652344 95.757812 164.914062 95.003906 163.421875 C 89.976562 153.492188 94.167969 142.007812 100.546875 135.03125 C 105.023438 130.132812 110.5 128.042969 116.296875 125.832031 C 120.367188 124.277344 124.578125 122.671875 128.546875 120.011719 C 134.347656 116.128906 144.417969 108.261719 146.714844 99.191406 C 147.363281 96.636719 147.894531 93.832031 148.34375 90.625 L 148.546875 89.191406 Z M 146.351562 89.066406 " fill-opacity="1" fill-rule="nonzero"/></g><g clip-path="url(#4c46e47c95)"><path fill="#c9d439" d="M 168.125 49.53125 C 166.996094 43.898438 160.875 39.339844 155.238281 39.5625 C 155.035156 36.085938 152.667969 32.933594 148.4375 31.292969 C 142.351562 28.933594 136.339844 31.316406 131.511719 35.195312 C 132.113281 32.4375 131.8125 29.769531 129.683594 28.023438 C 127.085938 25.90625 124.082031 23.804688 120.699219 23.34375 C 120.199219 23.269531 119.683594 23.285156 119.167969 23.335938 C 119.640625 18.710938 117.722656 13.902344 113.148438 11.671875 C 109.738281 10.011719 104.75 9.238281 101.074219 10.761719 C 99.972656 8.839844 98.074219 7.488281 95.152344 7.316406 C 91.714844 7.121094 88.519531 8.53125 86.273438 10.855469 C 83.394531 9.515625 79.949219 9.121094 77.070312 9.824219 C 70.527344 11.410156 66.550781 16.390625 65.234375 22.242188 C 61.675781 21.539062 58.054688 21.929688 55.363281 24.09375 C 51.804688 26.957031 48.023438 30.414062 47.320312 35.195312 C 46.785156 38.867188 46.667969 42.5 46.761719 46.144531 C 37.238281 39.351562 26.691406 44.765625 22.253906 47.855469 C 15.34375 52.667969 13.976562 62.210938 16.773438 69.933594 C 11.664062 72.820312 7.992188 81.347656 10.214844 86.050781 C 11.945312 89.699219 15.582031 91.429688 19.367188 91.542969 C 18.6875 96.210938 21.390625 100.441406 27.269531 100.800781 C 31.738281 101.070312 36.195312 98.9375 39.640625 96.277344 C 40.695312 95.457031 41.464844 94.351562 42.035156 93.121094 C 44.6875 94.507812 48.574219 94.554688 50.832031 93.835938 C 54.355469 92.710938 56.878906 89.074219 57.960938 85.113281 C 59.773438 86.269531 62.226562 86.734375 64.566406 86.785156 C 66.914062 86.835938 69.34375 86.21875 71.511719 85.105469 C 71.167969 90.089844 73.6875 94.578125 79.753906 96.214844 C 85.652344 97.800781 94.082031 95.3125 97.628906 89.988281 C 100.3125 91.675781 103.636719 92.003906 107.53125 91.585938 C 110.414062 91.269531 114.511719 90.011719 117.632812 87.914062 C 117.621094 89.710938 118.011719 91.449219 118.765625 92.515625 C 120.6875 95.246094 125.550781 95.074219 128.300781 94.230469 C 128.632812 94.132812 128.945312 93.960938 129.242188 93.765625 C 129.605469 95.59375 130.601562 97.097656 132.851562 97.765625 C 135.261719 98.484375 137.753906 97.621094 139.796875 96.003906 C 141.582031 97.003906 143.839844 97.347656 146.800781 96.851562 C 152.789062 95.84375 155.320312 91.433594 155.882812 86.371094 C 159.25 86.757812 162.785156 85.671875 164.824219 82.910156 C 167.867188 78.78125 166.421875 71.921875 163.367188 66.847656 C 167.929688 62.929688 169.371094 55.761719 168.125 49.53125 Z M 168.125 49.53125 " fill-opacity="1" fill-rule="nonzero"/></g><g clip-path="url(#ab56736cce)"><g clip-path="url(#a6bacd7fa9)"><path stroke-linecap="butt" transform="matrix(0.75, 0, 0, 0.75, 4.707401, 4.04625)" fill="none" stroke-linejoin="miter" d="M 427.437005 25.000834 L 427.437005 204.203958 C 427.437005 218.01125 416.244297 229.203958 402.437005 229.203958 L 24.999506 229.203958 C 11.192215 229.203958 -0.000493629 218.01125 -0.000493629 204.203958 L -0.000493629 25.000834 C -0.000493629 11.193542 11.192215 0.00083366 24.999506 0.00083366 L 402.437005 0.00083366 C 416.244297 0.00083366 427.437005 11.193542 427.437005 25.000834 Z M 427.437005 25.000834 " stroke="#7c4d25" stroke-width="8" stroke-opacity="1" stroke-miterlimit="4"/></g></g></svg>